<mxfile modified="2022-05-13T09:56:42.201Z" host="app.diagrams.net" agent="5.0 (Windows NT 10.0; Win64; x64) AppleWebKit/537.36 (KHTML, like Gecko) Chrome/101.0.4951.54 Safari/537.36" etag="jpeIcqY0LFWSy_cjsh4g" version="17.4.6" type="github">
  <diagram id="C2fSY1v2SiZeoUbDoYyL" name="Page-1">
    <mxGraphModel dx="1038" dy="556" grid="1" gridSize="10" guides="1" tooltips="1" connect="1" arrows="1" fold="1" page="1" pageScale="1" pageWidth="1169" pageHeight="827" math="0" shadow="0">
      <root>
        <mxCell id="0" />
        <mxCell id="1" parent="0" />
        <mxCell id="3ne1QswCM8ZiEu4GHsYG-31" value="Company Goods Delivery Procedure" style="text;html=1;strokeColor=none;fillColor=none;align=center;verticalAlign=middle;whiteSpace=wrap;rounded=0;fontStyle=1;fontSize=20;fontColor=#4D4D4D;" parent="1" vertex="1">
          <mxGeometry x="189.5" y="50" width="790" height="30" as="geometry" />
        </mxCell>
        <mxCell id="3ne1QswCM8ZiEu4GHsYG-32" value="" style="line;strokeWidth=2;html=1;fontSize=20;fontColor=#4D4D4D;" parent="1" vertex="1">
          <mxGeometry x="103.5" y="80" width="960" height="10" as="geometry" />
        </mxCell>
        <mxCell id="d-vzbSvFQILC7-2r6cho-2" value="" style="shape=image;verticalLabelPosition=bottom;labelBackgroundColor=default;verticalAlign=top;aspect=fixed;imageAspect=0;image=data:image/png,iVBORw0KGgoAAAANSUhEUgAAAgAAAAIACAYAAAD0eNT6AAAAAXNSR0IArs4c6QAAIABJREFUeJzt3Xd0HOed5vunqrvRABqJIBhBgjnnTDFJDKIoSpZkRVuyLVv2zLU3+OzeuXf3bprVnD175szu2ZnZu/fs8czIkiXLQaKsZImkKIqimIMIBjBnMYMAidxodKr7x1hjBQYQ9VbH78f/2DL6qZ9AEP1UddX7SgAAAAAAAAAAAAAAAAAAAAAAAAAAAAAAAAAAAAAAAAAAAAAAAAAAAAAAAAAAAAAAAAAAAAAAAAAAAAAAAAAAAAAAAAAAAAAAAAAAAAAAAAAAAAAAAAAAAAAAAAAAAAAAAAAAAAAAAAAAAAAAAAAAAAAAAAAAAAAAAAAAAAAAAAAAAAAAAAAAAAAAAAAAAAAAAAAAAAAAAAAAAAAAAAAAAAAAAAAAAAAAAAAAAAAAAAAAAAAAAAAAAACQClaqDvT8847dGDo2JB6Ij7YSVplsp5flKOQ4KkjVDAAA9EQknii/1h6fajbVidqy2hxHDT6f3ejI2tRkTdmx8XkrbvY4N+ZZAfjJXx7opUL/3ZbjLHakRZLGSir06ngAAHglHE3os4aw58exJAX8dmeB3z5e4LNXFyb0d7/+r9M/8+pYxvzL//dEMBHvWu5Y1nfl6BFJAZP5AACkQ6oKwNdYUlHAd73I738jWJ74D7/5v2Y2Gox271/9zd6KiAL/0nKsn0qqMpEJAECmSFsB+AK/bSWLCuyPS+X7oYmrAq4KwL/+6/NFnVbrv7Ec/Z+SytwOAwBAJsqEAvA5y7Kc0qBvox3wPfr289Oae5pj9/SFP/6bQ0u61FprOXpevPkDAJASjuNYrZH44vZw7Ooj/3HPf+5pzh1fAfj+82cKi8vCf+VIP+3pQQEAyCaZdAXgq0JB3+mySmvOnd4fcEdXAP75/zgyuqiscydv/gAAZIaOrsTwaw3Jc9/8i9333snrul0A/tnfHpyVtJJbJWfynY8HAAC8Eo0ni1rakh88/ue7/4/uvqZbBeAnf3PofidpfSzu8AcAICMlHce6Fk787NH/9Ol/7M7X37YA/Phv6u6RozclhVxPBwAAPOM40vVw/L88/Oe1//Z2X3vLAvCTv62bbDn2W2IFPwAAskZrOPaXj/z57m/f6mtuWgB+9Ld1/ZS010qqMD4ZAADwjOM4Vntn8pePPX9g7M2+5oYF4PnnHTuQ9L0iaYBn0wEAAM/Ek46vI9K17Z7nHf+N/v8bFoD60sP/VnKWezsaAADwUiSW6FUe3/vOjf6/rxWAP/1vdSNk6c+9HwsAAHitLRJd+cR/qr37q//8awXA57f/p7jpDwCAnJB0pPZE4o2v/vMvFYCf/M2h+yU9kLKpAACA5zq7ElWP/vmn/+6L/+yrVwD+fQrnAQAAKdIRdW5cAP6w4M+C1I8EAAC81hVLlH7zL/b+88//9z8VAMux/0V6RgIAAKnQ1RX7fz7/77Yk/eQvD/SS9GDaJgIAAJ7r7EoOevo/1A6R/lAAnAL/tyQF0zoVAADwlCOpw+f8F+kPBcCynIfSOhEAAEiJWCy5XJKs55//2F9f1ve6pNI0zwQAQEYKRxP6rCGc7jGMsC3LqSkJF9tXS6tmizd/AADyQtJxrDaVP20nZc9M9zAAACB1EgnnPluWMybdgwAAgNRJOBpjSxYFAACAPBKLJwfZllST7kEAAEDqJJNOqV85eANgMNmlYW3n1SdyXSXxDoXinUpYPrUEQuoIhPRZaJDqC6vkWFa6R5UkFfpjmtD/sqrLm1VRFFZZsEvxpK2mzmK1dBbp6NV++qy5Uo6TGfNa/qQKB7WpoHenfKGYfEVxOQlLiXCBEmG/ui6F1NVQLGXIvACAL0s6ji+nCsDgjsua3Virmo5L8jnJm37dQu1SeyCkI+WjtKtqqjp96VkDaURVg+4bfURj+9bLbydu+nUPTZBaIkX69HyNPjg+Xu1d6Zm3oG9YZVPqVTiwQ5b/5t9fzZASYb/Cp3up7UAfJTr9qRsSAHBbSceyrZ/89aGkpKw+VauItmrJlW0a3vbZHb+2y1egHVXTtKf3ZCWtr26O6I2qUIcen1yryQMu3vFrI/GAPjg2Th+eGKdkMjV/bL6SqHrNuaTCoa13/IOSjNlqP9BXrQf6yEnRvABgWi6tAyBJsiTrJ399yEn3HG4M7bigB8+tV2Gyy1XO2ZLB+v2gZeryFRia7MZGVDXoT+dsUWnQ3bxH6vvr57vnKRz1dt6CfmFVLT0rX1HcVU7XlZCubRjC1QAAWSnnCoC+sBtgNhrffFyPnV3t+s1fkoa2n9fTZ95WUbzTwGQ3NnPQOf2rhR+7fvOXpHH9rujf3POhygojBia7seKhLep7/ynXb/6SFOzfob4PnpQvFDMwGQDArawtANXhK7rv0iZZMncBo3dXkx45v+6W9w/01JBe1/XdGbvks8xl9y1p05/O3XLL+wd6qqB3pyrvOSfLZ+776y+Lqs+9Z41mAgB6JisLQEk8/Ic3avNvfNXhK7qnfrvRzNJgl35y1yYFfO7PpL9qeGWjnpxSazTTDiZU5dEbdaB3pyrnXTCeCwC4M1lZAOZd/dTTS/VTrh9WVeS6sbyV4w56eql+/rDTqullbt6yKfWeXqovHt2kgn659VkaAGSbrCsAlV3NmtR01NNj2E5SC+t3GsmqCnVo/tBTRrJuxpKjRyfuM5LlK4mqZPw1I1m3UjHzsufHAADcXNYVgKnXDxv93P9mRrSfU3ms1XXOouEn5LfN31PwVaP7XFW/Evfzloy5npLP6IP9OxTo5d1VEQDArWVdARjRg2f9e2pk61nXGT151r+nplS7P1bREPclotvHGpq6YwEAviyrCkBV5JqRs/LuGtF2ztXr+5W0qm9Jm6Fpbm9Sv0uuXu8viab0rLyopiVlxwIAfFlWFYDKaGrfMHpFm129vl9Z6t78Jalvqbty5C93vz7BHR2vLJrS4wEA/iirCkAolto7x0PxTlf3G5QHvXtS4UZKglFX6wzYIfOPKd7yeAWJW+8pAADwTFYVgKJkam8as52kgsmen6WGClJ7hmvJUSjY82P6gqktAJJkF6b+mACALCsAETu1u+A5shS1Aj1+fTjW89f2hCNL4WjPj5ns8hmcpnucLvYGAIB0yKoC0BEIpfh4xa52CGzuLDY4ze11RIOKJ3v+Jp4Ip7iwxHxKxrLqRxAAckZW/fZtCZSm9HjNgTJXr7/WUWJoku5p7HBXkOJt3u4s+FWxttQWDgDAH2VVAagvqlK7P3Vn1adLa1y9/lJrmZpSeBXg4JWBrl4fbwkq3pq6j1ki590VLABAz2VVAXBk6XTpkJQd71TZUFevd2Rp/6VqQ9Pc3gEDx+r8LHVvyqk8FgDgy7KqAEjSgV7j5FiW58e5UDxA1woqXOdsOztCjuP9vGebeutCi/t5O05UpmTe6LUixRpSe48EAOCPsq4AXCnqo2Nlwz0/zqb+c4zkXGip0K7z3l+1ePvgFCM5saagOo5XGsm6lZbd/VOwowMA4GayrgBI0pZ+sxWzvbuB7Ej5SF0q6mcs7/eHJykS927evRcH6XhDX2N5rXv7evpIYORcmSIXU3tDJwDgy7KyADQHyvR+9RI5Mn+p+lqwlz4csNBo5vVwSC/smK+kY/7bXd9epldrzVyt+FyiI6BrG4ZIHizSl2gr0PXNg8wHAwDuSFYWAEk6WTZUm/vNNprZ7g/pzZr7FfWZfxzu8NX+erNuitHS0tpVqP+9bZE6PVhwKHKpRE07Bhq9TJ+M+NWwbpgSERb/AYB0y+rfxLuqpqo1UKIVlz6RP+luSdmrhb31ds0KtQa8e3Z/w8kxaokU6bszdqrAl3CVdbG1XD/btkjXwt4tjtR+pEqJzoB6333e9Zr9setFalg/RIkUrzUAALixrC4AknS0fKRaAmW69/Jm9Y003vHrE5at/ZUTtKnvbMVt778dey7UqKGjRN+e+qmG9Lp+x69POLa2nBmhtw5OUTTu/bydZ8t1tTWoXvMvqKBvDzZjSkrtx3ureecAOfGsveAEADnH+slfH8qJm7EtORrXfFKzG/epquv2b6xx268TpUO1td8s1yv+9YQlR9MHndeKsYdUXXb7bY5jCZ8OXK7W7w9P0tX21N9AZ0kqHNqisqlXVdD79rscOglLkfNlatnTX7Hm1O7hAACmhaMJfdaQ2h1pvZYzBeCLKqKtGtV6Rn0i11Qa71BxPKyYHVCHv1itgRKdC1XrbMlgxVJwxt8dfUraNXnARQ0qb1JFUafKCzsVjfvVEilUU2dIxxr66nD9AHWl4Iy/O3ylURUPaVGgd0T+4pjsopiUtBXv8CsRLlDXpRJFLpSyzj+AnEEBAAAgD+ViAeAUDQCAPEQBAAAgD1EAAADIQxQAAADyEAUAAIA8RAEAACAPUQAAAMhDFAAAAPIQBQAAgDxEAQAAIA9RAAAAyEMUAAAA8hAFAACAPEQBAAAgD1EAAADIQxQAAADyEAUAAIA8RAEAACAPUQAAAMhDFAAAAPIQBQAAgDxEAQAAIA9RAAAAyEMUAAAA8hAFAACAPEQBAAAgD1EAAADIQxQAAADykN/ffqxTTrIo3YMAAJCpCuK2yuxQuscwyl/QuJE3fwAAbiUaVaixMd1TGMVHAAAA5CEKAAAAeYgCAABAHqIAAACQhygAAADkIQoAAAB5iAIAAEAeogAAAJCHKAAAAOQhCgAAAHmIAgAAQB6iAAAAkIcoAAAA5CEKAAAAeYgCAABAHqIAAACQhygAAADkIQoAAAB5iAIAAEAeogAAAJCHKAAAAOQhCgAAAHmIAgAAQB6iAAAAkIcoAAAA5CEKAAAAeYgCAABAHqIAAACQhygAAADkIQoAAAB5iAIAAEAeogAAAJCHKAAAAOQhCgAAAHmIAgAAQB6iAAAAkIcoAAAA5CEKAADPBQqC6R4BwFf40z0AkEqhsgpNmjFPw0ZPVHnvPrJtW5HOsK5cOKsje3fq7IlDchwn3WNmvYJgoSZMv0vDx05WnwGDZNu2YtEuXb18QScO7tHRA58qmUikfK4BNcM1cfpdGjhkhEKl5XIcR20tTTp36qgO7t6i6431KZ8JSBfrz376U37bIS+MnzZH8+99+JZnoxfOntBH7/xGHW0tKZwstwwePkZLH/62ikOlN/2apoZ6rXvrl7p29XJKZgoECrTo/kc1ZvKsm36Nk0yqdvvH2rVxDSUQXxONRtXY2JjuMYzyzZsz5/l0DwF4bercu7VwxaPy+W590ausoreGjhqvU0cPKBbtStF0uWPoqPF64KkfqiBYeMuvKwqVaNSEaTp/+pjC7W2ezuT3B/Tgt/9Ew8ZMvOXXWZalgTXDVVreS2dPHPJ0JmSfRCKhcDic7jGM4h4A5LzhYyfrrqXf6PbXV/Tuo2UPf1uWZXk4Ve4JlZRp2SPPyLK792slWFik+x79nvyBAk/nmrN4pQYOGdHtrx87ZZZmLlzu4URAZqAAIKdV9a/u0Zv5oGGjNWjoKI+myk2z77n/tmf+X1VeWaVx0+Z4NJFUUlahSbMW3PHrZi68VyPHTfFgIiBzUACQs4pLyrTyyed6fIY5ZvJMwxPlrpLyXhozaUaPXjvuFp/LuzVm0gzZ3bwi8UWWZWnJQ99SVf9qD6YCMgMFADnJ5/Pr/ie+r5Kyih5n9B801OBEuW3qnLtl+3w9em3vfgM9+xigX3VNj1/rDxRo5ZPPqbikzOBEQOagACAnLVzxqPpVD3GVUVhUbGia3BYsCmnc1Nk9fr1lWQp69L0uLC5x9fqSsgrd/8T3b3vzKJCNKADIOVPvWqzxBj5XjsdjBqbJfVNmL3S90E88FjU0zZclYu7/DPtVD9E9Dz5hYBogs1AAkFOGjBqvuYtXGsm61nDFSE4uCxQENXHmfFcZHW0t6ur05vEqU+sMjJk0U1PvWmwkC8gUFADkjF5VfXXvw0/36KavGzl1eJ+RnFw2Yfpc1x+VnD5aZ2iarzt59ICxrLuWPKChoycYywPSjQKAnBAsCumBp36kgsIiI3ntLU06cXCvkaxcZft8mjx7kasMx3F0aM82QxN93ZXzZ3Txs1NGsizL0rKHn1ZlVT8jeUC6UQCQ9WyfTyse+57KevU2kpdMJrXhvdcV8+hz6VwxdvJMV09ZSNLZE4c8X3//4/deU7QrYiSrIFiolU/9UMGikJE8IJ0oAMh6C5Y/ouqhI43l7fh4tS6cOW4sLxfZtq2pc91/Jl67dYOBaW6ttema1v3uFSWTSSN5Zb16a+UT3+/xY49ApqAAIKtNmjlfE2fMM5Z3rO5T7dv+sbG8XDV87GRV9O7jKuPi2ZOqv/iZoYlu7dzpY9q54X1jeQNqhuvu+x83lgekAwUAWWtgzXDNv/dhY3n1Fz/TxvdWGcvLZdMM3BFfu837s/8v2rtjow7v3Wksb9zU2UbLJ5BqFABkpbKKSq0weBm2o61Fa994WYlE3EheLqsZPkZ9BgxyldFYfyktH7NsWvs7XTp32ljewvu+yZ4RyFoUAGSdQEFQK5/6oQoN3YgVj8e0ZtVL6mhrMZKX66bPX+o6o3bLejmOY2CaO5NMJLTud6+ovaXJSJ5l21r+2PdUXlllJA9IJQoAsoplWbr3m99RZZ/+RvIcx9GG37+mq5fOG8nLdf2qa+5oa90baW26ptPHvHv2/3bCHW1a/fqLxp7yKCwq1gNP/UhBQ4+gAqlCAUBWuWvpNzR01HhjeZ9uXqeTh3jev7tmmDj73/aRsTvye6qx/pLWv/1rY1chKnr30b2PftfYIlRAKvDTiqwxZtJMTZ17t7G800cP6NPNHxrLy3W9qvpqyCh3K+GF21t1rK7W0ETunDlWp083rzOWVzN8jOYuedBYHuA1CgCyQv9BQ41uyNJYf0kfvfObtHwOna2mz18qy7JcZezbsVGJDNpk6dPNHxq9AjR17t1GNqICUoECgIxXUt5LKwxuyRruaNPq137OSn93oKSsQqPGT3OVEekM61DtDkMTmeHFPSCLVjymapf3SQCpQAFARvP7A1rx2LMqDpUayfunu8Bbm43k5Ytpdy12/cjlwd1bFIt2GZrIHNNPgdg+n+57/FmVVVQayQO8QgFAxrIsS0se+pb6DhxsLPOTNW8YfQ48HwSLQho7dbarjHgsqrpPtxqayLyOthatfv1FxQ19PFFYFNKKJ36gQKDASB7gBQoAMtasRfdp5PipxvL2bv9YR/btMpaXL6bOXuj6jezw3p3qDLcbmsgbDZcv6JP33zCWV9VvoJY98rTr+yYAr1AAkJFGjJ2sGQuWGcs7d/qYdn682lhevggECjRxprvlbpOJhPbv3GRoIm8dq/tUew3uBTFszCTNWrjcWB5gEgUAGaeqf7WWPPxtY2dOTY1Xte7NX6b92fNsNHHGPNdb3x4/WKu2luuGJvLejg3v68zxQ8byZiy8V6MmTjeWB5hCAUBGKS4p08onnzP22WmkM6zVr72gaKTTSF4+8fn8mjxnkasMx3GybndFx3G0/u1f6drVy0byLMvS4gefVL/qGiN5gCkUAGQMnz+gFU98XyVlFUbykomEPnjzFbU0XTOSl2/GTJ6hUGm5q4yzxw/qemO9oYlSJxbt0prXfm7svgW/P6AVT/zA9fcTMIkCgIyxaMWj6l89xFjelnVv6+KZE8by8olt25p21xLXObXbsuvs/4taW5q0dtUvlEwkjOSF/nB1y8+TAcgQFABkhOnzlmicy0fNvqju0606uGebsbx8M3zsZNc73F08c0L1Fz8zNFF6XD5/Rp+sMfdkQJ8Bg3T3A48bywPcoAAg7WpGjtPse+43lnfp3Glt/fAdY3n5aNpdi11n1G7bYGCS9Duyb5fRNQzGTJyhafPcX10B3KIAIK0qq/pq+SPPGNtFrbX5utHLtvmoZvgY9RkwyFVGY/0lXTibOx+/bF33ts6dPGIsb+7ilRo22t3GSoBbFACkTbAopPuf+pEKDO2jHot2afVvX1Cks8NIXr6abmDL3z1b1ufURkvJZFIfvvNrtVxvNJJnWZaWPfKMevcdYCQP6AkKANLC9vm04rHvqbxXbyN5juPow7dezco7zjNJv+oaDXS5kU1r0zWdOVZnaKLM0dUZ1vuvvaAuQ4+UBgqCuv+p51RUXGIkD7hTFACkxcL7vqnqoSON5W3/6Pc6e+Kwsbx8NX2++9UX92xdn7OLLjVfa9C6N38px9C/X1l5pVY88X3XGy0BPUEBQMpNmrVAE6bfZSzvWN2n2rfjE2N5+aqyqq+GjhrvKqOjrUXH6vYYmigznT99TNs3vGcsb8DgYbpn5RPG8oDuogAgpQYNG60F9z5sLO/KhbPa+N4qY3n5bNr8pa6XX96/85O8uAFz345PdHjvTmN5Y6fM0qSZ843lAd1BAUDKlFVUavmj35Fl6I7/9j8s1JJIxI3k5bOSsgqNGj/NVUakM6xDtTsMTZT5Nq39nS5+dspY3vzlj6hm5DhjecDtUACQEgXBQq381o9U6HJjmc/F4zGt/d3LCne0GcnLd9PmLXH9OXTd7i2KRbsMTZT5komE1r7xslqbzWx0ZNu27n34aVX07mMkD7gdCgA8Z9u27n3kGVVW9TOS5ziONrz7W129dN5IXr4LFoU0dsosVxnxWFQHDS6Wky26Oju0dtVLxopPsKhYK5/8oYKGHo0FboUCAM/NW/oNDXF5c9kX7d70gU4e3mcsL99NmbPI9e6Lh2t3GNs4J9s01l/S+rd/bWzdg4refbT80e8a+6gMuBl+wuCpMZNnud5S9otOHT2gPVvWG8vLd4GCoCbNmOcqI5lIaP+uzYYmyk5njh/U7k0fGMsbPHyM5i39hrE84EYoAPBM/8HDdI/BjU8ar1zUhnd+k1MrzKXbhBnzFCwqdpVx/GCt2lrMfA6ezfZsWa8TB2uN5U2Zs0jjp881lgd8FQUAnigtr9T9jz8rn89vJC/c3qrVr7+oWCxqJA+Sz+fXlNkLXWU4jqN927N3y1+THMfRx++9rvqL54xlLrrvUVW7XJkRuBkKAIwLFAS18qnnVBQqNZKXiMe0dtUv1N7abCQP/2jMlJkKlZa7yjhzrI7ll78gHo9p7aqX1GHoZ9X2+bTi8WdVVlFpJA/4IgoAjLIsS4sffNLoJicb31ulK1m+r3ymsW1b0+a63/J37/aNBqbJLR3trXr/9RcVN3S1KlgU0gNP/UgFwUIjecDnKAAwatbdKzRy/FRjebXbNujYwdxeWjYdho+drPLKKlcZF86eUD3F7IYar1zUhnd/a+x+lV59+mnpw992vVIj8EUUABgzYtwUzTCwleznzp08ol0b1xjLwx9Nn7fEdUbt1g0GJsldJ4/s116D90cMGz1RsxfdZywPoADAiKr+1Vr60LeMnaFcb7yqdW//Kmd3lUunmhFjVdW/2lVGY/0lXTx7wtBEuWvnx6t19vhBY3nTFyzTqInTjeUhv1EA4FqopEwPPPmc/C4Xk/lcV2eHVr/2gqKG9l3Hl00zcPa/Z/OHPI7ZDY7j6MO3f61rVy8bybMsS0sefFL9qmuM5CG/UQDgis8f0Ionf6BQWYWRvGQiobW/e0WtTdeM5OHL+g2scf1YWfO1Bp0+VmdootwXi3ZpzWs/V6ehfSt8/oBWPGHu7xzyFwUAPWZZlhY/8IT6DTR3NrJ53Vu6ePaksTx82fQFy1xn7N2+gbP/O9Ta0qS1b7xsbKtk01fdkJ8oAOix6fOWaPSkGcby6nZt1qE9243l4csqq/pqqMs9GTraWnSsjqcyeuLy+TPauHqVsbyq/tVaYvC+G+QfCgB6ZOjoiZp9z/3G8s6fOa4t6981loevmzZ/qes3i307Nho7i81HR/fvVp3BfRNGjpti5J4O5CcKAO5Yrz79tMzgM8mtzdf14ZuvyuGOf8+UlFVo1PhprjIinWEd3rvT0ET5a+v6d/XZySPG8ubcc7+Gjp5oLA/5gwKAOxIsCumBJ39obFWyaFdEq3/7giKdHUbycGPT5i2R7fO5yqjbvcXYvvf5LJlM6sO3XlVTg5kllC3L0r2PPG109U3kBwoAus32+XT/48+qrFdvI3nJZFIfvv0r1pL3WFGoVOOmzHKVEY9FVbd7i6GJEO2KaM0bL6nL0KOupvffQH6gAKDb5ixeqYEGdybb9tHv9dmJw8bycGOTZi1wfbf44dodXKUxrPlag9b97hVjH32Vllca/WgOuY8CgG6p6N1HU+fcbSzvyL5dOrBzk7E83FigIKhJM+a5ykgmEtq3iz8rL5w/c1xbDd78Onj4GA0ZNcFYHnIbBQDdMnH6PGNnFpfPndYna94wkoVbmzhjnoJFxa4yjh+sVXtLk6GJ8FUHdm3WkX27jOVNmumu8CF/UADQLdXDRhnJaW25bnRBFNycz+fX5NkLXWU4jqO9O8xtaIMb+2TNG7p87rSRrAE1w13f8In8QAFAt5SUlrvOiMWiWvPai+oMtxuYCLczduoshVz+uZ05VmfsbnXcXDKR0No3XlZby3XXWX5/QEXFJQamQq6jAKBbHLlf+tXn86uE9ctTwrZtTZ1zj+ucfds3GpgG3REoKFCgIGgki1000R0UAHRLy3X3m/PYtq1lDz+tit59DEyEWxk+borKK6tcZVw4e0JXLn5maCLcSrCwSA98609UWBRynRWNdCrCVTZ0AwUA3XL+1FEjOcGiYq188ocKFhYZycONTb9rseuM2q0bDEyC27FtW/c++l31quprJO/8meNs1oRuoQCgWw7t3aF4PGYkq6J3H9376Hdl2/z4eaFm5DhV9a92ldF45aIunj1haCLcyryl31DN8DFGshzH0X6Dew0gt/EbGN3S0daiHRveN5ZXM3yM5i39hrE8/NF0A5vD7NmynrPIFBg3dbYmz1lkLO/Ivl26cv6MsTzkNgoAuq1u9xadOFhrLG/ynEUaP32usTxI/QbWaGDNcFcZzdcadPpYnaGJcDP9Bw/TovsfM5bXeOWitqx721gUn/EHAAAgAElEQVQech8FAN3mOI4+fu911V88Zyxz0X2PGl1eON/NWLDMdcbe7Rs4+/dYaXml7n/8Wfl8fiN54fZWvf/6i4rHokbykB8oALgj8XhMa1e9pI62FiN5pjcYymeVVX01ZNR4Vxkdrc06VrfH0ES4EdMb9yTiMa15/SV1tDYbyUP+oADgjnW0t2q1wbMN01sM56tpC5a5Xq55385PWKXRQ5ZlafGDTxrbutdxHH38/irVXzJ3VQ75gwKAHmm4fEEb3v2tsUvFvfr001J2MuuxkvJeGjVuqquMSGdYh/fuNDQRbmTW3Ss0cry7P6cvqt22Qce5YoMeogCgx04e2a+9282tEz9s9ETNunuFsbx8Mu2uxa7Xf6/bvUWxaJehifBVI8ZN0Yz5S43lnTt5RLs/WWssD/mHAgBXdn68WmePHzSWN2P+Uo2aON1YXj4oCpVq3NTZrjJisajqdm8xNBG+qqp/tZY+9C1jV7iaGuq17u1fseQvXKEAwBXHcfTh27/WtauXjeRZlqUlDz6pfgNrjOTlg8mzF8rvD7jKOFy7Q5HODkMT4YtCJWV64Mnn5A8UGMnr6uzQ+6//XNFIp5E85C8KAFyLRbu05rWfq7OjzUiezx/Qiid/oBAbB91WQbBQE2e42/89mUho/65NhibCF5n+WU4mElr7u1fU2uR+bw6AAgAjWluatPaNl5VIxI3kmT5rylUTZsxzva/Csbo9am9pMjQRPmdZlhY/8ITRq1mb172li2dPGstDfqMAwJjL58/ok9VvGMsz/blprvH5/Jo8a4GrDMdxtG8nW/56Ycb8pRo9aYaxvAO7NuvQnu3G8gAKAIw6un+36gxuRjJi3BQja9vnorFTZilUWu4q4/SxOjU11BuaCJ8baviJlvNnjmvr+neN5QESBQAe2Lr+XX128oixvNn33K+R46YYy8sFtm1r6tx7XOfs387Zv2m9+vTTMoNrWjRfa9C6N38phzv+YRgFAMYlk0l9+Narxs4sLcvS4m88ZWz1tFwwYvxUlVdWucq4cOa4rlz8zNBEkMyvahntimjtqpfU1Rk2kgd8EQUAnoh2RbTmjZfUZehRJdPrp2e7aQbO/mu3bjAwCT5nel+Lz4v09UY+ooE3KADwTPO1Bq373SvGLl2a3kEtWw0ZOU5V/atdZVy9dF4Xzp4wNBEk8ztbbjP8URrwVRQAeOr8mePa+tHvjeX1HzxMd6983FheNjJxU2TtNs7+TZo8Z5HGT59rLO/o/t06YPBmWuBGKADw3IGdm3S4doexvLFTZmny7IXG8rJJ/+ohGlAz3FVG87UGnTlWZ2giDB42WvOXfsNY3hXDj9MCN0MBQEps+uBNXfrslLG8ecse0pBR443lZYvpC5a5zqjd9pGxXRzzXUXvPlr+2Pdk2WZ+lba1XNcagwtqAbdCAUBKJBMJrXnjZWNLmNq2rXsfeUaVVf2M5GWDXn36acjIca4yOlqbdfxgraGJ8ltBsFD3P/4D1ysxfi4W7dLq1140tqQ2cDsUAKTMP21i0hUxklcQLNSKJ36gYFGxkbxMN2PeUtfPlu/d+YmSiYShifKXbdu695vfUa8+Zgqo6U21gO6gACClmhrqtf6d3xi7BF3Ru4+WP/pdY5dgM1VZRaVGTZjmKiPSGdaRvTsNTZTf5i97yPXVmC/auXGN0W21ge7I7d+ayEhnjx/Uro1rjOUNHjZaC5Y9ZCwvE029a7HrklO3e7Ni0S5DE+WvsVNmaZLBm1BPHtmvvTyVgTSgACAtardt0PG6PcbyJs1eqAkz7jKWl0mKQqUaO2WWq4xYLKq63VsNTZS/BgwepntWPmEsr/HKRW1497fclIm0oAAgLRzH0cfvr1L9pXPGMhcu/6aqh440lpcppsxeKL8/4Crj0J7tinR2GJooP5WV99KKx5+V7fMZyetob9X7r7+oeCxqJA+4UxQApE0iHtPa119SR2uzkTzb59OKx75nbCnWTFAQLNSEGfNcZSQTCR3YzaIybgQKgrr/qR8aW4o6EY9p7SpzP/tAT1AAkFamz4KCRSGtfOpHKjD0aFa6TZwxz/VjZsfq9qi9pcnQRPnHsizd+8jTxjajchxHG957XfUXzV39AnqCAoC0a7xyUR8Z/By0sqqvlj/yjOwsfzLA5/O7vtnMcRzt28mWv27MWbxSQ0dPNJZXu2W9TrAWAzJAdv+GRM44dWS/9mz9yFhezchxmn33CmN56TBu6myFSspcZZw+esDYtsz5aOS4KZp212JjeWeOH9SuTR8YywPcoAAgY+z+ZK1OHt5nLG/6/KUaPWmGsbxUsm1bUwxs+bt3+8cGpslPfQYM0pKHvuV68aXPNTXU6yODa2AAblEAkDEcx9HH771udDW0xQ88of7VQ4zlpcqI8VNV7vJmxvNnjuvqpfOGJsovoZIyrXzyOfkDBUbyujo79P5rLxhbBRMwgQKAjGJ6PXSfP6AVT3xfobIKI3mpMs3A2T9b/vaM3x/Qiid+oFBpuZG8ZCKhtW+8rNbm60byAFMoAMg4pndEKy4p0wMGz+a8NmTUeFX1r3aVcfXSeV08c8LQRPnDsiwtfvBJ9auuMZa56YM3ddHgTpiAKRQAZKQr589o4/vm9kSv6l+tpQ9/29jnuV6aPm+J6wyTN1TmkxkLlmnUxOnG8vbv3KTDtTuM5QEmUQCQsY4d2K0DOzcZyxsxdrKmL1hmLM8L/auHaMDgYa4ymq81sLFMDwwbM0mzFt1nLO/86WPa9tHvjeUBplEAkNG2ffR7fXbisLG82Yvu08jxU43lmTbDQEGp3fYRd5rfoap+A7XskaeNXSFqvtagdW/+Uk4yaSQP8AIFABktmUzqw7d/peuNZp5ltyxLSx76lvoMGGQkz6TefQeoxuUWsx2tzTrOIjN3pLAopBVP/EABY3f8h/X+ay+oK9JpJA/wCgUAGS/aFdHq375gbDMbvz+gFY8/q2JD67qbMn3eEtdnoHt3bFQykTA0Ue6zfT7d9/izKquoNJKXTCb14Tu/Vsv1RiN5gJcoAMgKrc3Xte7NV41dUi0tr9SKJ74vn89vJM+tsopK1x9NRDrDOrJvl6GJ8sOiFY+pesgIY3lb172tcyePGMsDvEQBQNa4cOa4tqx/11he/0FDdc8DjxvLc2PqXYtludy74MDuzYpFuwxNlPumzr1b46fNMZZ3dP9u1X261Vge4DUKALJK3a7NOlS73VjemMmzNGXOImN5PVEcKtXYKbNcZcRiUR3czZtPdw0ePkZzlzxoLO/y+TPauHqVsTwgFSgAyDqbP3hLF8+eNJY3b9lDGjpqvLG8OzV5ziL5/QFXGYf2bDd2j0Suq+jdR8sf/a6x3SJbW65r7apfcO8Fsg4FAFknmUho7e9eUUvTNSN5lmXp3m9+R5VV/Yzk3YmCYKEmTL/LVUYykdCB3ZsNTZTbgkXFeuCpHylYWGQkLxbt0prXXlRnuN1IHpBKFABkpa7ODq157QVFDT1qFSgIauW3fqTCopCRvO6aOHO+6zejY3V71N7SZGii3GXZtu577Hsqr6wykuc4jta//Sujm1cBqUQBQNa63nhV697+lZKGngwoq6jU8ke/4/pmvO7y+QOaNGuBqwzHcbR/B1v+dseC5Y9o0NBRxvJ2fLxaZ44fMpYHpBoFAFnt3Mkj2rVxjbG8QcNGa8HyR4zl3cq4KbMUKilzlXH66AFdb7xqaKLcNW7qbE2aOd9Y3rGDe7SX3RaR5SgAyHq12zbo2ME9xvImzZyvMRNnGMu7Edu2NcXAlr97t3P2fzv9qmt09/3mHvesv3ROG9/jjn9kPwoAcsLG91ap/tI5Y3kL7nvE0/sBRoyfqvJevV1lnD9zXFcvnTc0UW6ybVtLHvyWbJ/PSF5Ha7PWvv6SEvGYkTwgnSgAyAmJeExrXn9J7a3NRvKCRcUaN3W2kawbcXvnvyTVsuXvbdWMGKtefcw83RGPRbV61UvqaG81kgekGwUAOSPc3qrVr7+oWCxqJM+rtQGCRSHXW/7WXzxndC2EXDVkpJk/Q8dx9PH7q9Rw+YKRPCATUACQUxqvXNTHv3/NyHa4lYbOHL+qV2WV601/arkBrVtMnf3v2fyhTrDLInIMBQA55+ThfdqzZb3rHMs287nxV7n9PLqp8arOHj9oaJrcZmK1v1NHD2j35nUGpgEyCwUAOWn3pg908vA+Vxmm7if4qo62Flev37t9g5ErHPnA7Z9hY/0lbXjnN3y/kZMoAMhJjuPo49+/psb6Sz3OuHzujMGJ/qil6Zo6evjG1N7arONciu62y+d7/mcY7mgzek8JkGkoAMhZsVhUq19/UeGOtjt+reM4OrJ/pwdT/aNDe3f06HV7t21g05k7cOJgreI9eANPJOJau+oXLLGMnEYBQE5rb2nS2lW/UCIRv6PXHd2/29Nn7A/s2qzW5ut39JrG+ks9Lg75KtIZ1q5P1t7x6zavfVNXLpz1YCIgc1AAkPOuXDirdW++2u0z58vnTmvLB295OlO0K6K1q17q9ha+Ha3NWrvqJc7+e2D/zk06dmB3t79++0fv6fBe767+AJnCN2/OnOfTPQTgteZrV3X5whkNGDxchUXFN/wax3F0ZO9OffTOr1PyuW+4o01njh9UnwGDVFJWcdOvu3jmhN57/UUuR7vw2YnDSiSTGjh42E03e4p0duiT99/QwdptKZ4O2SCRSCgcDqd7DKOsP/vpT7m9FXnD5w9o5NjJGjpmgnpV9VNBQVDt7a26cv6sjuzfqaaG+pTPZFmWakaM1YhxU1TVv1qFRcXqinTq6qXzOn6oVhfPnEj5TLkqVFqu8dPmaOCQkSqr6KVYLK725ms6e+KwThzep67O3PoFD3Oi0agaGxvTPYZRFAAAAG4jFwsA9wAAAJCHKAAAAOQhCgAAAHmIAgAAQB6iAAAAkIcoAAAA5CEKAAAAeYgCAABAHqIAAACQhygAAADkIQoAAAB5iAIAAEAeogAAAJCHKAAAAOQhCgAAAHmIAgAAQB6iAAAAkIcoAAAA5CEKAAAAeYgCAABAHqIAAACQhygAAADkIQoAAAB5iAIAAEAeogAAAJCHKAAAAOQhCgAAAHmIAgAAQB6iAAAAkIcoAAAA5CEKAAAAeYgCAABAHqIAAACQhygAAADkIQoAAAB5iAIAAEAeogAAAJCHKAAAAOQhCgAAAHmIAgAAQB6iAAAAkIcoAAAA5CEKAAAAecif7gFMKVaBJtiDNMzuo3IVqdAKpHskSVKnE1WLE9Yp56oOJS+qS/GUHTtUVqER4yar/8AahUrL5Q8UpOzYqZRIJtTZ0a6mhis6faxOVy+dT8sc5SrSRHuQauzeKleRApY3f726FFezE9bZZIMOJS+oQ1FPjnM71X19mjTSrwF9fCoptuXjdKJbIl2OmtsdnTof18GTMXV2OekeCXnK+rOf/jSrf/osWVpgj9JS/wQVKjPe9G+m3YloTaJOe5JnPD2O7fNp7j33a9LshfL5cqbjddu5U0e1cfUbam9pSsnxfLK13DdR832j5U/xRbUuxbUhcVibEsfkKDV/lctKbD2+tFDjR2T237dsEI44+mBbRFv3pafEofui0agaGxvTPYZRvnlz5jyf7iF6ypKlJ/2ztcg3Vn750j3ObRVYfk2wqxWUXyecek+O4fcH9ODTf6rRE6fLtvPzlKy8skqjJk7T+dPH1NnR7umxAvLpB/5FmuYbIluWp8e6Eb9sjbL7qa9VpkPJi55XgL6VPv2Lp0Ia1D//iqUXAn5L44YFVF5i68iZ1F0dxJ1LJBIKh8PpHsOorH6HWOYbr2n2kHSPcccW+sZojj3Ck+x7HnhC1UO8yc4mxaFSrXzqOQWLij09zjf9MzXC7uvpMbpjsj1Yy32TPD1GMCA990ixykqy+tdGRpozqUD3zAymewzkmaz9m9zLCuke37h0j9FjK/yTVSyzn8kPrBmu0ZNmGM3MZqXllZo+f6ln+UOtKk3PoAK60DdaVVapZ/n3zCpUVUXW/srIeMvnBilXGcxJJtM9gnFZ+9M22x4uX/aOryIFNMWuMZo5ceZ8o3m5YMLUObJ93nw8NNc30pPcnvLJ1mx7mCfZliXNncRn/l4KBCzNGs/3OFMlnay+Xe6GsvYddJTVL90juDbK199o3uBho4zm5YKCwiL1HWi2aH1uZAb+DI6yzf5MfW5gH59KQ1n76yJrjB5KAchUSa4AZI5y29vPdlOhl8z9OwQCBQoWhYzl5ZLS8l7GMwPyqcTKvM9sKwz+TH0ptzRrf1VklYrS1N9Iiu5JJBLpHsG4rP1bnQsXY5IG/y1y8fKUKV58duf84T+ZJunR+0fm/ZvmJif3TjJzRjyee09pZG0BaHY60j2Ca9cN/jsk4jGFO9qM5eWStubrxjPjSqpNXcZz3WpKevPYY1ML70ypcL2V73Omisdi6R7BuKwtAMeSV9I9gmvHDf87nD911GheLugMt6vhygVPsk8kL3uS68Zxx5u/F1euJdTSxpuT146dzb2zzFyQTCYV5yOAzLE7cUpRZe8fSLsT0YHkOaOZ+3duksNHAV9S9+lWz27e2ZI4kVEfA8SdhHYlT3uS7TjSZlar81Rnl6Pdh/keZ6Kursy72mdC1haAVkX0QaIu3WP0iCNHv0/sNb4vQGP9JR38dKvRzGzW1FCv/ds3epZ/2WnWtuRJz/Lv1LrkITU73q1UtmVvVBevZm/pznTvbYoo3Jk5hRJ/RAHIQFsTx7U1cTzdY9wRR47WJuq0P+nNhjVb17+r00cPeJKdTVqbrun9115QLObtGdX78X2q8+jP8k5sT57U5sQxT48Rjzt66e0ONTTxUYBp63dEtLOOs/9M5DiOIpFIusfwRFbvBSD942ee1512DbJ7Z/xmQNecdr2e2O3pZkCO4+jUkQOKRSPqO2Cw/IHM/p6Y5jiOjh34VGt/94rC7a3eH0/SweRFRZyYBluVClip3ZOi1enUu4lafZxIzf0fkahUeySmUJGlgX18snhqzZWm1qRWrevU1v28+Weqrmg05/YA+FzW7wb4Ob/l02j10zBfX5WqUHaGXNxIKKFWp1Mnk/U67TQoodSdPRUEC1UzcpwGVA9RUahEyuHNgbrCYV2/Vq/Pjh1Ua4p2AfyqQgU0xu6vGrtKJQrK8uhnMKmk2pxOnXEadSJ5RbE03QtTUWprwgi/+lf5VFxIE+iuRMJRa7ujkxcSOvFZTAkuqGS0pqYmdXZ2pnsMT+RMAQAAwKR4IqGr9d7s3JoJcveUEAAAF9rbcnttFQoAAABfkUgkcvbS/+coAAAAfEVLa2vOr6tCAQAA4Au6IhFFcvzsX6IAAADwT5LJpJpbWtI9RkpQAAAA+IPmlpac3Pr3RigAAABIam9vz4tL/5+jAAAA8l6ks1Otrd6vHppJKAAAgLzW1dWlpubmdI+Rcv50DwAAQLpEIhE1NzXl/CN/N0IBAADkpXA4rJaWlrx885coAACAPOM4jtpaW9Xe0ZHuUdKKAgAAyBvxRELNTU2KRtmCmQIAAMh5juOovb1d7W1tys8L/l9HAQAA5CzHcf7xEb/2diXi8XSPk1EoAACAnOM4jsLhsDra2xXPk5X97hQFAACQExzHUTQaVbizU5HOzry9u7+7KAAAgKwUj8cVj8UUj8cViUYV6+ri8/074G9oaEj3DAAA3JZlWUokk3KSSTmOwxm+S/5YLJbuGQAAQIrxEUCGCASLVNlvsIpKymXZvnSPI0mKdnaoremqWq/Xp+X4xaFS9R1QrVBpuSzLSssMXohGu9R8rUENVy6m/Qymv79CfQLlKrILPDtG0nHUmgjrUuy62pMRz47THSUhn6r7FqisxC/bzp2fKa9FY0k1tyZ07nJEiUT6fmYLrYAGF/RRma9IPsu7rWw6kl1qiLXoarzFs2NkAgpAmlX2G6wZS5/Q4NFT5fMH0j3ODbVcu6K6re/r2KcfK5n0/m7aoSPHaskDj2voqHGy7dzdr6q1+bp2bV6vbR+tVjTalbLj+i2flpRO1n1lU9XHX56y4yacpA5HzunN5p061XU5ZceVpFFDivTYfX00YUSxfD7e+HuqPZzQ5j0tent9o9o6Undn/cBApR6ruEtTi4crYKXuBOly7LpWt9Rqc/shJXPw7gLr248/nnv/Vlliwtzlmrvye7Iz5Iz/dq6cPar1v/kbdXZ4s2WmZVm69+FvadHyhzzJz1QNVy7p1Z/9d127esXzY1X4QvpXfb+h4cH+nh/rZhw5eqtph95p2SXH41+qliU9em8fPXpvlXLoIlLaNbfF9bcvX9Dxs52eH+ue0kl6tvdi+dK4ee2RzvP6X42r1Z7w/t83lXyTxo9/Pt1D5KPR0+/Wwof/RJaHl7FMK6mo0sARk3Ry3xZPrgQsf+TbeffmL0mhklJNmDZHdXu2qyvi3S+YQrtA/37A4xpS0NezY3SHJUvjigYr6SR1rOuip8d69N4qPX5fH978DSsM2po7pUx7j3Sopd27xXUWhMbqR1XLZSu9f4B9AuWaUFSjre1HlFAyrbOYlD3vPjmktKJKCx76YbrH6JGqgUM1Y+njxnOHjBijhfd+w3hutigr76UHn/q+p8d4qtcCDQpUeXqMO/For7s0NOhdGRk+uFCPLe/jWX6+Kwza+mdPD5BXn9JV+kv1/apl3oT3wNCCvvpGxex0j2EUBSANptz9SMZ+3t8dE+bep2BxqdHMxQ88llM3+vXE+CmzNGDQEE+ye/lCuqd0oifZPWXJ0iPlczzL/+Yyzvy9VjOgULMmlXmSvbJsugqszLpNbUXZdBVZ3t0wm2oUgFSzLA0bNzPdU7ji8wdUM2aasbziUImGjxpvLC+bjZ/qzRnGtOIRaf0M9WYmFQ1VoWW+DBcGbU0eEzKei6+bPcnsycDnZoZGeZLrRtDya0rx0HSPYUzm/UbIccWhchWWpO7Oa69U9htsLKuqf7VsX3bcCOm1ftXmvq9fNCjQ25NctwKWT30DFcZzB/QJKuDn9D8VBvcPGs8M2UFV+kqM55pQXZA5H6O5RQFIsUBhUbpHMKKg0NzZVWFRsbGsbFdU6M33wsvn/N0K+QqNZxYV8qstVYqLzJf3Itt8qTAlZGXubHeKvyUpFuloS/cIRnR2mFsgo6Pdm8cKs1G7R9+LtmTmPr7Umggbz0zlM+r5rtWDpwDaPPiZMKUlmbmz3SkKQIp1dbar5Zr3z3t77eq5E+ayLp5P6UI4mez8GXPf1y863ZWZP3PhZJeuRJuM516qj6ijM3ce18pkJ8+ZX92xy4nrYvSa8VwTTkVSu4iVlygAaXDqwLZ0j+BKZ0erLp0+aCwvFovqyL7dxvKyVSIe16G9uzzJ3h8+q3Ay80rWrvAJT56rTiSlXQe4spQK2/Z6s1zuto5jnuS60Zzo0FGP165IJQpAGtRtfd/oJfRU2/PRKsVjUaOZH73/huLx/N6Yascn69TS5M1ZT6cT1bst3pSLnoo4Mb3dvNOz/Lc+bFRXlIVOvbT3cLuOnvbmkviHrXt1PdHuSXZPvdG8TXEndz5eogCkQTQS1vrf/K0SWfiGd+rAVh3d/ZHx3OsN9Xrrl3+X9s1x0uXcqWP68J3fenqMNS21qg2f8vQY3ZWUo79rWKvrce/uiWlsjul//+ai8vRHynNXr0X1s9cueZYfcWL6X1ffV9TxbqXBO7G5/bA2tR1K9xhGsRRwmrQ3N+rSmcMaPHqKAsEseDLAcXRw+1ptffdFOY43n63WXzqv+kvnNWr8FPkD2btQ0p06WLtDv3nhfypm+KrKjXwaPqVSX5GGBvvKStPyqu3JiP6/htXaGz7t+bEuXY3qzMWIpo4tVUGAxwJNOXamU3/1D+fV2u7t2XBTol0HI+c0qXioitP0JIsjR6tb9ujV6xtzbjsgNgNKM38gqAl33acRk+apsn9Nxq2G19XZrnPH9urgtjVqvHQmJccsDpVq/rIHNHHaHPXum75Na7wUjXbp5JED2vnJhzp1tC7lxx8R7K/lZdM0pWioilP0yNWl2HXt7jihta216kjx/QglxT7dv6hScyaXamDf3HmMK5XiCUdHToW1cWezdhxoTemVlaAd0NKSyZobGqMhwT4pKa9tyYj2hU/rg9a9Ohdt8Px46UAByCC27VNRaUXGLIrTFW5XNJLeR178/oBKyipk5dDe7V2dnQpn0OOgxXZQIdv8s/ifc5RUSyKsWIZ8dhrwWyov8ctmW+Bui0aTammPZ8THKT7ZKveHPF3Zsj3RqU7H+yty6ZZZCy3nuWQyoY6WzHz0JV3i8Ziar+dm+84U4WRXRj4h4JVY3FFjc/bdf4N/lFDS03tH8gk3AQIAkIfsTPvMGQAAeMuyLMe2LYvlsgAAyCOWZSVt2XZm3JkDAABSwrKshO2zLO6mAAAgj/h8vjbb9vm8W8oJAABkHNu2L9iyrOPpHgQAAKSOZdvHbL/PtzbdgwAAgNSxLWutHZN+aVlWBqzvBAAAvGZZltMSDv/K/sUvfhEJBAKN6R4IAAB4L+D3169atSpqS5LP51uX7oEAAID3AoHAB9IflgIu9Pv/HSsCAgCQ+4KBwH+W9Mc9FZ99+unz0Wh0UPpGAgAAXgoGg+d/8atf1Uhf2AyowO//b+kbCQAAeM3v9//V5//9S9f9v/ftb7fEYrGy1I8EAAC8VFBQ0Pzyr3/d6/P//aXtgAsCgb/6+ksAAEC2C/p8f/nF//21O/+effrpK9FotF/qRgIAAF4qCAavvPyrXw344j+zv/ZFtv0oTwQAAJAbLMtSod//1Ff/+dcKwD+8+uq2wmBwTWrGAgAAXiosLHzv715+edNX//nXCoAk1Ywc+VCgoIDVAQEAyGIFBQUNbZHIIzf6/25YAJ5//vl4gc+3yGfbCW9HAwAAXvDZdqIgFFqwatWqG76X37AASNILv/zlkcLi4ifZKAgAgOxiWZYTCoWe+Yd/+IfjNwIL0U4AAAKhSURBVPsa360CavftOzJn1qymWCx2v/nxAACAaZakklDoz/7+F7944VZfd8sCIEm1+/fvnDtjRjyeSCwxNh0AADDOsiynsLj4P77wyiv//XZfe9sCIEm1Bw5snj1z5tlkIvGQ4zg8IwgAQIaxLcspLi7+8c9feeVvu/P1d/Rm/pPnnlvWHg6/G4/Hi3o2HgAAMC3g94cLi4sf/PsXX/y4u6+547P5Z555pqzAsjZFIpEpd/paAABgVmEweNouLJz185///PqdvK7Hl/P/9Nln/3UkEvnLWCIR7GkGAADoGZ/PFyssKPiLF375y//ak9e7+jz/mWeeKQva9u8ikchS7g0AAMB7lmU5hUVFH8rvf/zFF19s63GOiWH+5Y9+NCjc1fViV1fX0kQyedO1BQAAQM/YPl8yGAyuLygufu5nP/vZRbd5Rs/an3nmmbJC2/6/44nE92Ox2CDHYQ0hAAB6yrIsBQKB+kAg8I4djf6Hv//Nb4wt0+/ZZfsf//jH1bGOjh8nHeeBRDw+Jp5IFFMIAAC4Ocuy5PP5wn6//6jf53vPV1T09ybO9m94LC9Cb8L+k+98Z65lWQsStt1fjlOVdJwy23EKUjgDAAAZIWlZUduyWmVZjZIu2YnEtn949dUdkpLpng0AAAAAAAAAAAAAAAAAAAAAAAAAAAAAAAAAAAAAAAAAAAAAAAAAAAAAAAAAAAAAAAAAAAAAAAAAAAAAAAAAAAAAAAAAAAAAAAAAAAAAAAAAAAAAAAAAAAAAAAAAAAAAAAAAAAAAAAAAAAAAAAAAAAAAAAAAAAAAAAAAAAAAAAAAAAAAAAAAAAAAAAAAAAAAAAAAAAAAAAAAAAAAAAAAAAAAAAAAAAAAAAAAAAAAAAAAAAAAAAAAAAAAzPn/AcaVm6mTi1BSAAAAAElFTkSuQmCC;" vertex="1" parent="1">
          <mxGeometry x="190" y="360.75" width="89.25" height="89.25" as="geometry" />
        </mxCell>
        <mxCell id="d-vzbSvFQILC7-2r6cho-3" value="" style="shape=image;verticalLabelPosition=bottom;labelBackgroundColor=default;verticalAlign=top;aspect=fixed;imageAspect=0;image=data:image/png,iVBORw0KGgoAAAANSUhEUgAAAgAAAAIACAYAAAD0eNT6AAAAAXNSR0IArs4c6QAAIABJREFUeJzt3el3XPd95/lP7VXY940AARAAF4D7IpKirN3WYst2Ysf2xHG6+6STTM7MnJzOg0lO/wc9fWaS0z3tpJ30JO1OnMTt2Iola7F2SpQoiYu4gRtAEACx70sBtdc8oKloF1n3Vt17675f5+gktnl/9yugWPdzf6tH+JCpqWs7PR7vt7LZ7L2SZ4OkFklhq+sCYGvzkueEx5M9IeknDQ0dp60uCPg8HqsLsIvJyaFDkuc/ezzab3UtABwtncmk/nx1dfHPenr2D1pdDPBpXB8Astmsf3p65P+Vsr8nfh4ATJBOpxVdWUz4g5H7Ojt7j1tdD/BJvFYXYKVs9kRgenr4x1L298XDH4CJMpl0MJVYPzo01H/I6lqAT+LqADA1Vfu3kn7N6joAFKdMJh0gBMCuXBsAJieHvuPxeL5ldR0AihshAHblygAwPj5e5/F4/pPVdQBwB0IA7MiVAcDvT/yhpHqr6wDgHoQA2I3rAkA2eyKQzerfWl0HAPchBMBOXBcAZmbqf01Sk9V1AHAnQgDswnUBIJvNfs3qGgC4GyEAduC6ACCJv3AALEcIgNVcFQAmJwcaJG2yug4AkAgBsJarAoDX699ndQ0A8EGEAFjFVQFAyjZYXQEAfBQhAFZwVQDIZLxVVtcAAJ+EEIBCc1UA8HhUaXUNAPBpCAEoJFcFAClLAABga4QAFIqrAoDHk/VZXQMAfB5CAArBVQEAAJyCEIB8IwAAgE0RApBPBAAAsDFCAPKFAAAANkcIQD4QAADAAQgBMBsBAAAcghAAMxEAAMBBCAEwCwEAAByGEAAzEAAAwIEIATCKAAAADkUIgBEEAABwsFshYHTowkGra4GzEAAAwOEymXQgloi9TgjAnSAAAEARIATgThEAAKBIEAJwJwgAAFBECAG4XQQAACgyhADcDgIAABQhQgA+DwEAAIoUIQCfhQAAAEWMEIBPQwAAgCJHCMAnIQAAgAsQAvBRBAAAcAlCAD6IAAAALkIIwC0EAABwGUIAJAIAALgSIQAEAABwKUKAuxEAAMDFCAHuRQAAAJcjBLgTAQAAQAhwIQIAAEASIcBtCAAAgPcRAtyDAAAA+BBCgDsQAAAAH0MIKH4EAADAJyIEFDcCAADgUxECihcBAADwmQgBxYkAAAD4XISA4kMAAADclvdDwLULd1ldC4wjAAAAblsmkw7EkrE3CAHORwAAANwRQkBxIAAAAO4YIcD5CAAAgJwQApyNAAAAyBkhwLkIAAAAQwgBzkQAAAAYRghwHgIAAMAUhABnIQAAAExDCHAOAgAAwFSEAGcgAAAATEcIsD8CAAAgLwgB9kYAAADkDSHAvggAAIC8IgTYEwEAAJB3hAD7IQAAAAqCEGAvBAAAQMEQAuyDAAAAKChCgD0QAAAABUcIsB4BAABgCUKAtQgAAADLEAKsQwAAAFiKEGANAgAAwHKEgMIjAAAAbIEQUFgEAACAbRACCocAAACwFUJAYRAAAAC2QwjIPwIAAMCWboWAkcHzB6yupRgRAAAAtpXJpAPxVPwYIcB8BAAAgK0RAvKDAAAAsD1CgPkIAAAARyAEmIsAAABwDEKAeQgAAABHIQSYgwAAAHAcQoBxBAAAgCMRAowhAAAAHIsQkDsCAADA0QgBuSEAAAAcjxBw5wgAAICiQAi4MwQAAEDRIATcPgIAAKCoEAJuDwEAAFB0CAGfjwAAAChKhIDPRgAAABQtQsCnIwAAAIoaIeCTEQAAAEWPEPBxBAAAgCsQAj6MAAAAcA1CwL8gAAAAXIUQcBMBAADgOoQAAgAAwKVuhYDh4bP7rK7FCn6rCwDyLb6eVGw1qWQircraiAJhPvZuE19LamV+XcGwX+GyoIJ5/gx4PB75A8G83gOmCWTSenp8/ERXS8v+NauLKSS+CVE0MumsZkaXND6woKWZqGKrScWiCWUy2Q/9udLKkKoby9S1t0m1LeUWVYt8mxhc0PXz01qcjmp9JfGh/83n9ypcGlC4LKia5jK1dNWopqVcHo859/Z6vSorrzKnMRRCk5T9bUl/YXUhhWTSx90ZpqeH/iyb9fyh1XXAPMlEWpODCxofXNDU9UWlEunbvtbjkbr3Nav37jb5/IyGFYtkPKUzrwxrpH/mjq4LRQJq2lSllu4aNXZUyuvjM+EyZxobO3ZbXUQhEQDgSJl0RoPvTeny22NKxFKG2qqojei+b/cxNFAEoosxHf2f/R97479TJRUh9R5p08ZtdSZVBieYnY2G+vr6jH14HISIC8cZvTirX/71GZ17bdjww1+SlufWdebV6yZUBitls9KJ5wcNP/wlaW05rhPPDuil/3FO08NLJlQHJ2hqqmywuoZC4pUHjrEyv653nxnQ4nTU9LZH+me1YXOtmjdVm942CmPg1ITmxlZMbXNpJqo3/umiGjuqtP/RLoVKAqa2D3vJZFINkm5YXUeh0AMAR5gcWtSrPzqfl4f/LedeHc5b28ivVDKt/mOjeWt/6vqiXv67c3n9/MF62awara6hkAgAsL0rJ8b11pOXlLyDCX65WF2MKb6WzOs9kB+L02tKpzJ5vcf6SkKv/cMFjV2Zy+t9YKWsq4YACACwrWwmqxPPDej80RFls5//582wOMUbnhMtTq4W5D7pVEZvP31VF99yTS+xq2SzXnoAADs488p1jfTPFvSeC3TxOlKhf28X37qhwdOTBb0nCiFbb3UFhUQAgC0NnZ3StTNTBb9vIOgr+D1hnBW/t7OvDmt6hBUCxcTjybpqlicBALYzM7qsMy9bsyyvqrHUkvvCGCt+b9lsVm8/fVWri7GC3xswAwEAtrK2HNfbT1352Pa9heDxeFTVQABwourGMkvum4yl9NaTl+9oB0rALggAsJWzr5qzuU8u6lrL2RLYoSpqIyopD1ly75X5dV1+Z8ySewNG8G0H25gbX9H4wLwl9/b5vdrz8CZL7g3jPF6P9j5i3e9v4NSkKTsQAoVEAIBtnD86Ytm9e4+0qaw6bNn9YVzDxkpt2m3NKq50KqP+N/O3ERGQDwQA2ML4wLzmxs3dxvV2bdrVqO69zZbcG+ba/oV2beipseTeI/0zWp511XHycDgCAGyh/83Cb6wSKQ/qnm9u0+6HOk07Bx7W8ge8OvjEZh14vFvBAp/umM2KDYLgKBwGBMutzK8X5M3J5/eqoq5E1Y2lqm4qU0tPDev+i1Tb1jrVt1VqYnBeC1NRLUxGtTy3pmyeV5dMDi0qlczIH+DdCvZHAIDlxgcW8tJuuDSg5q6aXz3wS1VRWyKPl1d9twiXBtS5s1Gdv/rP6VRGy7NrvwoEqxq/Om/6+RLpVEZT1xctG4YA7gQBAJabGDR/5n/b1jrterCj4N3AsC+f36vqpjJVN5VJuxrVe3ebTj4/aPpufuMD8wQAOALfjrBULJrU/IR5B7n4A17te7SbL2B8rltzQK6dmdKZl4dMO3Bq8tqiMpmsvPQ2weYYqIKlJofM7f63chY4nMnsVSDJeEpzY9asaAHuBAEAloouxk1ry8p14HA2s/eBiHI+AByAAABLxVbN2T3N6p3g4Gxm7wS5HmVXQNgfAQCWMuuL0sq94FEczDwLIh5NmtIOkE8EAFjKrB4Aq06DQ/Ew8zTIGAEADkAAgKXWTfqitOI8eBQfsz5HMYYA4AAEAFgqadLRv6WVdP/DOLM+R8m4uRsMAflAAAAAs+V3x2HAFAQAAABciAAAAIALEQAAAHAhAgAAAC5EAAAAwIUIAAAAuBABAAAAFyIAAADgQgQAAABciAAAAIALEQAAAHAhAgAAAC5EAAAAwIUIAAAAuBABAAAAFyIAAADgQn6rCwCQH9lsVguTUa0urGs9mlAyllYo4le4LKiK2hJV1pdYXSIACxEAgCKzNLOmgVMTmry2oPh66lP/XKQsqJbuGvXsa1ZJZaiAFQKwAwIAUCRi0YQuvDGikf45ZbPZz/3z66sJDb43qaFzU+ra3aRth9vkDzIqCLgFAQAoAvMTqzr+88uKRZN3fG0mndXVkxOaHFrU4a9vUVlVOA8VArAb4j7gcOMD83rtHy/k9PD/oJX5db36o/NamFo1qTIAdkYAABxscXpN7z4zoGzm87v8b0ciltJbT17R+mrClPYA2BcBAHCoVDKt4z+/rHQqY2q7sWhCx39++bbmEQBwLgIA4FBXT0xobTmel7YXJqMavTSXl7YB2AMBAHCg+FpSV05M5PUe/W+OKpOmFwAoVgQAwIFuXJ5TOpnO6z3WluKaGV3O6z0AWIcAADjQxOBCQe4zPsAwAFCsCACAw2TSWc2OFebNfOr6UkHuA6DwCACAw8TXkwUbm4+tJiSmAQBFiQAAOEysgGv0M5ms4uvGNhgCYE8EAMBh0qnCvpKzEgAoTgQAwGHCZYHC3cwjhUsLeD8ABUMAABwmUhYs2L1CYb88Xk/B7gegcAgAgMP4/F5V1pcU5F61G8oLch8AhUcAQHHwuOsttXlTdUHu09JdU5D72IXHpM9RlqUTcAACACyTWE+Z1lYo4jetLSfYsLlWynPm8QV8aipQ0LCLoEmfIzM/20C+EABgGTOPnI2UF25c3A4q60vUurk2r/fo2dukYNhdwaqkPGRKO4lYSpm0uac0AmYjAMAysag5AcDr8yoUcd9M9b572uT15acbIBTxq+dAS17atjMzg2Qsyv4JsDcCACwTXTTnKNtIIZfF2UhpZVh7Ht5kerter0d3faVHgaDP9LbtLlIWNG06yepizJyGgDwhAMAyE9fMOdAmYlK3rRO199Wre2+zqW3uerBT9W2VprbpFB6vR+FSc3oBJq8tmtIOkC8EAFgilUhrZtScg2YKuS7ejnbe366+I22GJwV6fV4deLxbnTsbzCnMocwaBpgYnDelHSBfCACwxOTQomlbzLptAuAn2XJwgw5/bUvOP4vK+hLd950+tW2tM7ky5zGrRym6FNfSTNSUtoB8cNcUX9jGlXfHTWurpMK9QwAf1LypWo3tVRo8PaGrJydva5JlaVVYW+7aoPa+OtPWwDtdqYmfp8vvjOuuL/eY1h5gJgIACm700qwWp817M2rqrDKtLafz+jzq2d+inn0tmptY0eS1Ba0uxhVfSyoRSykY9itUElBlXUTNXTUF21HQSRo7q3TlhDkB9cblOW0+0KKqhlJT2gPMRABAQWXSWfUfGzWtvZrmcnoAPolHqm0pV20LW/neqbrWCoXLgqYdu3z+6Iju+eY2U9oCzMQcABTUmVeuK7pkzvI/SWrblt/NcOA+Ho9M3WRpemRJA6cmTGsPMAsBAAUzeHpSQ2enTGvP4/HkfTc8uFPrFnM/V+deG9HUEMsCYS8EABTExOCCzr46bGqb9RsrFCpx5yZAyK+a5jKVVpo3tJTNZvXOL66aOvcFMIoAgLwbPD2p4z+/omzW3BPSWLKGfDK7FyCZSOvoP17Q+FX2B4A9EACQN5l0VqdfHNKZV66b/vD3+ryuO6oWhdW6xfyAmUpmdPypK7r09pjpbQN3ilUAyIvRS7PqPzZq6oS/D9q0q1GBkPv2qkfhVNaXqLGzKi9j9/3HRjV2ZV477t2ohnZ3brsM6xEAYJpUIq3JoUVdeXc8r2Od4bKgeu9uzVv7wC27H+zUi//9jNIp84/2XZqJ6o1/uqiG9kp1721Ww8YKeX10yqJwCADISWI9pfXVhGLRhKKLcU1cW9DM6JJp2/t+lp33tcvvwpPqUHillSFtObjB1L0rPmp6eEnTw0vyB3xq7KhUY0eVSipCCpcFFSkNKBDmaxr5wScLnyuTyWr86rwWJle1MBXV4nRUqUTakloaNlaaPjkL+Cyb97dopH9Gqwv5Pd43lUxr7Oq8xj4ySTAY9quqsVTVjWWqaS5Tc1d1XuuAexAA8JmWZtZ04rkBLc2sWV2KvD6Pdj3UYXUZcBmvz6PdD3XqjZ9ctOT+iVjq/V4CSapvq9C+R7rYAROGMeCET3XlxLhe+dE5Wzz8Jalnf4vKqyNWlwEXathYaZtlpzOjy3rxh2c1cnHW6lLgcAQAfKKJaws6f3SkIGP6t6O8JqKtBzdYXQZcbMd97bbZeCqVSOvU84McNwxDCAD4mEQspdMvXLO6jPdFyoO65xvb5PPzcYV1wqUB3fONrbZZfprJZHXiuUFlMvYI6XAevlHxMeePjigWTVpdhiQpFAnonm9uU6Q8aHUpgCrrS3X3r221TRhdmlnTwEkOGkJu7PEphq1MDi1YXYIkKRDy6cg3tjLuD1upbSnXoa9ultfrsboUSdLUdQ4ZQm4IAPiQ2GrCFm//Pr9Xh7++VVUNpVaXAnxMY0eV9j/eLY8NMgAHDCFXBAB8yMKU9V8mXq9HB5/YrLoN5VaXAnyq1s212vPwJqvLUDKezvseBShOBAB8SNKiDX4+KFgSUGV9idVlAJ+rprlM/oD1kwLt8PcWzkMAwIdUN1rf5R5bTeiNn1xUYj1ldSnAp4ouxvTGP11UKmntw9fr9aiyjnkyuHMEAHxIWXXEFm80K/PreuOnF3mzgS2tryb0+k8u2mK+TEVdCYcIISd8avAhHs/Nbk07WJyK6q0nL+flJDYgV4n1lN74yUWtLefnqOs7VdvCXBnkhgCAj9lx30bbLHGavbGst5+6wmYnsIVkIq03fnpRK/PrVpci6eZBQVvYIRM5IgDgYyrrS7X1UKvVZbxvcmhRJ54dsLoMuFwmndVbT17Wog1Wytyy68EOhUvtsT0xnIcAgE+05a4WNWystLqM9924PKfRSxx+AutcPTGu2RvLVpfxvva+etscUARnIgDgE3m8Ht3zzW3aeX+7bbY9PffaMJMCYYm15bguvT1mdRmSpEDYrwOPdWvfI11WlwKH81tdAOyte2+zGjurdOXtcS1MrWplfl1Zi4bjY9GkLr45qp33d1hTAFzrvZeHLJ2M6vV6VFFXoprmMm09uEHhMs7GgHEEAHyu8uqI9j16820jlcxoaSaq6FL8V9sGJ7S6GNfMyFJBviAHT0+pva+BjYJQMOMD85q8Vpj99gMhv+o3Vqi0IqRwWVDh0oDKqsKqrGepH8xHAMAd8Qe8qm0p/9jSo3Qqo+nhJY1fndfo5Tll0vkJA9lsVqdfHNL9/0tfXtoHPiiVzOjMK9fzeo9AyK+NvXVq7qpWXWuFbVbgoPgRAGAKn9+r5q5qNXdVa9uRVvUfu6HRizN5GS6Yn1jR9fPT6tjeYH7jwAdceuuG1lcSeWnb6/Oqa3ejthzcoGCYr2IUHp86mK6kPKT9j3apZ1+z3n12QMuza6bf48Ibo2rvrZeHtyXkSSya1NVTE3lpu76tQvse6VJJRSgv7QO3g0El5E1lfYnu/06fmjZVmd52fC2p6ZEl09sFbhm7MqdsHjag6tzZqCPf2MbDH5YjACCv/EGfDn9tq7r2NJne9o1Lc6a3CdwymofP164HOrTn4U7G+WELBADkncdz84uvdXOtqe2OD8xzTgDyYm05rvmJFVPb3HpwQ16CMJArAgAKZt+jXaYeN5xMpDU5VJjlWXCXG5fNffvfsLlGvUfaTG0TMIoAgILx+b069LUtph43fIPtgZEHZnb/l1aFtf/RbtPaA8xCAEBBRcqC6tnfbFp7k0OLbA/8GbLZrJbn1jXcP6P+N0c1emlWqwsxq8uytZWFdS3NmHfgT9+RNttspw18EMsAUXA9+5t17cyU4mtJw22lUxlNXlvgUJSPSCXSOnd0RCP9M584TyIQ8qlrT5O2HmyV18eEtA8avzJvWltVjaVq3WLu3BfALMRSFJw/4NPmAy2mtbc6zxvtB02PLOnFH57V0NmpT50kmYynden4mF750TktTtvneFs7WFlYN62t3sOM+8O+CACwxIbNNaa1tb6an53anGhicEFv/OSi1pbjt/Xnl2bW9OqPzhMCPsCsnf8CIZ8aOuxzpDbwUQQAWKKkPKSqBnNWBKyv3N7DrtglYimdeuHaHV+XyWR18vlBZdIWHfNoM2smBYCmzmrW+8PWCACwTHN3tSnt0ANw03svDuU8r2JpZk2X3r5hckXOZFYPgFmfbyBfCACwTFW9WT0ABIBYNKkbV4wtXRs8PWlSNc4VX0uadpIlR1bD7ggAsEy4NGBKO8lE2vVLARemVg23kYynXb9E0MwwGSkNmtYWkA8EAFgmXGbeF6TbewEWJ82ZxGdGkHCyNZPmk/gDPvmD5m14BeQDAQCWCZeY0wMgSbGouwPAkklHLufj6GYnia0a35tCkkIm9W4B+UQAgGU8Js6QzsexrU5i1qFIbj9cKZMx59/f62H2P+yPAAAAgAsRAAAAcCECAAAALkQAAADAhQgAAAC4EAEAAAAXIgAAAOBCBAAAAFyIAAAAgAsRAAAAcCECAAAALkQAAADAhQgAAAC4EAEAAAAXIgAAAOBCBAAAAFyIAAAAgAsRAAAAcCECAAAALkQAAADAhQgAAAC4EAEAAAAXIgAAAOBCBAAAAFyIAAAAgAsRAAAAcCECAFAEwqUBk9oJmtIOAPsjAABFoLqpzJx2Gs1pB4D9EQCAIlDdWGpKO1WNJaa0A8D+CABAEaioK1Eg5DfURmV9qeE2ADgHAQAoAj6/V7se6Mj5eo9H2v1Q7tcDcB4CAFAkNvbWqaW7Jqdru/c2q7al3OSKANgZAQAoInse7lRVw53NB2jYWKneI215qgiAXREAgCISKgno/t/crm2HWuXxej7zz/r8Xu1+sFP3fHObfH6+CgC3YcYPUGS8Xo+23d2q5u5qjfTPaGEqqqXpqFLJjAIhv6oaS1TdWKaOHQ0qqwpbXS4AixAAYCmf36t0KmO4nUQsZUI1xaWqofT94YBsVopHEwqXsdHPZzHrc+SlRwUOwKcUljLrgbQwFTWlnWLl8Zj3sy5mZn2OwmXm7MwI5BMBAJaKmLSF7eLkqintwN0WzQoAJQQA2B8BAJYy6610cXrNlKEEuNfqYkzxtaQpbdHbAicgAMBSZn1RppJp9R8bNaUtuNO5V4dNa8usw5mAfCIAwFIl5ea9KQ2cmtDc2Ipp7cE9RvpnNXFtwbT2IvQAwAEIALBUw8ZK09rKZqUTzw9qfSVhWpsofstz6zrz6nXT2vN6PapvqzCtPSBfCACwVEVdiUorQ6a1F12M6cUfntVI/4xpbaI4ZbPS1RMTeuXvzilp4jLSutYKDlWCI/ApheWau2s0cHLCtPaS8ZROPDeosavz6tjeoKqGUkVMHGqAs0WX4lqYWtXgqUnNjZs/ZNTSk9t5DEChEQBguZaualMDwC0TgwuaGLw5rhsqCai6qVTVDWWqaipVdWMZE7VcYG05roWpqBanVrUwGdXCdNTUt/1P0txVndf2AbMQAGC52g3lCkb8Sqzn74s5vpbU5LVFTV5bfP+/a91cq90PdyoY5q9BsVlbjuvkLwc1M7Jc0PvWNJcxARCOwRwAWM7j8ahnX0vB73vjypxe+Jsz7/cSoDhcPzetF394tuAPf0nafKDwn2MgVwQA2EL33iZLxunja0m99c+XNT2yVPB7w3zXz03r1AvXlEqkC37v2pZytXQz/g/nIADAFnx+r3rvtu5M+lO/tOahAfOsLcd19jXzNvO5U9vv3WjZvYFcEABgGxt761VRV2LJvdeW4zp3dMSSe8McJ385aFmIa+muUW1LuSX3BnJFAIBteDzSzvvb5fFYc/+R/hlls1lrbg5D1pbjloz5S5I/4NP2L/D2D+chAMBWGjZWqu8ea75M06mMVuZjltwbxlh5HPT+x7pUVh227P5ArggAsJ3NB1q0cVudJfdemOJYYSdatOj31nukjYl/cCwCAGxpzxc3qbqprOD3jS7SA+BEq4vxgt+zdUutth7cUPD7AmYhAMCWfH6vDn9tS8G7VstrIgW9H8xRUeDfW11rhfY90lXQewJmIwDAtsKlAT3wm9vV2G7eiYGfp7qx8L0OMK6qqbRg9+rY3qB7vrFNPj9fn3A2PsGwtUDIr7t/fau69zYV4F4+JnM5VCGCm8fj0c77O7T3S5vk9Vm0VAUwEQEAtvfhL978fWS79uQ/ZCA/wqUBtW6uzVv7wbBfRwoURIFC4RQUOEbH9gY1bKxU/7FRjVycNbXtyvoSbT3YamqbKKzdD3dq5say4mtJ09r0+rzq2t2oLQc3cGgUig49AHCUkoqQ9j/WrYe+t0MNJs0N8Ho92vdIF926DhcM+7X3i5tMa69tW52+9G92acd97Tz8UZT4VMORKutLdc83tml6ZEkjF2Y0MbSY0znvlfUl2vdIl6oaCjeJDPnT3FWte765Tad+eU1ry3e+NDBSFlRzV7U6dzaosp7PBIobAQCO1rCxUg0bK5XNZDU7tqKJwXmNDyx87pd/IORT154mbT3Yypt/kWnYWKmHf3unzh0d0Uj/jNKpzGf++Yq6ErV0Vau5q9qSvScAqxAAUBQ8Xo/q2ypU31ahnfd3KBlPKxZNaH01odhqUrFoQslEWhW1EVU3ljHbv8j5gz7tebhTux/q0Mp8TAtTq1qdjykY9itcFlCkLKhwaVDhsqD8AUZC4U4EABSlQMinQCjCxj4u5/F4VFEbUUUtnwPgo4i+AAC4EAEAAAAXIgAAAOBCBAAAAFyIAAAAgAsRAAAAcCECAAAALkQAAADAhQgAAAC4EAEAAAAXIgAAAOBCBAAAAFyIAAAAgAsRAAAAcCECAAAALkQAAADAhQgAAAC4EAEAAAAXIgAAAOBCBAAAAFyIAAAAgAsRAAAAcCECAAAALkQAAADAhQgAAAC4EAEAAAAXIgAAAOBCBAAAAFyIAAAAgAsRAAAAcCECAAAALkQAAADAhQgAAAC4EAEAAAAXIgAAAOBCBAAAAFyIAAAAgAsRAAAAcCECAAAALkQAAADAhQgAAAC4EAEAAAAXIgAAAOBCBAAAAFyIAAAAgAsRAAAAcCECAAAALkQAAADAhQgAAAC4EAEAAAAXIgAAAOBCBAAAAFzHVXBUAAAgAElEQVSIAAAAgAsRAAAAcCECAAAALkQAAADAhQgAAAC4EAEAAAAXIgAAAOBCBAAAAFyIAAAAgAsRAAAAcCG/1QUU0vCF2Q2JWMrqMgAANhQM+zdYXUMhuSoAjF2d754YXLC6DACADTV3VXdbXUMhMQQAAIALEQAAAHAhAgAAAC5EAAAAwIUIAAAAuBABAAAAFyIAAADgQgQAAABciAAAAIALEQAAAHAhAgAAAC5EAAAAwIUIAAAAuBABAAAAFyIAAADgQgQAAABciAAAAIALEQAAAHAhAgAAAC5EAAAAwIUIAAAAuBABAAAAFyIAAADgQgQAAABciAAAAIALEQAAAHAhAgAAAC5EAAAAwIUIAAAAuBABAAAAFyIAAADgQgQAAABcyG91AXCWtp4mVTdW5HTtwtSyRq9OmlxRYXk8HvkCPqWSKSlrdTXO4Q/4lEqmrS4DwAcQAHBHune3a8u+jpyuvXzyuiMCQCgSUHNng1o21au8ukyR0pDCv/onFAnI4/FIWSmZTCkZTymZSCkZT2p9NabluaiW51e1PH/r/64qGU9Z/a+UVz6/V03t9SqvLlFJRUQl5WGVlkf+5f+viMjr8yqZSGlteV3R5ZjWVtZv/rMcU3RlXYszK5oZmydUAQVEAAAkbehu1MYtzdqwqUG1LVU3H/KfxSMFgn4Fgp//V2hhelk3rk7qxsCUxq9NF0UgCIYD2rilWZ3bW7Vxc7MCoc//OQSCflXWlauyrvwT//fo8rqu949p6MKYxq9NK5POmF12QYRKgtr/UF/O1/e/PaiF6WUTKzJm+909qqwty+nakcuTGr0yYXJFMAsBAK7l9XnVs7tdu+7doprGyrzdp7qhQtUNFdpxZLMymaymR+c0cGZEF9+5pnTKOd3ipRURdfRuUEffBm3Y1CCvz9wpRKUVEfUd6lbfoW4lYkkNXxrX9QtjGrk8oWTCOaEpGApox5HNOV9f3VChp//bayZWZMym7W1q2VSf07Xx9SQBwMYIAHCdQMiv7Yd6tP1Ij0orIgW9t9frUVN7nZra67TvwV69d/Sy+o8P2PoBFykN6cAjO7TtwKbP7xkxSTAcUM/udvXsblcintTJl/p17tgVx/YK3InWnia1b2vR8MVxq0tBkSMAwFWaO+v14LcOqry61OpSFCkL6/Dju7Tn/m362fdf1NLsitUlfYjX61Hf4R7tf3i7QpGAZXUEQwEdfnyXeu/apGNPndbI5eJ/ozz8+G6NXpl0ReCBdQgAcAWvz6sDD2/X7vu3Fuwt9natraxrac5eD//WniYdeWKPqhtyW/GRD5V15Xr839yrkcsTOvbUadsFJjNV1Zer71C3zh27YnUpKGIEABS9ytoyPfybd6t+Q7XVpXyiUy/322b2e3l1qY48sUcdvRusLuVTbdzSrNbuRp07dkXvvnC+aJcX7n+4T1dOX1d8LWF1KShSbASEolZeXaqv/t4Dtn34L82uaPDcqNVlSJJqm6v06//bw7Z++N/i9Xm1696teuJ3H1AoErS6nLwIRYI68PB2q8tAESMAoGhFysL6yu/cp9LKEqtL+VQnX+5XNmP9639TR52+9vsPKlIWtrqUO9K4sVZf+18fVEl5YSdzFkrvoW5bDcOguBAAUJRCkYC+8jv3feqacztYmF7W1dPDVpeh9m0t+srv3K9g2LqJfkbUNFbq1/7goZzXqtuZ1+vR4S/vtroMFCkCAIqPR3rke/eotrnK6ko+07svnFc2a+3b/+Y97Xrke/fIH/BZWodR5TWl+vofPGT733kuNm5pVtvmJqvLQBEiAKDobN2/SS2bGqwu4zPNji/o2nlrx/53HNmsB791SF6vvVZF5CpSFtbXfv9BNXfmtmmNnd39lT1F83uCfbAKAEUlFAnq0KM789L28vyq5iYWlUlnlclklM1klUlnlMnc/M9er1fVDRWqba763O70t587Z+nM/47eDTryxJ68tJ2MpzQ1MvuBPf9jWluJKRjyq7SyRKWVEZVWRFTXUmX62H0wHNBj/+oL+vGfPafVxTVT27ZSdUOFeg926/xbV60uBUWEAICictcjOxQuDZnSVjab1fTovK73j2n44rjmp5Zu+9rymlLVNVerfVuLNu9p/9C2uePXpi3dHjVSFtb93zhgapvRpTVd7x/X9f4xjd3mPv4ej0dNHXXq2tmmTdvbVFJuzgTEYDigB791SE/95SuWD7GYaf8Xt+vqe9cVX09aXQqKBAEARaOupVq9B7tMaWtsYEov/893FF3K7S1yZT6qlfmohi7c0IkXzmv3fVvVe7BLXq9Xx589Y0qNuXrgN+4yLSStLq7pzadP69r5G3d8bTab1cTQjCaGZnTs56fV2bdBR76615TtmVs21WvXvVv03muXDLdlF+GSoPY91Kc3n37P6lJQJAgAKBp9h7oN7/KXyWR14oXzOv3qRdPeHleX1vTGz0/p7LErautp0vTovCnt5qLvcLc2bmk23E4mndF7Ry/p1Mv9pmzEk81mde38Dd0YmNLdX96trQc2GW7zri/t0I2rk5odXzTcll1sP9yjC8cHi3oXRBQOkwBRFDxejzr7jG1gs7q4pp//15d16pX+vHQdL8+t6sLxAdPbvV1V9eU6/LjxJWXzU0v6xz99Tu88f870XfgSsaRe/ad39dRfvaro8rqhtrw+rx76zmH5/M5e4fBBXp9Xhx/fZXUZKBIEABSFlk0Nhrq14+sJ/ez7L2pyeNbEquzj1sPQ6HK/+aklPfWDV/L+Bjo2MKWn/+pVxaJxQ+1UN1To0GP5mRRqlY7eDdrQ3Wh1GSgCBAAUha4dbYauP/qzE4bfOO1sz/3bDG+HvDC9rKf+8lWtG3wo38n9nv7/XlMibmzS2467N+d8nr1d3f3l3fKwLBAGEQDgeB6vR53bW3O+/urpYQ2etcd+/PngD/i088hmQ20szizr5z94ReurMZOquj2zYwt69m9eNzbU4JH23N9rXlE2UNtcpW37jc+TgLsRAOB4pRURRXLs/l9dXNPr/3zS5IrsZfPeDoVKcj8wJ5PO6LkfvlHwh/8tE0MzevUn7xhqo62nSVX1xbWn/oEvbVcw5Mztm2EPBAA4npHNZC68PaBErLjXVe8w+PZ/+rVLWpyxdtb5wJkRjQ1O5d6AR9pxpMe8gmwgUhbW3geLq2cDhUUAgOOVVuS+gczE0IyJldhPa0+TodPkludWderlfhMryt2xn59WxsDJiVv2digUKa435h1HNquipvgOQUJhEADgeLn2AKRTac3csG5NfiEYfet9/Z9PKp0yd6lfruanlnTBwFa4/qBfWw+Ys1GUXfj8LAtE7ggAcLxct5CdHp1XOvX5W9Y6VWVdudq3tOR8/eC5UY1emTSxIuNOvHje0CqE7Ye7i272fOf21qJb5YDCIADA8SJluQWAYl72J0k77u6RDDzrzhy13za68fWkzr5xOefry6tL1dFrbMMoO7r7K3sM74IJ9yEAwPHisURO11XVlZtciX34g35t2d+Z8/WLM8uWbln8Wa6eHjZ0kuL2w8U1GVC6eQ7Gln0dVpcBhyEAwPGiS7m9yVfVlxt6Q7azxo21CgRzP+rj8qnrJlZjrtXFNY0bmLzZ3FFneEdEO7rrkZ2GfudwHwIAHC/XE/v8Qb/KKktMrsYemtrrcr42m83q6qlhE6sx39XTuQcUr8+rhrYaE6uxh5LysPY8sM3qMuAgBAA43upibgFAkmqbqkysxD6MBIDxwWmt5hiqCuXa+VFDEzibOopz0tyuL2xReXWp1WXAIQgAcLzVHIcAJGnfQ71FNwzg8XjU2F6b8/V27v6/Jb6e1PCl8ZyvNxKQ8m382nTO1/r8vqI7/Aj5QwCA461HYzm/DTa01aq3yNaG1zRVGtoidnww9wdQIQ1fHMv52qb2OtvOmn/n+XNKJVI5X9+1c6OtAw7sgwAA58saexgcfHSnoaOE7cbIl38sGrd99/8ts+OLOV8bDAdU01RpYjXmiS6v6/RrxpZg3v3EnqLr2YL5CAAoCufezH2HuFBJUA99+1DRzAxvNBAAZsYXTKwkvxaml5VJG5gHYOO35DNHLxkKYg2tNdq8h2WB+GwEABSFiaEZzU3k/kbYtrlJT/zuAwobODXPLpoNPNhmHRQAMumM5ieXcr6+qcO+ASCVTOv4M2cMtXHw0Z1FE2qRHwQAFI3zBnoBpJtr57/+Bw+prMq5SwNLyiMqr8l9FvjsmHMCgCTNGgh9du4BkG6egDg1Mpfz9aUVEe2+j2WB+HQEABSNq+8NK76W266At1TVV+gb//sX1bm91aSqCsvouLbjAoCBHovy6lIFQvbeOOfYU6cN7Xq4+76tKi3SvS5gHAEARSOVTOv1fz5puJ1IWViP/NYRPfK9e1RakdtJg1YJRXIfwkjEk1qaXzWxmvwzGliM/LwKYXp0Tlffy31TJn/Ap0OPsiwQn4wAgKIycGZE545dMaWtzr4N+vYfPaa+w93y+pzxV8XIHIalmRVDb5tWWJheNnS93QOAJL393Fmlkrkfydyzu70odz6Ecc74VgPuwFvPnNHk8KwpbQXDAX3ha/v0m//nl7X97h75/PaeVGXkgRZfNzZ8YoV4LKFsJvfU4oQAsLq0ZuxkRo905Im95hWEokEAQNHJpDN64e/e1PpqzLQ2yypLdM9X9+q7f/wV7bp3q20PXQkZ6AGIx5ImVlIgWSlhoG4nBABJOv3aJUPHVzdurFX3ro0mVoRiQABAUYour+uZvz6q9Wjc1HZLysM6/PguffdPntC+h/oUiuS+414+GJoDsO7AACBjPRd2+/19mlQipbefO2uojUOP7WJZID6EAICiNTO2oCf//CWtzEdNbztcEtSBL27Xd//kCR18ZKciNtlJ0NAQQMx5QwCSsZ4Lp/QASNKV09c1c2M+5+vLqkq06wtbTKwITkcAQFFbml3Rz/78RUObBH2WYCigPQ9s03f/5AkdfnyX5UHAyCRAJ84BkIzVHXRQAFD2V8sCDdhz/zaVlDtrZQvyhwCAore2EtM//8XLGhuYyts9/AGfdt27Vd/946/o0GO7LDtbgCGAO+OUIYBbJodnNXh2NOfr/UG/Dj66w8SK4GQEALhCIp7U0//tNb31zBlD58h/Hn/Qr933bdVv/fFXdPCRnfIXeLKgoUmADu0BMBJcnDQEcMvxZ88oncp9WeCWvZ2q31BtYkVwKgIAXCObzerM0Uv6yX96XjN53vHOH/RrzwPb9O1/96hae5ryeq8PMtQD4MRVADLaA+C8ALCyENXZ1w3sdeGR7v7KHvMKgmMRAOA6C9PL+tl/eUEnXrxg6DS521FeXaqv/M59euA3Dhp6O79dRs64N7Ke3kpG6jby87LSqVf6tbaS+zLX5s56bdrRZmJFcCICAFwpk8nqxIvn9Q//z7MaPJf7mOrt2rKvQ9/5o8fUlufegPh67ssegw4bD7/FSN1OHfZIJlJ653ljywIPP7ZLPj+PADfjtw9XW55b1Qt/96Z++l9e1OR1c3YP/DSRsrAe+9df0Oa9+TunPW5kPDzsvO5wyX27H95y+eR1Y4ch1ZRq5xGWBboZAQDQzUNXnvyLl/TcD98wvL/8Z/H6vHrwWwe194HevLRv5DTEYNiZPQBGZvI7deWDdHNOy5tPG1sWuPfBXkXKwiZVBKchAAAfcL1/TD/+0+f08o/fzssGQrfc9cgOfeHr+0wfgza2Jt6ZASBooOfCyT0AkjR+bUZD52/kfH0g5NddX2JZoFsRAICPyGazunLquv7+/35Grz95Umsrue/B/ln6DnWb/uUbM9AD4NwhAPfNAfigt549Y2gy69YDnaptrjKxIjgFAQD4FJl0RheOD+hH/9cvdPzZM4a61z/Nnvu3qW1zs2ntGZoE6NAhADf3AEg357GcNXAEtsfjYVmgSxEAgM+RSqb13muX9Hf/4WmdfOmCkomUeY17pIe+fVClFeZsz2pkEqBThwCMTQJ07hyADzr1Ur+hg682dDWoo3eDiRXBCQgAwG1KxJN694Xz+tF/eFr97wxKJi2bD5eG9MXfvFter/H5AEZ6KZy4KY7P7zO0lM2pByB9VCKe1Lu/PGeojcNf3i2vj0eCm/DbBu7QejSuoz89oZ//5ctaml0xpc2mjjr1He4x3I6RLu2q+grD9y+0ippSQ9cXwxDALRffvab5yaWcr6+sLdOOu41/BuEcBAAgR+PXZvTjP3tep1+7aMouetsPdxtuw8gkwHBJUGVVJYZrKKQ6g3vaJ4ooAGQzxpcF7nuoz7KDrFB4BADAgHQqrbefPatn//vrShmcG1BZV64NXY2G2jDaI1HX4qxDYuoN1Lu+GiuaOQC33BiY0vDF8ZyvD4YDOvDF7SZWBDsjAAAmGLk8oZ//4BVDE7EkqfdQl6Hrl+dXDe0R77QAUGug3snh/O78aJU3f/GeoWWBvXd1qaax0sSKYFcEAMAk0zfm9eT3X9TKQu4bCHX2blBJubGd2aYMPNjqWpy1HtxIYMn31s9WWZpd0fm3BnK+3uP16PBXdptYEeyKAACYaGluVS/+/VvKZnObE+D1ebV5j7GzAoy82TrpnPjymlJDmwAVaw+AJJ186byh+SBtPU1q39piYkWwIwIAYLKpkTmdM7AxS7XB7lcjD7bSyhLHTAIzMv6fSqY1M5b7QTp2F19P6sQL5w21cfjLu01Zmgr7IgAAefDO8+e0PL+a07WllcY2BZoZW1A6lc75+tZuYxMRC6WxvS7na2duzBsaJ3eC/rcHDB1sVVVfbsrSVNgXAQDIg1QyrXPHruZ0bZnBAJBJZzRzI/e3257d7YbuXwger0fduzbmfP3E9RkTq7GnTCarN59+z1Ab+x/qU7jEeRtE4fYQAIA8mZvI7SFcWmF8Lf7EcO4PuLbNTbYfBmjtbjS0fXKxTgD8qNErExq5PJHz9aGSoGqaWBFQrAgAQJ7MTeS2K1sg5FcwZGxf/qnhuZyv9fq86trZZuj++bZlX2fuF2elqRF3BABJeusX7yljwkZVKD4EACBP4usJrS6t5XSt0XkAk9dnDH3pG12JkE/BcECdfbkfXDM7sVB0GwB9loXpZfUfz31ZIIoXAQDIo1wP5zF6NG9sLaGh86M5X9+4sVYVNWWGasiX7p0b5fP7cr6+/+1BE6txhhMvni+qcw9gDgIAkEe5jqWvrea+m98tuU5CvGXXvVsM12A6j9R7MPfdEuPrSV05PWxiQc4QW0vo5EsXrC4DNkMAwB0Jhv1Wl+Aouc6gXlteN3zvyeFZQ2vdew922W5r4N67ugwdAHTpxDXDZzY41fm3Bkw7vRLFgQCAO2KkW7jY111/VKQ0lFNXdXwtoXTKnJ+VkQ2JPB6P7vnaXskme8FESkM6+OjOnK/PZrM6/6axXhEny6QzevMXxpYForgQAHBHjASAtRXjb7VO0tLVkNN1URN/TgNnRrRuYDihqb3ONhMCD395t0KR3NekX+8fN3ROQzEYvjiuGwNTVpcBmyAA4LbVb6hWIJT7EEDUhG5tJ9mQ4456C1O57972UZl0xvCkt8OP7zI8KdGolk312rzXWBA5/2buvSHF5M2nTyvLskCIAIA70LUz953XJBk6ptZp/AGfOntzW6p2zcDs/U9y4fiAoeGXSFlYj3zvHkMz740orSzRA988aKiN+ckljQ1Om1SRs81PLuniu9esLgM2QABwgNLKEnksPpQjEPKrZ4+xLWLNmNjmFDuObFak7M6P9U0l0xq+lPvObZ9kbSWmgTMjhtrY0NWgL3337oIfDlNaWaKv/t4DKq8pNdTO2Tcum1RRcXj3l+eUiLlnLwR8MgKAzfn8Pn31d+/Xd/7oMfXsaZfHY00QOPzl3Ya2XpWkaJ57AMqrjT0kzBIpC2v3fVtzunb0ykReZqm/9Yv3DM0FkKT2bS164FsHC/YZvPXwr6w1th/B2OCULp0cMqmq4rAejevky/1WlwGLEQBsbt+DvaqsK1dlXbke+vYhfevfPaptd20yNBnqTvXe1aXeu3Jfey3dXH+9nudJgI/9qy/oN/7wEW3d32lZd7U/6Nfj//oLOf9+rp27YXJFN61H43r1n9413E7P7nbd/8275A/k9+dbXlNqysM/vp7Uyz9+R2LI+2POHbui5bncTqxEcWBRt43VNFZ+7E2yuqFC9/36AX3ha/s0emVSA2dGdL1/TMk8vDX6Az7te6hPe+7fZrita+dG87ofeagkqJrGSskj3f/Nu3TwsV3qf3tQV08Pa3HGvEl1nyUQ8utL3z2i+taanK5fWYiaPv7/QcMXx9X/zqDhMLdlX4daOuv16k/f1ZjJM8p9fq923btVex/oNSVkvP7kCUVz3I652GXSGb31zBk98r0jVpcCixAA7Moj3fvr++X1fXInjdfnVfu2FrVva1EqmdaNq5Mavzat8WvTmptYUjab+8O2sq5cfQe7tGV/p2k9DVdOXzelnU/T3FH/ofXqkdKQ9j3Yq30P9mpxZllD58c0dOGGpsfm8/I22NRRp4e+dcjQWPXxZ8+Ytv7/07z59Hva0NVo+M26vKZUT/zb+3Xp3Wt68xfvmTKevHFLs458da/h2m4ZODNieO5DsRu6cEPj16bVsim3JatwNgKATfXe1aWm9rrb+rP+gE8dvRvU8atZ5/H1hCaGZn4VBha1urSu6NKaUsn0x671ej0qKY+otDKiyrpybd7TrtbuJlM3f1lZiOb9/PWWTfWf+r9V1VdozwMV2vPANkWX1jR8aUKT12c0OTyn5XljXaCNG2u1/XCPundvNDQ2Pjk8q8Gz+Xv7vyWVSOmlfziuX/uDh0yZWLr1wCZt2tmmofM3dPW9EY0NTt3RErOK2jJ19rVq0/ZWNW6sNVzPLdGlNb3+5AnT2itmbz59Wt/4P75k2fwiWIcAYEMl5WEdemxXzteHIsEPBYJbYmsJRZfWtLayrlAkqNLKEpWUh/P+F//qe8N5H4Nt7ry9N5jSyhL1Hux6fz/5tZWYpoZnNTE8q4XJJa2txrS2ElMsGv94L4pHKq8qVX1rjRpaa9Ta06S6lirjxWelN586bbyd2zQ9OqdTr/Rr30N9prQXDAW0ZV+ntuzr1NpKTEPnb2hxdkXR5ZvBM7q0rqyk0vKwSioiKikPq7y6VBu3NKu22YSf30dlpZd//I6rTvwzYnZ8UZdPDGnrgU1Wl4ICIwDY0JGv7s3LxivhkqDCJcH8fOl+imQ8lffT14KhgOpy/HcqKQ+rc3urOre3fui/z2ayWo/GFVuLKxD0KxgOKhj25yUsXTg+oOkb86a3+1lOvnRBdS3Vat/WYmq7JeVh9R3uNrXNO/X2c2c1Nshud3finV+eU9fOjYY2+oLzsArAZtq3tqhrR5vVZZjm2FOntLqY30lYTR11pu+T4PF6VFIeVk1jpcqrSxWKBPLy8L9xdVLHnjplerufJ5PJ6vn/8YYun8zv3IxCymazOvqzEzr92kWrS3GctZWYTr3KskC3IQDYiD/ov3n4SpEYujCmSyfyv/66+TPG/+1sfmpJv/zbN/O6OuKzZDJZvfKTt3Xm6CVL7m+mdCqjF370Vt57m4rZ2devuP6sBLchANjInvu22mYzG6PWV2M6+lPj685vR8ttjv/bydpKTM/89VEl4haPU2elt545o+PPnrG2DgOS8ZSe+ZujunYu/5Moi1k6lXb05wB3jgBgI6dfu6QTL15w/Hnl8fWEnv/bY1qPxvN+L3/Ap3oD58NbYXluVU//1at5Hxq5E++9dkmv/uQdxx0Ssx6N6+c/eNn0/QjcavDsqCavz1pdBgqEAGAjqURKJ148rx/9x1/o4jvXHPdlLN1c8vez779UsC+RUCSo6JJzzhi43j+mn/znX2p+asnqUj7m0okhPffDNxxzauP06Lye/POXNDO2YHUpReXY06fZOdElCAA2tLYS02s/fVc//rPnNHxp3Opybtv0jXn99L+8WLCd96SbRwz/458+q/eOXrJsLP12ZDJZHX/mjJ774Ru2PoRl+NK4/v4//kInX7rwiftG2EF0eV0v/+Nx/fT7L2hpdsXqcorOzI35vG/cBXtgzYeNLUwv69m/eV0NbbXasq9DXTs3KlxSuDMAbtetM+ePP3vGkodGKpnW8WfO6OrpYd336wfU0JbbVrz5Mju2oGNPn9bEUH43QzJLKpnWuy+c18V3runQ47vUvcvYMdBmSSXTOnP0kk6/etG24aRYvP3cWW3a3ip/kEdEMeO36wDTo3OaHp3TsadOq21zk3p2t6ujd0PeD2T5PNlsVldPD+vdF87bYvbw3MSifvb9F9V3uFs77u5RZV25pfVMjczp5EsXNHLZ3ON9C2V1aU0v/v1bOnfsio48sdfSYDVwZkTHnzmjVfb1L4jo8rpOv3ZJB7643epSkEcEAAfJpDMavjiu4YvjCgT96tzeqp7d7drQ1fCpZwbkQzKR0vDFcZ16ud92Y9nZbFbn37yq829eVV1LlTbtaFPXjraChoHxazM69fIF3SiSiWlTI3P66fdfUFtPkzr7WtW+rcXw0dC3Y35qSdcvjGnw3KjmJhbzfj982Jmjl7Ttrk0qqyyxuhTkCQHAoZKJlK6cuq4rp67L5/eqfkONmjrq1NR+859wacjU+60sRDV86Wb4GBucViad30NrzDA7vqjZ8UW98/y598NAy6YGVTdUKhQxb6fF9WhcYwNTGr0yqRtXJx0zie6OZKXRK5MavTIpPSk1tNa8v910TWOlObfIZDVxfVbX+8d0vX/M8DkNMCaVTOvtZ8/qoe8csroU5AkBoAikUxlNDs9qcvhfZt5X1pWruaNODW21Kq2MqKQsrEhZWJGykHz+Tx46yKQziseSWppd0eLMihZnlrU4s6KF6WXHT7a6FQZuKSmPqLqxQjWNlapuqFBlXblC4YACIb8CoYCCIf/745/ZTFaxtfjNrYGjCcWiMcXWElqeW9PpqroAAALzSURBVNWNgSnNTiy4a9Z09uYM/OnReb3z/DlV1JapbXOTyqtKVVIeVqQ8rJKym/v+R0pCHzpYKpPOaD0a19ryutZWYjfPXlhe19LsikYuTyi2lrDu38skiXhS545dMXS9XVw9M6yq+vKctyafGpkzuSKYyVXHPz35g+dPTwwu7La6DqsFQwFFykLy+rxKJlI3/4mnHPFWX0gej0f+gE/JZMpdD3gTeb0eRcrCCoYD75+twM8SdtXcVf3e13/vkT1W11Eo9AC4UCKetNVbhl1ls1klHb4pk9UymezNUwGLcVgEcDj2AQAAwIUIAAAAuBABAAAAFyIAAADgQgQAAABciAAAAIALEQAAAHAhAgAAAC5EAAAAwIUIAAAAuBABAAAAF3JXAMhmOYYEAPDJXPaMcFUACEYCMatrAADYk9ueEa4KAOHSQNTqGgAA9uS2Z4SrAkB5bcmi1TUAAOzJbc8IVwWADZurx4Jhv9VlAABsJhj2a8Pm6jGr6ygkVwUAn8/3WtOmKqvLAADYTNOmKvl8vtesrqOQXBUAZmejv+jZ17zo8VhdCQDALjweqWdf8+LsbPQXVtdSSK4KAH19fYnK+pIftPc1WF0KAMAm2vsaVFlf8oO+vr6E1bUUkqsCgCQ1NHT8+213tz5dUhGyuhQAgMVKKkLadnfr0w0NHf/e6loKzXUBwOPxpKOx5DcOPNbzuj/gun99AMCv+ANeHXis5/VoLPkNj8eTtrqeQnPtaPjQ0FB4YXzhl6dfuPaFxHrK6nIAAAUUjPi154ubXq9uqf5SZ2enqzYAusW1AeCWk0dP/tal42M/WJ5bi1hdCwAg/ypqS9a3Htrwe/vu3fe3VtdiJdf3ge+7d9/fBjpi5Zt2NfxlSUXIdV1AAOAWJRWh9KZdDX8Z6IiVu/3hL9ED8CFXr14NjZ6b/P3Vxfhvry6ub06upyLxaNKfTmesLg0AcAd8Pq9CpYFUIOJfL6uKXCmrCv2wbUfTf+3p6YlbXZtd/P82RoA+uqgJEAAAAABJRU5ErkJggg==;" vertex="1" parent="1">
          <mxGeometry x="330" y="369.13" width="70.87" height="70.87" as="geometry" />
        </mxCell>
        <mxCell id="d-vzbSvFQILC7-2r6cho-7" value="" style="shape=image;verticalLabelPosition=bottom;labelBackgroundColor=default;verticalAlign=top;aspect=fixed;imageAspect=0;image=data:image/png,iVBORw0KGgoAAAANSUhEUgAAAgAAAAIACAYAAAD0eNT6AAAAAXNSR0IArs4c6QAAIABJREFUeJzs3Xl8XFdhNv7n7rNLI1ny7jh2nOAkBLJBAglLIIQQIBQayhtKC+V92VraUspStqqlbwulpTRt6QtdoYVfCd0g0EILoZSQBpqyhMSJd8uSrWX2/e7n94ckxw5ObEt35szMfb58hGTJufNYluc8c++55yggosejvGnq0xOprLlR0fQNmqJNKtAnFE1dpygY0zQjL1RlRNP0nKKqaUVRElAVXRGKBkXRFFXRFKx8rKmKAlVRFBWKqiqKoipL71feqVj50tKvV34bFEWBCAMIISDCUIgwhBBCCBEKEYYrHwghhEAYhku/FqFAGCIUgRAIhQgCIUQAIYJQiEARIoAInRBoCT9oBGFQQxhWgzAsI/RLYRgWAz9YFEowr7SDuebR+vwnP/lGT/ZfCBFFR5EdgKib3nrHHZYVbrpIU7QnKZq+U1W1bYqubVSgjkFVsppuZFRVS6qallA13VJ1w9A0Q9cMQ9UMQ1EUVfYfoW8EnovA98LA9/zQ970g8F0ReE4QBB0RBK0wCJpChBWE4WLgB0fD0D/sA3vNduvhD/3aqyuy8xPRqVgAaOC8+q135Ma2jF1sauYuzbB2KJp+nq4bmzRDm9R0a0wzrJxumindShiGaalQ+GMuW+C5wnNs33edTuA5zdDzKr7vFYLAnQvdcMYPvMNh4B3wWs09fzz1+jkAQnZmomHHZ0bqK+/8oy9sglCfoena5bpu7lZ0bZum6ZOaYY7oppXQrYRhWEn+3A6xwHPhOR3fdx3H95xGGATF0PePB667Vwj/R54Xfucjv/TSHymKwpJAtAZ8IqWeetPUpyczueS1mm5doZnWbt0wz9cta6NhJfNmKpPUDZM/k3RGYRDA7bRcz27XfKez6HnudOC5ewPP/0HQtu/76HtetU92RqJ+xydbitQdd/yLdTRoXQtozzRM6xLNMncYRnKTkUiOmclU0kikeFGdui7wXDjtlu3Z7Zrv2vO+60z7jvNwIMLvmga++Tu/8PKS7IxEsrEA0KpMfeL+VMdbuFEz9GfrRuIKM5G4wExlJsxk2lR4zZ36nOfYgdNqVDy7Pe07zgOh590DQ/3X337jC+dkZyPqFT5T0xN67dRfJdaN5J6nG9ZzDStxpZFIXWClMxNWOmtxhjwNG7fTDpxWveza7SOBbT/geZ1vOU37K3/43tsXZGcjihoLAAEAbrvtTm3TVf4NlpW60UgkrzSSqQusVGZ9IjtiqaomOx6RVE6r4dutetnttI+4TucB32l/s+lV7/rku99Yk52NaLVYAGLozjuF9oPiV1+o6tqtRiJ5jZlIbrcyIxlNN/jzQHSWhAjhtBq222nNuU7n+77jfsVKWJ+fet1zq7KzEZ0NPuHHwNt/784rjUTqNjOVeraVyl6UzOVHOdgTRU8IAbtRbdvN+mGv3brPc9tfPPzt4Muf//wrA9nZiB6Lg8CQecO7PrYtt37LT1mp9PPNVO7JqVx+0kyleQ6fSJLAc0W7Vq7Z7fpeu9n6z069/A9/8oGf+y642BFJxgIwwKamptRm7pKXaIb1SjOZuSaZG92SGsmbnJxH1N+cViNs18qLTrv5Q9fufFF3g898+N2v5HwC6ikWgAFy2513ajsXUi83kolXW+ncNclcfpIL5xANPhEG6DRqdbtVe8Btt/4p1My/+PAbb2QhoK7i4NHn3vHRz79AT2Zem8yMXJ/Oj2/SzQRf3hMNuTAM0K6UKu1G5X6n3fx8sVr7m7+eep0tOxcNFxaAPvPzv/kX16ZHJ34umR25IZ1fd56VyvD6PVHMBZ4rmuVCodOo3teulT/7w68e+If/+I8pX3YuGmwsAJK9aeqvtmdz2V9MZPM3p0bHdqZGxgzZmYiov7mdlmiVC8fb9cq3nEb1T//wfa/9T9mZaPCwAPSYEEJ5359//ZWapr3eSmWfnh4dzykqz+oT0ep1GjW3U6886Lvu53N68k/e9frrGrIzUf9jAeiBqTvvNN1C+s1mZuRnM/l1TzYSSV12JiIaTmHgi2a5cNRu1v5JQPwu9zegx8MC0CVv++idYwkz9fZENvfKzPiGnbpp8XtNRD0lwgDNcqHQqVW+4jSrv/t773jVg7IzUf/goBSht37wEzuToxvfmc6Nvzg7sX6TpvNyPhH1CSHQLBUa7Vrhm41y+WN3vPenvy47EsnFArBG7/jDv9+l6YkPpHJjt2TXbcirGiftE1H/a1WKTqNS+C+/3f7wR37l5V+RnYd6jwVgFX7rzns3e01nykxlX5bOr1unKPw2EtHgshu1Trte/aamq7/9gddc9y3Zeag3OHKdpakpofob/+2XEtnRX8iMTe7gzH0iGkbtRqXSLpc+55vifb/zs88vyc5D3cMCcAbv+IN/eGYiO/bB3MT6681kmrP3iSgWQt8X9cLxve1a+aMf/sVb/0x2HooeC8BpvGHqE+tG8ht+M7du/aty6zbkwVP8RBRjnXrVbSwev7tePPaeP/rA//6+7DwUDY5sJ3nbh/729szY+vePbNx6kWEl+b0hIjqJCANU52cL9dLCn880Hpr6/NSUKzsTrV7sB7mpv70v57ZqH0qPjL8mMzaRkZ2HiGgQOO1m0CjM3R34wa/89ptv4voCAyi2BeD9f333Jbpq/b/s+PpnaIbBGX1ERKsghECzvHjEadV/7YP/+/l/JzsPnb3YFYB333HXC1L5sY/lJjbt5kx+IqLotCqlcqO88JHfefPNH5Kdhc4sNgXgV3//H/9Pbv2GqZHJzZtkZyEiGmbtWqVTXZj564Xi//zKX09N2bLz0OkNdQF4znOm9MtffMlvjG3c+gu5iY052XmIiOLEbtaD8uzhLxVmH37LX/7uu47LzkOnGsoCcNttd2o7rjN+P7d+65syYxOW7DxERHHmdlqiPHP4G3a1+DN/8L6fPSY7Dy0ZqgIw9Q2hBwe//uHM2OTPJzIjHPiJiPqI7zqitnjsa6owXjv1+ut4RkCyoSkAv/FX//n+1NjEe8xkKiE7CxERPb7Q90W9OPclkcjfPvXKS5qy88TVwBeAd//pv/5Ebnz9n6VHx8dlZyEiorPndtpebX72Y7/1xhvfKTtLHA1sAXjbh/72ySMbzrszv3Hrk7hULxHR4GpWCvXq7OG3fuTtt31adpY4GbiR82d+/rfHN1582ecmz7vwBt20Bi4/ERGdhhAozR4+UpzZ/+qPT73hXtlx4mCgBtB3fPQf/u/4tp3vSubymuwsREQUPd91sHhk39eDTvnW33vHz7Rk5xlmA1EA3v+Jrz7dzGT/KTexeaPsLERE1H12o+bUi8d/9f++8YV/LDvLsOrrAnDHv+y3quXC57LrNrxUVbW+zkpERNFrlgv7Q+Dm97/qqoOyswybvl0M//3/72vXtjud+ZHJzbdy8CciiqfM2MSuVCa39/1//vVflZ1l2PTlwPprH//XP57Yvustmm70ZT4iIuq9yrEj/1Oanrnhj6Z+ui47yzDoqwH2Te/+0+3rL9r9zbHN52+TnYWIiPpPq1qy5w786DV/9J6f/XvZWQZd3xSAX/jgp35py+6n/D5n+BMR0RMJPBezj/zgC7nGQy+fmpoKZecZVH1RAN79x3f9/fqdF79C1XTZUYiIaECUZg9Nt8pzV/3+r95elJ1lEEktAFN33jumu/jv7OTmHTJzEBHRYOo0ana7uvii33z9878hO8ugkVYAfusz9z7Nyoz+h5lMJ2VlICKiwRcGgWgszr/nAz/7jA/JzjJIpNwG+J5PfvXm5Mj4vRz8iYhorVRNU0Y2bPqdD/zF3XfIzjJIel4A3vnRf3zd+Kbzv6ybCU72IyKiaCgKxrfufOt7P/FV3h1wlno6CP/yhz/z/s0XX/ExbuJDRETdkM6vu/ip19z4go1p71N79uwRsvP0s54NxL/04c/+3nlPftrbNd3o1UMSEVFMze97cI9V/O8n8zbBx9eT++7ecccX3rdp16Vv521+RETUCxsuvPTiYiLxXQBXyc7Sr7p+BuADf3n32/Kbtn9UVXnJn4iIequ2eOxb73/1tc9WFIWXAx6jqwXgg5/5zuuz45N/rqh9u+cQERENuVa1+G/veeWVN8nO0W+6NjJP/dnXLkuPjn2Sgz8REcmUHl33gqlPf+uDsnP0m66Mzm+Y+kTKzOW/pRkmR38iIpIut27je9/5sX+8UXaOftKNAVoZn9z63XR+Xa4LxyYiIjpnmm4oo5u23/Vz7/zwJtlZ+kXkBeAXf+uvP75h58WXRH1cIiKitUiPjlsbzn/yf8nO0S8inZr/yx/+9O4tF1/1lxoX+iEioj6UGZscufSKZxn3fvVzd8vOIlukZwDGt+z6ipnKcPAnIqK+teGCi9/965/61jbZOWSLrAD8xt/814dyE5ti/w0lIqL+ZlhJLZHKfE0IEesXrJH84T/y1QOTeqjMqZrOWf9ERDQQ2uXCz//aq676uOwcskQyYHcKhU9x8CciokGiWYnfmZoSsR271vwHf98nvr4zOz7JFZaIiGigWOlsLtz6Hx+QnUOWNRcAzdQ/q2p6rK+jEBHRYEqPjr8rrnMB1lQA3vkXX8iOTG66OqowREREvZTIjiR+7eNfebPsHDKsqQDonvl+zTBj2ZyIiGg4JDOZt8rOIMOaCkAyM/qaqIIQERHJkF234aJ3fejOEdk5em3VBeC9f/LVrdl1GzZEGYaIiKjXNMNU9JHMe2Tn6LVVFwChi9dyq18iIhoGRiobu7vZVj2C64bFbRWJiGgoWOnsBbIz9NqqC4CVzHDHPyIiGgrJ7Ej63R//Ul52jl5aVQF429Rn35LIjIxFHYaIiEgGRVEhmv6dsnP00qoKgKqb63XLjDoLERGRNIpmxOpOgNVdAtARRLSPEBERUV9QjXiNa6ssAEoYcQ4iIiKpFEOLVQNYVQHQdYMFgIiIhoqmx2tX21X9YUUQiKiDEBERyRSGYaxe3K6qAISuG6tvEhERDb/A8wLZGXpplWcA4rl1IhERDS/h+bF6cbu6MwBeoELwKgAREQ2P0A9jNbCtbsKDoqrtSjniKERERPIIL9RlZ+ilVc94tCu1KHMQERFJ4zabUKEasnP00qoLQGC7UeYgIiKSpl0qATFb4W7VBUBTuBQwERENB69ty47Qc6vfDdDKoFOpRJmFiIhICh2W7Ag9t6ZVj5rzi1HlICIikqIxPw/TTMmO0XNrKgBxbExERDRc7FJVdgQp1lQATDOF+txcVFmIiIh6KvR9WHpGdgwp1rzxgVtqRJGDiIio58qHDkPT4zmpfc0FIJkcRYNnAYiIaMCEvg8jTMiOIU0kWx86pWYUhyEiIuqZ8qHD0I34zmWLpAAkkyOozsxEcSgiIqKu8zodGCK+r/6BiAoAAChtwG23ojocERFR11QPHoWux/fVPxBhAdB1C/VDx6I6HBERUVcU9x9AKpmXHUO6yAoAsDQhsLh3f5SHJCIiikyrVISFtOwYfSHSAgAACS2LxuJC1IclIiJak9D34CzUoaqa7Ch9IfICoCgq/FIHgeNEfWgiIqJVK+09CMuK56I/pxN5AQCWVggs7z/SjUMTERGds8qRaaQSY7Jj9JWuFAAASCXzKB061K3DExERnRW7VoPm6rJj9J2uFQAAsMIUKkemu/kQREREj8uu1dA5XoGmGbKj9J2uFgBFUWH4CZQP83IAERH1VqdagT1XjeVWv2ejqwUAABRFgRUmeTmAiIh6pl0uwZ1vwDCSsqP0ra4XgCUKEiKD0oGDvXk4IiKKrVaxCK/Qhm7Ee6nfM+lRAViSULIo7j/Qy4ckIqIYaS4uIijZsV/m92z0tAAAQFLNcbVAIiKKXGN+HmHVg6absqMMhJ4XAABI6iMoPLJPxkMTEdEQqh8/DjRCzvY/B1IKAACkjFEUHtyLwHNlRSAioiFQ3HcAaluFqvJe/3MhrQAAS4sF1Q8cR7OwKDMGERENIN/uoPjgXiS1HBRF6nA2kKR/x0wzBdRCFPdxXgAREZ2d+twcmkcKSHJb31WTXgCApQWDktoIig/uhW93ZMchIqJ+JQQKj+yD2lJh8Da/NemrCybJZB7NIwWoIwZyGzfKjkNERH3EaTbRODKHVHJUdpSh0BdnAE5mGAmoLXXpLgEhZMchIqI+UJ2ZgX2sgmRyRHaUodF3BQBYWj44ZYyi+NABOI267DhERCRJ6Pso7NkLw7W4uE/E+uoSwGMlkyNw51uoH5vH+AU7oOp9HZeIiCJUOTINpQOkLE7064a+H1FVVUNKHUV9/yxEUkF++3myIxERURe1SkV05spIJkcBLurXNX15CeB0DDMFM0ii+OA+tEtF2XGIiChivm2j8NBeiEqwNPhTVw1MAViRTI4irAQoPPQIfNuWHYeIiNZICIHS/gNoTxeRSuShKIrsSLHQ95cATkdRFKQSY2hPF+GpNsYu2MkfGCKiAVQ/fhx+tYOElRvAl6SDbSALwApNN6HBROXhQ9DzSeQ2bpIdiYiIzoJTr6N+dA6pZB6alZUdJ5YGugCssKws0AYKD+5FYmIE2fUbZEciIqLTcBoN1GeOIWGMIMVlfKUaigKwIpXMA02gWNgPYzSFkS2bZUciIiIAnWoFzWOLSFojSFljsuMQhqwArEgmRwAHKD10EFpGx+h5vHWQiEiGVrGA9nwZqeQoUgm+4u8nQ1kAViQSWcAHKnsOQyQE8tu3Q1E5y4SIqNsac3NwSg0kk6M81d+nhroArDCtNCCA2t4Z+LqHsfO3c1VBIqIuqM3Mwq93kEiM8F7+PherUdAwkzCQROPgHDzYyG/fBs3i2tJERGsiBCrT0xDtAJaVhZ7g8n2DIFYFYIWuW9BhoTVdhOM1kVo/hvS6CdmxiIgGittqoT57HFpowDRTAF9PDZRYFoAVmmYgpeWBmkBp4SBgCoxs2wqdZwWIiE5LCIHazAy8egfJxCiSOrfnHVSxLgAnSySWFqLoHC3DdmuwxnJcWIiIaJldraIxtwBTScIwEjCSCdmRaI1YAB5DVTWkEmNAG6g8fASB6iG3ZRPMdFp2NCKingp9H9WjMwjbPpLJEaRMzuYfJiwAT8A0UwAAd66Juj0LPZfEyNat3HeAiIZas1BAZ7EMy8jA0tJAUnYi6gYWgLOgKAqSyTzgAfW9M3BFB6nJcaTH18mORkQUCbfdQv3YHFRPgWVluWhPDLAAnCPdSEBHAqiGqCwehg8XyfE8MpOTsqMREZ0Tp1FHY24BigckEjkk1Rxn8scIC8AamGYaJtJAA6iWpuGJDhL5EWQ3bAB4mYCI+lCnWkFroQjFV5YGfW0E0GSnIhlYACKyssgQ2kBt7yzcoAVzJIvcpo1cfpiIpGqVimgXytBCHZaVWbp1j8/+sccfgS7QDQu6YQEO0Nh/HI7fhJFLIbdxE5cgJqKeaCwuwC5WoSsWTDOFlMFleelUHI26TNNNpPQxwAVahxZhuw1oGQu5DeuhJzi1loiiEfo+GouLcKsNGGoChpFEyuJEPnp8LAA9pGr60q5YAeAcq6NmH0eo+jCzaWQ3rIeqG7IjEtGgEALNYgF2uQp4WFqDX9Whc9Cns8QCII1yYvVBOED7SAm23QB0AWtsBJmJSa43QESnsKtVtIolhLYPy0hD000k9VE+k9Oq8MemTyiKimRyeU3tBtCoHofjNqFYGlLrxpDKj8kNSEQ957bbaC4sImg7S6f1zSQSSpYL81AkWAD6lKYZS5cLAIiyj+rCUXh+G1rKQnpyAlYmIzkhEUUt8Fw05hfgNdrQYMCyMrCQAhIp2dFoCLEADAjDSMAwEoAA/IU22kcL8IUD1TKQGM0hNb6OlwyIBoxdq6FdKSNoO1DF0i16hmLB4I6k1AMsAAPKtJYXIQKAmkCzMg/HaUKoIfRUAqnxMVjZrNyQRHRC4DhoFovwGi3AFzCMFHTdgoU0YHGzMeo9FoAhoarao3MIAsBf7KBzrALP70AxFJjZDNIT66AZptygRDEghEC7VIJdrSF0PGiKCctKQ4cB3RgFeMMP9QEWgCF24rIBAHSAznQFrttEIDxoCROJ/MjS5EJeOiBaE7fZRLtUgteyoYQqLCsNVdWXJuwlZKcjOj0WgBhRlKVdvlaISoBGcQ6u10YIH4qhwUilkBwdgclJhkQ/JnActKsVuI0WQteHEiow9AR0IwEDSRgWp+fT4GABiDlV05HQco9+wgG8hTbsY1V4fgchAiimDjOdQjI/CiPJ2cg0/ELPWx7omwhsD0qoQNcsGGYSKtSlV/acp0cDjgWATkvTTWj6SfMFOoDbaaLtl+B5NoQSQLUMmJk0kqOj0BM8z0mDJ/R9dKpVOI0GAtuFEgCaZsE0k1CgwEKGAz0NLRYAOie6bkHXT3pGbAFOq46mtwjftyEUAUVXoVkmjHQSiWyO5YCkCn0fdqMOr9mGZ9sQXgCEgK6aMMzU0qUxpAGTM/EpXlgAKBKnTDgEgABAHXDqdbSDEnzfRhD6gAqohgY9kYCZScHK5rhDIq2NEHCaDTiNJvyOjcD1gABQFRW6ZkFf/rnUYUJXTb6iJ1rGZ17qOk0zoGmPue/JBcKyj065DN+z4QcOwqVnbWimAT2VgJXJwExnoKiqnODUN7xOB06jAa/dRuB4EH4ARajQNBOGkYCiqNCgQ0MG4J2uRGeFBYCk043EiVdpJ7QBv23Dhw3fdxAEHsLQh4AAVEDRFCiGDt0woSUsmMkkjFSKZWGA+HYHbrsNz3YQOC5Cz4MIQiAEFKFAUTRomgFdN6EoKhQAJlJLz1p85iJaM/4zor73Y/MOVggALgBXwKu34aEN33cRBO5jyoIKxdBOlAXDsqCZJjTTZGGIUOA48F0XgevAs10E7vKg7oeAWBrUVUWDetKgDgD68v+gYemNiHqCBYCGiq6b0PXTnAM+qSz4WDqzAABhGCAMfIQiQBgGECKEWHoJuvTfqQqgKlBVdalI6Do0XYdq6NAMA5ppQTfNgZ3HIMIQgevAd1wEnofQ8xD4PkI/gAgCiCCECJcG8JU3BQoURYWqaFBUDaqq/dglHg7qRP1vMJ+1iCKiLg9gZ0UA8JbfOkAIDyE8eFha+lWIYPm9AEQIgZWPxdLZiJX3y78fKx+f9P8nHkhRlj+nLJURgaWPIQBx6sqNCpRHP1JWPqMAyqnvFWX5Y0Vd+rWqnngVfuL7AQ3qyoitgM8QREOM/7yJIqAoChSF/5yIaHDwAigREVEMsQAQERHFEAsAERFRDLEAEBERxRALABERUQyxABAREcUQCwAREVEMsQAQERHFEAsAERFRDLEAEBERxRALABERUQyxABAREcUQCwAREVEMsQAQERHFEAsAERFRDLEAEBERxRALABERUQyxABAREcUQCwAREVEMsQAQERHFEAsAERFRDLEAEBERxRALABERUQyxABAREcUQCwAREVEMra4AiMCIOAcREZFUAtBkZ+ilVRUAz3G3Rx2EiIhIJhGEOdkZemlVBUBA86MOQkREJJNQhCc7Qy+tqgAoKlpRByEiIpJJidmL21UVAFXXmlEHISIikklRwAJw5v9I6UQdhIiISCZFUQLZGXppVQUghEhGHYSIiEgmARGrW+NXNwkwCFkAiIhouIRClx2hl1Z3BkAELABERDRsuA7AGYVIRJyDiIhIKgGeATijhbkDB5r1YtRZiIiIJBGYOfxAWXaKXlr1hIdmsxRlDiIiImk6rRoC3+cZgLPRblSjzEFERCRNHF/UrroAtJq1KHMQERFJ02pUZEfouVUXAN/30KgvRpmFiIio58IwQL0av3lta1r0oLw4E1UOIiIiKarlYwiCWC0CCGCNBaBaWUQQxGrzJCIiGjLlwqzsCFKsqQCEYYhy8WhUWYiIiHrKsZto1ON3/R9YYwEAgPljB3kWgIiIBtKx6YdkR5BmzQXA9zzMzz4cRRYiIqKeqdfmUYvh5L8Vkex8VFiYgd1pRHEoIiKirhNC4NiR+L76ByIqAEIAs9MPRHEoIiKirivMH4Bt27JjSBXZ3seNWhW1ylxUhyMiIuoK33cwf+yg7BjSRVYAAODY0YchRBjlIYmIiCI1N/NwLO/7f6xIC4Bjd1CYOxTlIYmIiCLTaVVRXDwuO0ZfiLQAAMDx2f1o1AtRH5aIiGhNfM/B4QPfAyBkR+kLkRcAIUIc3vc92J161IcmIiJalTAMcGjfd+HYHdlR+kbkBQAAgsDHwb3fhefFe4YlERH1A4HpA/ej1eQL05N1pQAAgOs4OPTIfQhDv1sPQUREdEaz0w+gWonvgj+Pp2sFAADa7RaO7L8fQvB6CxER9d7i/H4U5uO52c+ZdLUAAECtWsLsES4SREREvVUtH8ex6f2yY/StrhcAACguzmLxOP8SiIioN1rNMqYPPgDO+H98eq8e6NjMPgSBj41bd/fqIYmIKIbq1QUcPvADhCEX+3kiPSsAADB//BAcu4VtOy+Hqmq9fGgiIoqBwsIhHJt+hHPPzkJPLgGcrFJewIE93+YtgkREFBkhBGaO/BCzRx7m4H+Wel4AAKDVamDfg99Cp12T8fBERDREgsDHob33objA2f7nQkoBAADXdbFvz73cQZCIiFbNddrY/9C3UK+VZUcZONIKAACEQYjD+7+PxXluy0hEROem3Sxj30PfRqfTlh1lIPV0EuDpCCFwbPoROJ0mNp93KScHEhHRGVWKszh6+EHO9F8D6QVgRXFxFs1GBdt2XIZ0Zkx2HCIi6kO+52DmyI9QLS/IjjLw+qYAAIDdaWH/nvswuWEbNmzZzbMBRER0QqU0i9npPfA9T3aUodBXBQBYuiSwMDeNWrWwfDZgXHYkIiKSyPdszBx+ANVKQXaUodJ3BWCF3Wlj/577MLFhGzZtuQSKKnW+IhERSVApzWD2yEPwfV7rj1rfFgAAEAJYnDuKerWIbTuewrkBREQxwVf93dfXBWDFytmAyQ3nYeOW3TwbQEQ0xCqlWcwe2QPf57X+bhqIAgBv5K7hAAAgAElEQVSszA04gmplARu3XIj8+BbZkYiIKELtVgXHZ/aiUSvJjhILA1MAVjh2B0cO/BCLc4ewcetFyI2slx2JiIjWwLGbmJt5BBXe2tdTA1cAVrRbDRx85H5kc3ls2rYbqXRediQiIjoHnmdjfnYvSoVj3MBHgoEtACsa9Qr2Pngv8mOT2Lh1N6xERnYkIiJ6AkHgY/H4PizOTyMMQ9lxYmvgC8CKSnkR1coixie2YMOWi2AYCdmRiIjoJEKEKCwcwsLxg/A9X3ac2BuaAgAs3TZYXJxFuXgckxu2Y3LTLmjaUP0RiYgGUrl4FHOz++E6tuwotGwoR8cwDDF//BAKizNYN7kFE+vPh2EmZcciIoqVMAxQLs6gMH8EdqclOw49xlAWgBWB72Hh+GEszh1Bfmw9Jjbu4GRBIqIu8zwbxfnDKC7O8F7+PjbUBWCFEALl0jzKpXlksqOY3Hg+RvIbASiyoxERDY1Ou4rFuYOolBY4q38AxKIAnKzZqKLZ+D4s62FMbNyO8YnzoKqx+zYQEUWmVplDYf4QGvWq7Ch0DmI78jmOjdkjj2Budj/GJ7ZgcsNOzhMgIjpLYRigXJjG4vwROHZHdhxahdgWgBWBH2BxbhqF+aMYHVuPiQ3nc9MhIqLH4TptFBePoLQ4y+v7Ay72BWCFEAKV0jwqpXlYiRTG1m3C2LqtMK2U7GhERFIFgY9q+RjKxWNo1iuy41BEWABOw7HbmJs9gLnZA8hk8xib2Iz82GaoXFOAiGJDoF5bRLkwi1qlgDAMZAeiiHFEO4Nmo4Jmo4LZI3swmp/E2MQWZEcmwTsIiGgY2Z06SoWjqJTm4Lmu7DjURSwAZykMwxO3Ehqmifz4RoxPbEMimZMdjYhoTXzfQaU4i3JhFu12U3Yc6hEWgFXwXBeLc9NYnJtGKp3D2LpNyI9vgW5YsqMREZ0VEYaoVedQLsyiXivxvv0YYgFYo3arjnarjmNH9yKdGcHI6CRy+Q1IJLOyoxERncL3HdQq86hXFlGvlxEG3JAnzlgAIiKEWF5kqIpjM/tgJZIYGZ3ESH4D0tlxKArnDBBR79mdBmqVOdSri2g163ylTyewAHSJY3ewOD+Nxflp6LqB3Og6jOTXIzeynncTEFHXCCHQapZQK8+hVi1wkR56XByJesD3PZSLcygX56CoCrLZPEby6zGS38jVB4lozcLAR722sHR6v1qE7/PUPp0ZC0CPiVCgXiujXitj5sjDSKWzGBmdRGZkAulMHoqiyo5IRAPA7tTRqBdRryyi0ahAhKHsSDRgWAAka7caaLcawLGDUFUN6ewIMtkxZHPrkMqMce4AEQEAHLuBRq2AZr2MZqMCz+M9+rQ2LAB9JAwDNGplNGplzOEAVE1DJjOCTG4c2dw6JNN5FgKimHDsJhr1kwZ815EdiYYMC0AfC4PgxOUCYD80TUM6M4rMyFIhSKVHwRUJiYaD67SWB/wSmvUKXA741GUsAAMkCALUayXUayUA+6BpOjLZUWRy48jkxpFMjXAOAdGAcOwmWo0SGvUSmo0KXMeWHYlihgVggAWBj1q1iFq1CABQVBWpVBapdA6p9AhSmfzygkQ8S0Akk+d20G5V0G5W0WrV0G41EHArXZKMBWCIiDBEq1lDq1kDMAMAUDVtuRDkkEqPIp3Jw7TScoMSDTHfd5cH+wrazRra7Qav31NfYgEYcmEQoFmvLO/hPQ0A0HVjqRBkRpBKjyKVycMwEnKDEg2gMPTRblaXB/wa2u06F96hgcECEEO+7500l2CJaSaQSueQTGVhJTNIJLNIJLOcU0C0zHVa6HQacDoNdNpNtFs1OHabS+vSwGIBIACA69pwXRvVyuKJzymKAtNKIZFMIZHMLL9lkUjmoKqaxLRE3SGEgOs00Wk3YHcacDot2HYTdqeNMAxkxyOKFAsAPS4hBBy7BcduoVYpnPI100ogkUifWgxSOWiaISkt0dkTYQjbXhrkl96asDstOHYHQnBFPYoHFgBaFdex4Tr2KZcRAMAwzRPFwLSSMK3U8lsaum5KSktxFIYBXKcF12nDcdrwnDbsTgu23YLrdMAz9xR3LAAUKc914bkuGvXKj31N1TRYVhKmmVguBywItHorA7zjLA3ontOG69hw3A5cx4bPpXKJnhALAPVMGATotJvotJun/bqqaTBNC5aVgmklYFip5Y9TMMwkdN3iUsgxEvguPLcDx23Dddpwnc6jb24Hvscd74jWggWA+kYYBLA7bdid9uP8DgW6YUDXDRiGCd2wTrxfeTOW33QjwTsY+o6A7znwPOeU9/6JX7vwfXfpvefxWjxRl7EA0AAR8D0XvufC7rTO+Ls1XYeum8slwTy1LOgWNF2HphpQNR2apkPVDGga/0mcjTAMEAY+gsBDEPgnPvZ999QB3XPg+x48z0Xge7xljqiP8NmOhlbg+wh8H479eGcUTm+pEGjQNA2quvSxqunQVO2ksnCa96oORVWhQFl6ryhLZyGW3yuKAgUqFPXR91Eu0yxECCHEKe/xmF+f/D4MVwZu/8QgHp70cRAESx+HSx+HQYAg9BEGAQdyoiHAAkD0GCsDYa9Waj9RDhScVBgefQOwPJCfPMgvD+QARCgAcEAmonPDAkAk2dKgvvIrLjZDRL3BWVJEREQxxAJAREQUQywAREREMcQCQEREFEMsAERERDHEAkBERBRDLABEREQxxAJAREQUQywAREREMcQCQEREFEMsAERERDHEAkBERBRDLABEREQxxAJAREQUQywAREREMcQCQEREFEMsAERERDHEAkBERBRDLABEREQxxAJAREQUQywAREREMcQCQEREFEMsAERERDHEAkBERBRDLABEREQxtKoCEATOSNRBiIiIZApCPyE7Qy+tqgD4vj0RdRAiIiKZwjCwZGfopVUVACFUL+ogREREMimK5svO0EurKgCqrjejDkJERCSToqgsAGeiqwYLABERDRVVVWJ1dnt1ZwAUJVYtiYiIhp8iFCE7Qy+t7i6A0E9GHYSIiEimEKEmO0Mvre4ugDBkASAioqEihNBlZ+il1d0FEPipqIMQERHJJATPAJxRKHwXiNWlEiIiGnJB4AayM/TSqgqAa7fmgsCNOgsREZEkAo1moS07RS+tei8Az4vV94mIiIZYGPoQShir/XFW/Ye1nUaUOYiIiKTx/Y7sCD236gLQalfBeQBERDQMOp2a7Ag9t+oCEIZBLBsTERENmxD1Zll2iJ5b0/WOZqsUVQ4iIiIpXLcJIJQdo+fWVAAazSKEiN83jYiIhkejUZAdQYo1z3h0nGoUOYiIiHouDF207brsGFKsuQCUKrMAzwIQEdEAqtaOyY4gzZoLQBgGaLXjefqEiIgGVxB0lu9oi6dIFj2o1OYhRKy2USYiooEmUKnOyg4hVSQFQIgw1qdRiIhosDhOHR27KTuGVJEte9hsVeC6XB2QiIj6mxABCqUjsmNIF+m6x4XSYd4WSEREfa1SneFYhYgLQBgGqNWPR3lIIiKiyLhuE612RXaMvhD5zkeNZgEdO76zKomIqD+FoYfF4kHZMfpGV7Y+LJYOIwi4TwAREfUHIUIsFPbz1P9Jurb38dI32u/W4YmIiM6SQKU6Dd93ZAfpK10rAEEQoFg8yFUCiYhIqmZzPtYL/jyerhUAALDdNgrlgwBENx+GiIjotFqtBVRq87Jj9KWuFgAAsO0mSuXDYAkgIqJeandKKFd5Z9rj6XoBAIB2p4ZKdaYXD0VERATbrqJUPio7Rl/Te/VAzVYJYehjfOx8AEqvHpaIiGKm1SqizBedZ9STMwAr2p0aFgv7IUTQy4clIqJYEKg3jnPwP0s9LQAA4LgtLCzuhQi5eyAREUVl6Va/Wn1BdpCB0fMCAACe72BuYS8XCyIiojUTIkCxdBDNFpf4PRdSCgAABKGH4/N7Ydv8CyMiotUJAwfzCw+jY3M32nMlrQAsESiUjqBWnwVvEyQionPhOHUcm98DP+Al5dXo2V0AT6TeKMB12lg3vgOK2heRiIiobwnUGnOo83r/mkg+A/Ao223h2PyDsB0u10hERKcXBA7mFx/m4B+Bvnq5LYRAoXgY6dQo8qPboCia7EhERNQXxPL9/bOygwyNvioAK1rtKmyngYnxHTCMjOw4REQkkQg9FMuHYTst2VGGSl8WAGBpN8H5xf3IZdchl93EswFERLEj0OmUUarMQnBn2cj1bQFYUW8U0WxVsG5sOywrJzsOERH1QBA4KJWPwHHbsqMMrb4vAAAQhgEWiweRTOYwNnoeVN4pQEQ0pAQazQVUa3Oygwy9gRpJO506jnV+hNHcRmQyk1CUvrmJgYiI1kTAtmsoV2YQhL7sMLEwUAVgRbU+h3pjAWP5rUgm8+DugkRET0zTNGRGR2AlEjAsC1bCgmFZMBMJmJYFM2HBtCwoigLPdeF7HjzXW/rY9eB5LjqNJurVKpq1OkQY3TV5z2uhVD4Kz7cjOyad2UAWAAAIRYhieRq6NofxsW0wzQxYBIiIACuZQH5iAvnJCeQnJjA2uQ4jY2NQ1GjOmoZhiGathkalinqlinq5guLcHCqF4rkdJ3BQrs5wGV9JBrYArPADFwuFA0hYaYzlt0LTkrIjERH11Oj4OLZcsAMTmzYiPzGBVLa7t0+rqopcPo9cPo/NJ33etW0szB5bepuZRbVQhBA/vsy7EB7qjQXUG4Wu5qQnNvAFYIXttHB8/hEkEznkRzdD0xKyIxERdc26jRuwddcF2HbBTmTzo7LjAADMRAJbL9iJrRfsBAC4joP56aM48sg+HDt8GL7noNFc5Ja9fWJoCsCKjl1HZ76OVHIEoyOboWmW7EhERGumqirWb9uCrRdcgK0X7EAynZYd6YxMy8K2C3dh24W74DoOHnngv7Hne/eh3ixEOoeAVmfoCsCKdqeGdqeGRCKL0dwmGEZKdiQionOWSCZx4eVPwYVPvQyJ5OBe4jQtC5ddfR0uu/o6tJt17Pn+d3D/f/47KqVF2dFia2gLwArbbmDe3gvDSCA/shmWlQUnCxJRv8vmR7H7yiuw85Ld0PTheqpOZXK46vobceUzn4dHHrgf9939ZczPTsuOFTvD9VP1BDzPxmLxIDRVR350ExKJPNcRIKK+M7FpIy6++kps2bkDijLcL1YUVcXupz4Nu5/6NBzZ9xDuu/tfcHjfQ7JjxUZsCsCKIPRRLB+FosxgNLcBqdQ4VNWQHYuIYm7T+dvx5GueholNG2VHkWL7hZdg+4WXYH72CL7+xb/D0QOPyI409GJXAFYIIVCpzaFSm0MqOYqR3HroOucJEFFvZXI5XHXDs7Fl5w7ZUfrChi3b8eq3vBt7H7gfd3/xc6iWeatgt8S2AJys3ami3alC1y2M5jYgkRjh7oNE1FWapuHiq6/EpU+/euiu8UfhosuuwgUXPxXf+Y9/xX99/ctwHa4SGDX+1J3E9x0Uy0sTUdLJUWSzk8t3Dwz3dTgi6q1N52/H1Tc8G9nR/rh/v19puo5nPP8luOxp1+PrX/w77PnefbIjDRUWgMfR6lTR6lShqhpy2UmkU2NQVVN2LCIaYOlcFlc959nYumun7CgDJZMbxa0//SbsuuRyfPXvPwW7wy2Co8ACcAZhGKBam0O1NgfTSGIktwGWleUlAiI6J+ddtAvX3nQjdIOTjlfr4sufji3n78Jdn/0kJwlGgPfBnQPX66BQOozZ4w+gXD0M12sC+PF1romIViiqiiufcz2uf/GLOPhHIDc6htvf/C4898W3QdX4QmwteAZglVqtKlqtKgAF2cw40qlxGEYSnC9ARCsSqRSe9ZIXYXLL5jP/ZjpriqLgmhtuwfYLL8U//tUdqFVKsiMNJJ4BWDOBRrOI+cW9mDn2Q1Sq03DdBoTgOtdEcTaxeRNuec3tHPy7aMOW8/Dat/06Np/HORWrwQIQKYFmq4yFwgHMHv8hiqUDsO0qROjLDkZEPfSkK56KG1/5CiQz/b9hz6BLZXK4/effjYsvf7rsKAOHlwC6qGM30LEbAADTSCKbmUAikeXdBERDSlEUXHvTjdhxyW7ZUc7IDQScQMDxQ9iBgOMvfSwAmJpy0psKS1OQNtW+vcCp6wZufc2bMTa5Efd89Z9lxxkYLAA94nodlCpHAQC6biKTHkMyMQJd57wBomGgqCque9FNOO+iC2VHOYXtCxTaPgptH4stH8W2j5YXIjzH+cu6qmDE0pBPqBhNaMgnNKzPGMia/XMi+fqbXoaxiQ340v/3ZwiDQHacvscCIIHvu6jW5lGtzQMAUskRpFJ5mEYammaAhYBosCiqiutveSG2XbhLdhS0vRAHKy6ONz0UWj4abjTzkfxQoNTxUeqc+vkRS8OWnIHNWQNbsgYsXe7z1yVXXAPTNPGPn/oTloAzYAHoA+1ODe1ODQCgKCrSqVEkEyMwzTQ3KiLqc6qq4voXv0jq4j5OIHCo4mJ/2cHxhtfTm5NrToBaIcBDBRsKgI1ZAxeNW9iZN2GocsrArkuvwMte8xb886c/jjBkCXg8LAB9RogQzVYZzVYZAKCqGtKpPJLJEZh6EgoLAVHfUDUNz3rJi6Rs5BMK4GDFwYGyi6N195xP6XeDAHC84eF4w8M9RxXsyJt40riFTdneP29ddNmVuPU1b8I//82fQoS8K+t0WAD6XBgGaDSLaDSLAABNM5YKQSIHQ09CUflXSCSDpml41ktvweYd5/f0cUMB7C05+J+5dmSn97vBCwX2lhzsLTkYT2q4cmMKO/O9nQD9pKdcjZeGIb74mU+wBJwGR48BEwQe6o1F1BuLAABV1ZFOjSJh5WAYCWiaCc4hIOouRVHwrFtfjM3nb+/ZYwoB7C0vDfx1Z7AGs1InwL8damAsqeGqjSnsyJs9e5a6+PKnIwh8fOmzf9ajRxwcLAADLgz9U84QAIBppJBK5mBZaeh6Eqqqg6WAKDpXPOu6ng3+QgD7yw7un+ug5gz29ezychHIJzRcty2NLT26NPDkq56J8uI87v3aXT15vEHBAjCEXK8N1zt1t6xkIotkIgfTTEHXErx0QLRK23dfhN1XXdGTx6raAe4+0sRCa7gWE6vYAe7aV8eF4xaeuSWNRA/uHHj2zS9HceEY9v3oe11/rEHBUSAmTl6UCFi62yCVHEHCysA0U9A0E4rCHweiJ5KfnMA1Nz6/J4/1wKKN7xxrw++H2X1dsq/k4GjNxTO2pHHRuNXdB1MUvPTVb8Sn7/gtLB6f6e5jDQg+48eUECFa7Qpa7cqJzymKgoSVgWWlYRop6LoFVTW49THFmwgRCh+aoeJZL7kZutHdp826E+Ib000cb3hdfZx+YfsCdx9p4kDFwfO2Z7t6NsAwLdz2+l/GX/3Bb6DdrHftcQYFCwCdIIT4sTMFAKAqKqwTxSDJYkBDKkQY+PADB57fgeO0YTtNBIEHRVXxqjf+KrKj+a4m2FO0ce9MG94Qv+p/PEdrHj7/cBUv2JHF+nT3hqZcfhyveN1b8Zk/+VDs1whgAaAzCkWIjl1Hxz61MSuKikQiA8tkMaDBIUQIzVBgmDp0U4duqGg0q2jWy2g3G+h02ksz707y3Be/Ett3XdzFTMA3jzbxcNHp2mMMgqYb4p/31nDtljQum0x07XG2nL8Lz3j+i3HPv32ha48xCFgAaNWECNHp1NHpPPZUmgLLTMI0UzB0C7puQdNMqKoOVdEApX/WDqdhJCBEAN3QMLF5EzZs24psPo9EKoVkOoNUOgPdePz70cMwQLvZWH6rw3Md7Lq0e5P+/FDg3w81caTmdu0xBkkogG/PtLDQ8vG87Rl0azHBZ974UhzY8wPMz0535wEGAAsAdYGA47bhuO3TflVVVZhGEqaRgmFY0HQLmmpAU3UoqgbuUk1PbGmAD8MAQegi8F14voMQASY3bcbWnRfivF27sXHLdijquf8sqaqGTG4UmdxoF7KfyvEFvnygPnSz/KNwoOzA9kO8cGe2K0sKq5qGl9z+BvzlR38dgR/P7z8LAPVcGIawnRZsp3Xar2uqBsNMwTSSMHQTmmZB03QoigZV1aBA5VmEoSUgRHhigA9DH0HgwfcduH4HrtuB7z/6SllVNVx02ZW4/NrnYsv5u6Dpg/OU1nRDfGl/HRU73tehn8hs3cNd++q45YJcVzYZWrdhM5598ytw912fi/zYg2Bw/rVQbARhgMBuwH7MZMTH0nUDurZ0iUHXDGi6AU01li41qBoUZeVNARdCkimEECHCMIAQAYLQRxh4CAIfQeDCC1z4ngPPP/vr38lUGk+55jm48rrnITc61sXs3bFyH3zLG6wV/WRYaPn45301vHhXDmkj+uL/tOe8EPsf+j5mDu2L/Nj9jgWABpbve/B9D3CaZ/y9mqZB1xPQNRO6vlISdKiKunxmQV0uCyoURYGiqACUk8pDnAvE0qvypfcrr9AffVsa2EOEIlga1EPvxIAeBNHeyja+fhOuftaNuPTKZ8Iwe7uufFRa3tIrfw7+Z6/cCfDFfXW8/KKRyM8EKIqCm1/5c/jzj7w30uMOAhYAioUgCBAELTg4/WWHM1GgQNV06KoOVTOgqRoUVYemaVBXLk08pjQsvQegKFCWC8SjX1s6Kk75PB7310uWZqaLEzPUxfJkdfGYrz36eQGx/CXx6NeWP7cyeIdi6VT7iVPuob98O5y/PPDLNzaxHs9/2auxc/dlsqOsiRcK/OuBBpp9vIlPv6raAf7lYB0v3ZWDFvGcgPHJDbjiGTfgwfvvjfS4/Y4FgOgsCAgEgbf0itbryI4TG6qq4enPvRnX3XQrdH2wt8IWAvj3Q00U2vGccBaF+aaPfz/cxE07s5Gfk7vuppfh4EMPxOoeZs6kIqK+tHHr+Xjdr0zhObf85MAP/gBwz2wL07zVb80OV13cc3R1Z/KeSDKVxnUvvHVD5AfuYzwDQER9xTBNPOvml+Pq61+wqtv4+tEPF2w8uGjLjjE0HizYWJfSsXtdtPsHXHzFNevu2lPb9ZKLR/ZHeuA+xQJARH1j07YduPVn3ozRsQnZUSJzvOHhv2ajf8Uad/fMtLA+rWMsGd1Ze1VVlSAIfxfAT0R20D42HPWaiAberksux+1vefdQDf5eKPCN6Rbit7J/9/mhwL8fbkS+W6ICvOwLD1Uuj/SgfYoFgIiku+IZN+AVr3vrwN7a93i+c6yNusOFfrql3Alwz0wXzq6EeHv0B+0/LABEJI+i4Lkvvg03/eTPDM31/hVzTQ8/4nX/rnu46OBwNfLJlT/1Dz8sbYn6oP1muP7FEdHA0DQdL331G3HNDbfIjhI5PxT4xhFe9++Vb8+0or4UoOuq8otRHrAfsQAQUc/puoGfesPbcckV18iO0hXfPd5Gjaf+e6bhhvj+fNTrcyhv+MIjhWzEB+0rLABE1HM3/9TrcN6u3bJjdMViy8cDCzz132vfX7Cjnm8xovj666M8YL9hASCinrrmhhfh0iufITtG19wzw1n/MgShwLdnTr8F+WoJgbdEesA+wwJARD1zwcVPwXNuuU12jFNEOVjvKzlYaHGpX1mO1Nyov/+7vvCj6lVRHrCfcCEgIuqJ8fWb8NKfftNJGx31TiAE5ps+jjU8NN0QbW/lTaDjh9BVBUldQdJQkdRVZE0VG7MGNmV0pM5yC1ovFLjvWLSvQOnc/c9cBy+6IMJL94r4XwDuj+6A/YMFgIi6LpFM47bX/xKsRLJnj1m1A0zXXMzUPcw1/SecJe6HAg1XoHHSLn0PFpau448mNGzOGtg2YmBbzsTjbUT3/fkOt/jtA9M1F8W2j3WpiIY3gZ+aEuIdU4oydH+5LABE1HW3vuZNyK9b35PHWmj5+N5cB0ci2ninageo2gEeKtgwNQXnj5rYmTex9aQy0HBD/IAT//rG9+Y7eMGOyM4CbL7iR9XrAXwzqgP2CxYAIuqq3U99OnY86cldf5zZuofvzXdwrOF17THcQGBvycHekgNLU7B91MQFeRMPFx0EES9JS6t3qOKiagcYTUSzT4BQxe0YwgLASYBE1DWGaeF5t76qq49h+wJfOdjAXfvrXR38H8tZLgNfPtDAoehXoqM1EAD2FJ0ID6i84s47RXS7DvUJFgAi6ppn3vhSZEfyXTv+0bqHz+2pdmMpWBpw+8sORHQnZcYTF9eviOxofYIFgIi6YmxiA572nJu6cuwgFLhnpoUv76+jzYl3dBptL8RMPcIzQkI8O7qD9QcWACLqiht/4tXQtOinGXmhwJcONLjRDp3R3nJ0lwEEWACIiM5o16VXdGXinxsIfGl/Hcd7eK2fBtfhqgs3iOw6wHVTQgzVmDlUfxgi6g/PveUnIz+mszz4zze50h6dnSAUUV4GGL18T/UpUR2sH7AAEFGktu64EOPrN0V6TD8UuGtfncvs0jmbjXAegCIwVJcBWACIKFJPvfY5kR/znpkWCm0O/nTuZiO8XCRCPDOyg/UBFgAiikwylcaTnnJ1pMc8WHHxcJT3dFOs1J3glCWe12io9rBmASCiyFx61TOh60Zkx2u6Ib453YzseBRPkV0GUHDBME0EHJo/CBHJF/Xp/68dbsCJbhY3xdR8M7LLANZVP6ptj+pgsrEAEFEktpy/C+sinPx3qOJijjP+KQJlO4jsWCHCiyI7mGQsAES0Zpqu49rn3RLpMe+fa0d6PIqvaoQFAKoyNAWAuwES0Zqs37wNL7n9DZjYuCWyYx6uuih1InzSplhzA4G2FyJlRPCaV4gnrf0g/YEFgIhWRVFVXHvDLbj+ppdB1aLdKO3+uU6kxyOq2EEkBUBAueULD5ZflSvk//65z1UG+hoVLwEQ0Tkbm1iP17z1vXj2i14R+eB/tO79/+3deZRU1Z0H8O999WpfuqpptmZpkEWgaQFxi0tEBaIoNCgwhkSBqIkajY7RjMkkOXgmiTMnk8kkmWROPDGCOpKhDXaDkCOL4JgQNToGWmsLUA4AABa7SURBVKRlERpF9u7qvavqvXvnDyA6itJU3Vevuvv7OadPc4D3u7c5VL1v3XcXHOOaf9JM42OAwVBieXNJcl9NbcO3V+5o7qOrcL4xABDRWTn/0qvxlW/+EwaVjXCk/t5GHu1L+rXpPzVyECB+5LHs92q2NTz2/NaG8bobcBoDABF1iRAC185diC/MvRVen8+xdvY1MQCQfg4uJw1CiDtsQ9TW1Daur6lNTnOqId0YAIjojEzTixsX3YNJl17laDtH2iy06/+kRoSUlZf9JKYCal1NbXL5yq0t/fLRYC4YAIjoMwWCIXzxrocwumKy423x0z85Jb8bSqmbTcPaUb2tcXEeGz1rWQUAQxgvegwP1+gQ9XDReDFuufcfMXj46Ly0V9+k7+AWoo9KWfkdWVJAsRD4bc22xo0125tG5rXxLsoqAKyreWKL1+ffp7szRFQ4SvqX4tZvfBclAwblpb2MVDjO2f/kkLRbW0oLXA0pt1Vva3h40yZVUEvvs34EYBrmFp0dIaLCEY0X44t3fQuxeHHe2jzSZoG7/pNTpLv/uYJCiEdbSpJ/KqS5AVkHAAOeKp0dIaLC4PMHMO+2+xGJxfPa7pE2fvon56gCiJcKuMhjWFsK5ZFA1gHg0knD1ng8JucBEPUgwjBQectd6D9oaN7bPswAQA5yeQTgo0ZAyi3PbW+6yO2OZB0AlixZIn1m4FWdnSEid02bvQAjx03Ia5tH2iys3d2CvUmuACDnqMIJAADQ15By06rahhvc7EROywC9Xu8SXR0hInddcMU0TL58at7aO9xmYc3uZvy+rgn1XP5HDius+z8AIKQgqmveSt7hVgdyCgDrnlu63uv1N+vqDBG545wxFZg6e0Fe2mpNS6zf24qVdU3Yz2V/lCeywIYATvJAqceqtzV+343Gc94IyG8Gf6yjI0TkDn8giBl/9xUIIRxtx5YKbxzswPLtSexuSDnaFtHHFeb9/wQh8Miqbcmv5r1dHUU+f8P8w+lUqmCWNhBR182YvxgTLrnS0Tbqm9L443ttaE5xm19yT9hroCRkom/Ig5KQiZKQiaivYDbEzUDgC5XjE5vy1aCWTQkC3tCXM+n0OlXIEYuIPmHYqHGO3vwVgFcPtOPNQx2OtUHUVW0ZibamNOqbPvw9vynQN2iif8TE0JgP/cMmHB4M+zReofBszfamiyvLi3bno0FtP+ZVMxe82tHZ5vqyBiLqGq/Ph9u/9UPEi/s6Uj9lKazf24L3mvmcn7qPgCkwJOZDWZEXQ2I+BMx8pwFRl0rJS+ZfUNx05r+bG21jHz5vZLZheDi+R9RNXDljrmM3/+MdFp6tS/LmT91Op6WwqyGFDXtbsXRbA9bsbs7zHhVqjM+PFStWKI/TLWkLAC+sfOxgMBheqqseETlnUNkIXHCFM8eWH2y18FxdM5/3U7enFLC/KYOVdU1Ysyt/QUBATPeNTf7U6Xa0zn64YuKIO7ymr01nTSLS76ob5jsy6/9Yu4W1u5uRKaBt14h02N+c3yAggHuraxvnONmG1gCwZMkSGQiEFzu9nIiIsjdkxLkYMuJc7XWTnTae39Xi3qlrRHlwKgi8cqA9H9sL/3T16x+EnCquff3D+ueWVoUDMe4QSFSgLps2S3vNlrTE6l3N6MjzmetEbnnzUAdqdjahNe3c/3kBlCl/6DtO1XdkAeSGVU8+Eg5Gn3aiNhFlr7RsBIaPLtda05IKa3Y1O/pGSFSIDrVaWLEjiX0ObmWtoB5c/XbTKCdqO7YDwsZVT98SCET+7FR9Ijp7l02bqb3mlvfb0djJg0Gpd0pZCn/Y3YJXDrQ71YRfWurnThR2dAukKZNHXe73Bfc52QYRdU3/QUMxctxErTX3JdPYfrRTa02i7ujNQx3Y8r5Dc+CFutaJCYGOBoAlS5ZIESqu8Hn9SSfbIaIz+9w1ek8ebc9IbKpv1VqTqDvbergTr33g2EiA9gmBjm+CvLnqV62RQHSiaXp5+geRS/yBIEaPP19rzRf3taLT4ox/oo9642CHI1tfC6BM+gP36ayZl1MQ1q58vD7ki15pehgCiNwwevz58Jhajv4AcGJzFO7yR3R6rxxoR+0RJx6NiTuXKKXtvp23Y5DW1TzxasgfHeUzg8fz1SYRnTB20sVa673q3DAnUY/wp/facLBVe0geev5bjTN0FcvrOYjrap54z+gfGOz3hd7OZ7tEvVkwFNa69G9PYxrH2vO5NzpR96MAbNrXBkvzbkEK4k5dtfJ+EPLmpUs7X1qzvDwUjK7Kd9tEvdHoiskwPHrOFVEKTk5yIupRmlK2E8sDr1vzdmOZjkJ5DwCnvLjq6cpIKP5DbhtM5KxxGof/dzakkOSaf6Iuqz3SiQ/0PgowMrb4qpZCOopka0PNsu9GQkULPIaH7yhEDgiGoygbOVZbvbpjnMdLdLZ0PwoQULf9+nXlzbWOqwEAANZXL1seDkYv9po+/esmiHq5wcNGQBh6Xuataan7kwxRr9CcsrFN76qA/gP9TTlvDOR6AACAddXL3ghFYoMDwfBf3e4LUU8yYPAwbbV2NvDTP1G2ao90wlb6RgEU1M251iiIAAAAL1Q93rB51TOTopH4PR6PyY8ZRBoMGKIvAOxiACDKWntGYtdxrYcGXZFrgYIJAKesf27ZL73ePqWBQGir230h6u50jQAc77DQ0MGpOkS5+OthrU+6S1bWHstpgk/BBQAA2Lz6sWObVy+fyNEAouyFo0WIxOJaar3fzHX/RLlq7LSxX+PRwaYycxoFKMgAcApHA4iyN2CwlqXCAIDDbczhRDpsPaxvMqASqucGAODD0YBIOPENjgYQdZ3O5/9H2jgCQKTDgdYM0raeyYAqx3kABR8ATtlQvfQXJ0YDwn/h5kFEZ9an70AtddozEi1pqaUWUW+nFHCgRc9nWQGUVdceH5Lt9d0mAACnRgOeuSgciX8uEAjtcbs/RIUsGI5oqXOYn/6JtNIVAAAASmQ9CtCtAsApG1YufWXz6uUjY+HEHJ/ff8Tt/hAVokAwpKUOZ/8T6fW+zqO0hbgk20u7ZQA4ZV310ur/eX5F/2gkfo/X629xuz9EhSQQ0jMCkLI5/E+kU2OnjfaMttdVabYXdusAcMr655b98uW1K2KhUNE/mx4vdyshwoljgHVIWXqPMyUirfMASrK9tkcEgFNerHny2wOjIhYOxp7kAUPUqwmh7RFAStOMZSL6UFNK0wiAYgD4m6qqqvTGVU8tjMQS/cLB6BoGAeqN/P6AtkOAGACI9OvQ9QhAMAB8wgtVjzdsXPX0DcW+klgoWPSfXtPX7nafiPIlqOn5PwCkLM4BINKtXd/rqo9SKqu18aauHhSq1asfawdwN4C7p85edG8m0/mdVLpjgNv9InKSUvpu2qbBfTeIdOvIaBtZM6v/miwCkDzbC3vsCMDpbKhe+ouX1vxuYDQcn+r3h7dxQyHqqdIpfduNhry96m2CKC86NI6sGT4jq8cAvfKVvb562caXnn9mQiLSZ1goEF3rMUzOE6AeJdXJAEBUyLTNAQAgLIsB4GytXfl4/Yurn77eOzAaiYSL/sNr+trc7hORDlLasCw9y4zCDABE2umcWiPgyWrNb4+fA9AVm5cu7QRwL4B7p1YuXGzZ6QfSmc5yKSWfEVC3le7sgBnx5lyHIwBE+oW8+m4vtilas7mOr+yP2VCz7InNzy+v8MUGxsKhon/x+4IfcK4AdUepzg4tdXS+URHRCTqDtQGLAUCnzVW/at1Y8+TDL6353aBIND46GIj9t9f0ZfWPTOSG5mSDljocASDST+/rSmS1FT4fAXTB+t8v3QXgZgCYNnvhdMu2vp/OdF5s2xb//ahgNRw9hLKRY3OuwzkARPrpfF0ZtpFVAOAr+yytr162btPq/7p82iUV/nAkfp/fH9ophMGt0qjgNB49rKVOyGsg6uNbBZFOOkcAwseLsgoAfLinwRfm3VacSae/a1uZOZlMqkwqTh4k940qn4i5t92vpdbL+9vw1lF9SwuJerspZRGMLfHrKHWwsiKR1YmAHMLW4IWqxxsAPADggSmLFgW8SfvrGdu6JZNJl/MxAbml4eghbbXKinwMAEQaRfSNqu3M9kLenDQ7uaTwJye/ML3y1rmWtO/MWOlLMlZaz/msRF3QePwobNuCx5P7y3xQ1IRpCFiST7uIcuUxBAZGNN1+hXon20sZABy2rubJZwE8CwDTZy+cbEn7m5admZrJpPoqxTdTco60bRzc/y4GDx+dcy2PITA45sW+ZFpDz4h6t8FRr74zNpTgCEB3sK562RsAFgDANbNu7w+kHrKkNSeT6RzOTYfICfW76rQEAAAoK2IAINJhWFHuG3SdIpD9CACn9rpk46rfHN646qkHX3p++YhBMTMQDSduDQeja3y+wFGuKiBd6nfv0FarrMinrRZRb1YW1/da8nhEbbbXcgSgAFRVVaUBPHXyC1MWLQqYTVig7Mz8jGVNzlipEj4uoGwc2LcbtmXBY+b+Ug97DQyMeHGwVc8ZA0S9Ud+QqW0PAAXUXz8uUZ/t9QwABejkRMLfnvzCzJlfDbUbnbdIZc+1Lev8jJUqZiCgrrCsDA7U78bQEWO01LuoNIianQwARNkq0zn8r7A5l+sZALqB1asfawfw65NfmDLv7ojXaluYsaybpJ2ZmLHSCQYC+jR73t6qLQCURr0YEvPivWaGAKJsjEhoWfsPABDILQBw4lkPcN11X4qlfZ4vQ9nTLdueaNtWqWVn9MVM6tai8WJ8/Xs/ga5DrY62W3h2R5OWWkS9yYiED9PPiWqrJy0MnzMpsS/b6xkAeqgZN95WlrateUpZUy3brrDsTD9uStR7fenuhzF0pJ5RAABY924L9jRyRQBRVwkB3DwujnjAo6vknsqKxMhcCvCG0EOtXfl4PYB/PfkFALimcvE4oex5trKn2NIaa1mZvlLaXAnSC7z1xhatAeCi0hDeTabBJ09EXTOmj1/nzR9QWJ5rCY4A9HLX3LjoQtjyJlvan5eWPdqS6QRDQc8TCIbwjUd+rmU1wCmb61ux41hKWz2insojBBaMj+vc/heQnjGVE2JZ7wEAMADQaUy7adEoaclpUslLlbLHS1sOse1MkS1tjfGV8m32rXdh7MSLtdXrsCSq3m5CW0Zqq0nUE53XL4DLhmjdCf71yorEhbkWYQCgLpteuXiINNS1yrYuk0qOt6VdZttWnHMLuocBg4dh8QNLtNY80mah+p1m2HwWQHRafo/AF8fHETS1DqzeX1mR+FmuRRgAKGfXzLq9PzzpayFxubTtCltZw2zbKpa27VXgjaGQ3HznQxg+ulxrzbpjKWyqb9Vak6gnEABmjIphaEzroqy0Lc0hN06IHsm1EAMAOWbevHm+pnRkkjLkBVLaFVLKUVKpwUrafW1pRxgQ8q9s5FgsuPsftNd9eX8bjwsm+piLSkOYPDCotaYAfjOrInGHplpE7pgyZYnpKd43Cba8UEBVSClH2UoOUdIusaUdldL2coMj/Rbe9z2Ulo3QWlMqYNXOJhxstbTWJequhsd9uHaEvjX/J0nDY4yZOa5ol45iDABUsD4aEBTUGCg5SEkMUJB9pJJxJWVYKhmQ0jYZFLpu5LiJmHf7/drrdmQkqnZwUiBRPODBTWOK4PNovsUKVFWOT8zXV46oB5g+55Z+CuZYSHuUghgGyKG2kgOVlH2VUgmlZEwqGZRSernMEbj5aw9i+LnjtddNdtpYs7sFzSlbe22i7sDrEbhpTBESOtf8nySkmDxrQvx/tdXTVYiou5iyaFHA1+QZCdgDlZL9FVQJgD5KIaGUKhZAzIaKASqqpApBqZBSKqCg/EpJr1LKVEp6lFSiu85h6NNvAG576AfwePQv4Oi0FP6wpxmH+DiAepmgaeC6kVH0D+t/XQlg9ayKxCzNNYkoW1NmL4r7PBigpOgvpN1XCSMIJf0whF9J+JRAQEjlU4byCyW8SsArlPIrBa8Q8EmlvIDyAcKEgqmE8kHBBOAFlOfEdwgAFpSwIGAJICMELKVEGie/G0JlhDAyCjIthJFRUqWUEBlDICUU0goiDSFSSsk0DHQaSqTn3/3g7H4DB2sbTvwoWyls2teGXQ3cKIh6h0TAg+tHxRDVudnPh1ISonxORXyPzqIMAES91IrtRyJ+6a0DMMipNl77oB1vHOxwqjxRQRgS82L6OVH9z/xPUfhB5XmJ7+ku2+ufhRL1VvPL+7UaCvc42cZFpSFcPSwCgx81qIcq7xvAjJEx527+wH4j3fGoE4X5siTq5Wpqk78C1F1OttGUsvHn99uxN8kTBKln8HsELh4UQnnfgKPtCCHmzhof/70jtZ0oSkTdx6a9ewPNrfHXAFQ43dYHLRlseb8dR9s5QZC6J0MA40oCuLA0hIDp7C1UQP16VkXxnc7VJ6Jeb2XtsbEeeF4HEHK6LQXgneMpvHagnXsGULcytMiLSweHHVnidxp/OpSKX/W1C0TGqQYYAIgIAFBT2/gVAI/nq72MVNh2uBN1x1PcN4AKWp+gic8NDmGI3j39P8v7gPeCyorIYScbYQAgor+prm34sYB4MN/tHu+w8G5jGu8m02joYBgg95WETJwT9+GchC9fn/hPEp1CiM/PGl/0F8dbcroBIuo+lFJi1VtNzwDqZrf60JSy8W5jGnuTaRxrt3nUMOWFANAvbOKchA/nxH2I+fN50/+QElg4e3ziyXy0xQBARP/Piu3KF5DJFxQwxe2+ACd2FmzLSLSl5YnvJ3/dnpGQHw8Hn3hHE5/9x5/5t0//m2f7pnmGLmX1JvzJmmf3c3at5hn+/GMUAFsqyNPktdNGuK7+va5d2uWCftNA2Gsg7DvxPXLye8hruL9cVeHfK89L/H2+mnP7xyWiArTi9YYin1/8UQD6Dwwgok9SeDFVF58+f77I2zMwBgAiOq2VW1v6eQzrBQAT3e4LUQ+31zY9F944NnY8n41yJ0AiOq0bJ0SPSAtXAdjidl+IerCtCvLKfN/8AQYAIvoMcyYlkkaqY5qCWud2X4h6GgGsThmZy2dX9HnPpfaJiD7biu3K51fJp6Ewz+2+EPUIAv/2Znn8oSVCuLYbFgMAEXVZTW3yIUD9CID+A8+JegdLKPH1WefFH3O7IwwARHRWqrc2XCGE+B0ESt3uC1E3kzSkmDtzQnyj2x0BGACIKAsrt7b08whrOQSudrsvRN3EHkPZN8w8r6TO7Y6cwkmARHTWbpwQPfJmRXyaAu4D0OJ2f4gK3Hrb9FxcSDd/gCMARJSjmrqjpUibP4PAXLf7QlRgjgrgm7MqEk+53ZHTYQAgIi2qtzXMEIb4JRSGud0XIpcpAE+kDOOh+eVFDW535tMwABCRNmt3KX+mo/EOCPEwgEFu94co7wReFkJ9Z1Z58R/d7sqZMAAQkXYMAtTbCGCzDTwypyKx2e2+dBUDABE5Zu0u5c90Ni4WELcrYLLb/SHSTEKIF5QtH509ofhltztzthgAiCgvVm0/Xq6kWAglvsQ9BKhbE9gJpZYatnxy5sSSA253J1sMAESUVytWKI9vXPNUKHm9ATFVQY11u09EZybqINQGQ8pnZp7X589u90YHBgAiclVN3dFSkTGvUcBUAJcCGA7A43K3qJdTQL0AXhLABmHbL3bnT/qfhgGAiArK2l3KL9sbR0mPca5UcoyAGKOg+gkYMSgVhUAMQAxAFNzMrFDYANoB4QVUwO3OnEEHTmxedeJLoAUKRwHxjoDaoSB2pIx03fzyfq0u99Nx/wej/Ben4J8FxgAAAABJRU5ErkJggg==;" vertex="1" parent="1">
          <mxGeometry x="440" y="280" width="70" height="70" as="geometry" />
        </mxCell>
        <mxCell id="d-vzbSvFQILC7-2r6cho-8" value="" style="shape=image;verticalLabelPosition=bottom;labelBackgroundColor=default;verticalAlign=top;aspect=fixed;imageAspect=0;image=data:image/png,iVBORw0KGgoAAAANSUhEUgAAAgAAAAIACAYAAAD0eNT6AAAAAXNSR0IArs4c6QAAIABJREFUeJzt3XmQHNdh5/nfy8yqvtENgLgIEMTBGyRImiJFWwdFUZcVttbnSJa9Y9mx453wET43dmd3xx6HIybC3nB4LXtjvd7x2rItW2NZdnjCM7otkSIpiiJFgRdAEiAIEPfddx2Z+faPVw02gG6g+2VVVlbn9xOBwEFWZ3Z2Zr7fuyUAAAAAAAAAAAAAAAAAAAAAAAAAAAAAAAAAAAAAAAAAAAAAAAAAAAAAAAAAAAAAAAAAAAAAAAAAAAAAAAAAAAAAAAAAAAAAAAAAAArEdPsEruaZZ56pfPPl6R+fvDD9kanJ2u3Ts/V1jWba12w0+qwt9rkDAMrBGNlKtVqvVoL64GDfqeGhgb2DIwP/5Z7t9rMPP/xw3O3zW0whC9FP/uXX/82xN8/96qv7j982PT1byHMEAOBqhoYG7C03b9q7ZeN1f/CLP/vu/9Tt87lcoQrXT/7Zo7/+8r7Dv3nw0MlV3T4XAADaZfu2jeO33775t375Zx7+w26fy5xCBIA/+6vHb9174PiXXtx7aKu13T4bAADazxjprju2vXHnrTd88Kc/9vZXu34+3T6BP/6LR3/h8Sf3/uH5C1Nht88FAIBOW7NmJHnHg7f9/C9+4qE/7eZ5dDUA/P6ffOU/fu0bL/67ZrOwYyQAAGi7qBLq4Xfv/oPf+B8f+bVunUPXAsDv/+lX/4+vfm3PbyRJ2q1TAACga8Iw0Psfvvt3f/XnHvlfunH8oBsH/eO/ePQXvvb1Fyj8AQCllSSpvvroC//zH//Foz/XjePn3gLwqX/41i1f+NJ3Xz53bpI+fwBA6a0eG06+/7277vjpj70r14GBubcAvPD84S9T+AMA4Jy/MBW++OrJL+R93FwDwB/+2dd/7cW9h7bmeUwAAIruhZfe2P6Hf/71X8rzmLkGgL373vwt5vkDAHApa6VXXjn6O3keM7cA8Mm//Pq/YYU/AAAWduD146N//KlHfzav4+UWAI4ePtu1uY4AAPSCI0fzKytzCQDPPPNM5bUDJ27N41gAAPSq/QeO3f53f2dzGSifSwB4cs/kv2JXPwAArm5yshacmnnsR/M4Vi4BYHKq9pE8jgMAQK+bmJj5oTyOk0sAmJ6avS2P4wAA0Oump+u5lJm5BICpmcb6PI4DAECvm5ypbcjjOLkEgDiO+/I4DgAAva7ZSPrzOE5OASCJ8jgOAAC9LonjSh7H6cpugAAAoLsIAAAAlBABAACAEiIAAABQQgQAAABKiAAAAEAJEQAAACghAgAAACVEAAAAoIQIAAAAlBABAACAEiIAAABQQgQAAABKiAAAAEAJEQAAACghAgAAACUUdfsEiiJSqrdHB/SOygHtCE9pUA1NqU+HkrV6Kt6pJ5o3K84hL21cPaX33btfd207pfVjU7LW6OzkgPa8vklff367jpxZ1fFzMKHUf2efBnb3K9oSKugzSmetmsdj1V6sq7anLpt0/DQAAB1EAJC0KzqqX+n7sm4Iz13y7+sl7QhO6+HKPh3rG9P/NfuInk1u7Mg5VKNEP/OBZ/WRB/cpDOwl/+36tRO6a9tJffw9e/TF79ykP/1v92u2UenMeeysaPXHVinaEF7y76GkyuZIg2/rV3w60fhnJ1Xb1+jIOQAAOq/0XQDvrbys3xv47BWF/+WuDy7od4b+UT9Q3dP2cxjsa+j3/ocv6Ie/b+8Vhf98QWD1/W97Tb//c1/Q2HCt7ecxcH+frvvFsSsK/8tF60Kt/bdjGnrXQNvPAQCQj1IHgF3RUf16/5cUmnRJ/3+gVL/Q/y96IDrYtnMwxurffewx3bblzJI/s2PjOf37j39NUbC0816K6s6KVn98lUxolvaBQBr7sRH17+pr2zkAAPJT2gAQKNWvLqPwn2Nk9UsDX1HVxG05j4d3H9T9Nx9d9ud2bT2lDz/walvOQYG0+idGll74zzHS2EdHpMoyPwcA6LrSBoDvq+zXluC812fXmUm9r/JyW87jx9/9ovdnP/ruF2TM4l0GSzWwu0/Rer/hIOFYoKEH+jOfAwAgX+UNANGBTJ//3oyfl9zgvu0b/EKIJK1dNaNbN5/NfB79u7M142f9PAAgf6UNADuD05k+vz3j5yVp5yb/wn/OtgwBYk5lc7YZBZVNVx80CAAontIGgGGTbRT9WDCT+RyG+rJPo1s9Mpv5a4QD2frww5HS3kYA0LNK++aeVrZm6xmbvdl7up59Lv9MLfvXSOrZxhGktezjEAAA+SptAHgjWZvp8wfT6zKfw6GTY5m/xusnV2f+GvGxZqbPN4+xLCAA9JrSBoCn4h3ZPt/cmfkcDp8e09EzI96fH5/u197D6zOfx+yL9Uyfr72Q7fMAgPyVNgB8I75Vp1K/wnfC9uvLzV1tOY/PPeH/df7pqdsUJ9l/hLXn6orP+9Xi0+lUM09nH4cAAMhXaQNA04b6o9r7ZLX8AXD/T+09mmrDGABJ+sKzt+ilQ8uvxb9xckyfe+LOtpyDjaXxz0xKHl354/84pXSGMQAA0GtKGwAk6dvxdv1J7T3LCgF/Xf9efbV5R9vOIU2NfudvH9bhU0sfD3Dq/LD+w18/onqjfdPvansbGv/c8kLAxOenNfN0+/ckAAB0XqkDgCT9U+Ne/fbsR3QuHbrq/zdp+/V7sx/SX9e/t+3ncGGqX7/2/36//mXPtcclfOuVG/TLf/phnTg/3PbzmHpsVmf/07iS8asvj5zOWJ37q3FNfn667ecAAMgH2wHLDej7bnOrHqnu1fdVXtOO4IxWm2mN20EdStfoqXinvti4S9O22rFzmJqt6vc++y79wxO79MH7XtPd209o45pJSdLp8SG9eHCDvvzcTXrRo7tgOWov1HXylYYGH+hX/+4+Va+PFKwKlE5ZNU80VXuxrplv1pXOtm8jIgBA/ggALTVV9F8bu/VfG7u7eh77j63R/mNv7+o52IbV9OOzmn6cwX0AsFKVvgsAAIAyIgAAAFBCBAAAAEqIAAAAQAkRAAAAKCECAAAAJUQAAACghAgAAACUEAEAAIASIgAAAFBCBAAAAEqIAAAAQAkRAAAAKCECAAAAJUQAAACghAgAAACUEAEAAIASIgAAAFBCBAAAAEqIAAAAQAkRAAAAKCECAAAAJUQAAACghAgAAACUEAEAAIASIgAAAFBCBAAAAEqIAAAAQAkRAAAAKCECAAAAJUQAAACghAgAAACUEAEAAIASIgAAAFBCBAAAAEooyuMgo6NDjQ31Rh6HAgCgp42ODuVSYJo8DnJ22j4h6fvyOBYAAD3uybVD5h2dPghdAAAAlBABAACAEiIAAABQQgQAAABKiAAAAEAJEQAAACghAgAAACVEAAAAoIQIAAAAlBABAACAEiIAAABQQgQAAABKiAAAAEAJEQAAACghAgAAACVEAAAAoIQIAAAAlBABAACAEiIAAABQQgQAAABKiAAAAEAJEQAAACghAgAAACVEAAAAoIQIAAAAlBABAACAEiIAAABQQgQAAABKiAAAAEAJEQAAACghAgAAACVEAAAAoIQIAAAAlBABAACAEiIAAABQQgQAAABKiAAAAEAJEQAAACghAgAAACVEAAAAoIQIAAAAlBABAACAEiIAAABQQgQAAABKiAAAAEAJEQAAACghAgAAACVEAAAAoIQIAAAAlBABAACAEiIAAABQQgQAAABKiAAAAEAJEQAAACghAgAAACVEAAAAoIQIAAAAlBABAACAEoq6fQIAOutsKk2lVrOp1WQqWUlNKzWtlSRVjFFkpNBIw0YaCIxGAqM1VA+AFY0AAPSghpX2N1Ptb1gdilOdTqUzsdV4Kk2mVjPW/T+NjMepSqoaaTCQRozRaCitC42uC6VtYaCbqkY7K4Gqph3fFYA8EQCAAkusdDa1Op2kOtRM9enJVCdSaaZVk++0hlyQmEqkU7JSLL115FSSZOQCwqZA+qmRQNuiUOsio9WhoY8RKDACAFAQVtKZxOpoM9WR2Op0nOpsapVYqW6lxxvSRNrts7ySlTSdSvtT6fcvpHpnX6p+I0VGWhsaXR8F2hwZbY4CjYU0FQBFQQAAuiSVLhb2R5upjsapagtU64tc+F9u0kqP16V39kn9kk7GVifjRM+1/vugMbq+YrSlEmhbFGh9ZEQkALqDAADkaCa1er2Z6kAz1RuNhQv8+WqSnqhLE3m097fJpJW+0ZDeVZX6LyvdZ6zV/obV/oZLM4PGaGvV6MYo0M5qoJGAOADkhQAAdNjJ2GpfI9HrjVSnkqWX5LGVnmj0VuE/ZyqVnmxID1Xd7ILFzFirfXWrffVUZlraEBndWg11W5XuAqDTCABAB5xJrPbVE+1tpDq3jEJ/jpX0bLMzzf5GUp9xvyTXxVC37R9UOJ5K325Kb69qSc38VtKJ2OpEHOvRGem60OjWaqDb+0KtJQwAbUcAANpkKrV6vp7q5Xqisx6F/nwvN6VjSZtOTG7Fry2RtDGQ1gW6Ytpew0qnU+l4anU0NmpX7jieSHub0h2V5X/2TGJ1ZjbRE7OJNkRGu/tC3dEXXtGtAMAPAQDIwEo61Ey1p57otUaqjOW+JOlwLL0aZ/86kqt574ykm6Mr++PnqxppcyhtDo12RdL+WDqQSLYN388rsTQSSDeE/l/jZGz15TjW12Zi3VQNtKsaakc1YJohkAEBAPAwnVo9V0v0fD3VZNq+xvMLqfTdZnu+1ppAurcirVpmKTlgpLsq0tZQeq4pnW9Dc8BzDWmkXxrLWHuPrbSvnmpfPdVYaHRPf6i7aRUAvBAAgGU4nVh9p5bohXrSltr+fLFcn3k7Wv63hdI9S+x7X8xoID3U57ojsrZIJJKeqUvv6W/fS+dCYvX16VhPzMTa1Rfqbf2MFQCWgwAAXIOV9EYz1bdnE73RTDu2At9LTTd6PotArta/tU1PtpG0q+Ka8L/TyDZQcNK67/Fuj/EAV9O00ndrifbUEu2sBrq/P9TWCp0DwLUQAIBFWEkHGqken4l1st3V/cucSqXXM9ayA0n3V6XrM/S1L2ZrKPVVpW81srVQvB67gYgbOnCOVtL+Rqr9jVQ3VAK9azDUDRFBAFgMAQBYwBvNVI/OxDoRd34SfsNKz2bctSeQ9GC1MwXrnA2h9ECf9K26Ms0S+E5Tel8gVTrYWv9mM9XfjKfaUgn0zoFQN9IiAFyBAADMc7iZ6huziY4081t3d09T11wR8Fru63DhP2dja2DhsxkGKtasG+h4f7V957WYI81Un2mm2hoFemgo1PW0CAAXEQAASecTq8dmY+2r57vg/ulUOpJx1N8dFWlLDoX/nK2RNCM3v9/XkUTamuQTWiTpcJzqr8ZT3VQN9MhgxCqDgAgAKLmalb41G+uZWqIcWvsvYSXtydj0vyWUbu3CU3xb5FYpPJohvLzQlNaH2WYqLNf+RqqDzYbu6Q/1roHo4mqIQBkRAFBKqaQ9tUSPzySaacdqNx4OxG5kvK8hI92bQzP6Yr6nIo1b/5kLk9Zdg5tyfgslVnp2NtG+eqqHBkPd2ReyIyFKiQ4xlM7pxOqvxxv60nTctcK/JmlfhiZ0I9eH3s0EHxnp/kq2l8jeOPv4B1/TqdV/m4r1txPNzEs3A72IAIDSSKz0+EysT403dDzv9v7LvNSQsiz4d3tFWl2Ap3cscOfiK26tDdBNbzZT/fl4Q4/OxLl3AwHdRBcASuHNZqrPT8c6X4Ca3vlUOpyh73zMSLfkOOjvWm4O3aC+cc+ugMOJtDN1YaJbEis9NZtofyPVh4YibWbaIEqAuxwrWmylr0y7Zt4iFP6Sa/b2ZYx0b5/7vSiMke6rZBvMl2VGQTudSaw+PdHUozNx25d6BoqGAIAV60xi9VfjDT1bSzq2fO9ynU+lkxlq/zdH2TfU6YTRwO066OtE2p5Nh9rByrUGfGq8oVOkAKxgBACsOFbSMwV9gWep/fdJuqXAnXa3X2PL4WvJMiiyE04nVn853tBTs8UJkEA7EQCwokynVn830dRXCzig61zG2v+uitTmfXTaKjLZBgQWqRVgTmKlR2di/f1Es2szRoBOIQBgxTjSTPXn4029keMyvsuxL0Ptf8y0b4e/TroxdN0BvrK0kHTS681Uf3GhqWNxMe8twAcBACvCd2uJPjPZ1HRazFpa1tr/HRkH2eXFKFsrwMmkeK0AcyZTq7+daOqZ2YxrNwMFQQBAT0us9PmpWF+cLvao7Vcz1GzXdmj73E7ZFGRbo2B/QVsBJDer5Kszsf55snhdTMByEQDQsyZSN8r/+Xqxa2Qz1vVv+8pSo+6W2zN0VxxNpdmCF64vNRL99URDUwVtcQKWggCAnnQqsfr0eFMni1ztb3kjlnzHj10XSOt68CndELqWCx/WSgcL3Aow52Rs9anxpk7SFIAe1YOvFpTdwWaqvxlvaKIHal+JpIMZGiiKPO3vWm7OcO5vJO7aFd1UavXpiYYONAo6cAG4CgIAesqeeqK/n2iqXvyyX5J0JJYanuc6Ytx2ub1qU+i+Bx91m22r4Tw1rfQPk009V+uREwZaCADoGY/OxPrCVKxeqmtlqv33yMj/q8nSCnCgYAsDXU0q6UvTsb4x0wN9F0ALAQCFl0r64wtNfXOmt2pYZzMsbNNvpC09XPufc0Mk9Xt+9oJ117CXPDGT6I/ON3sqpKK8eriHEWWQSPqV0w19u241HEj3VHpnUNwbGSqD26KVkc4DuQWMfKdBHkr8BxPm7WwqfbcpTaSpXm429Efrq7xgUWg98mihjBJJv9wq/CVpKpUer0tPN6Rad0/tmmJJxzyrgcZI21ZA7X/O9si/K+No7K5lkdWs9GxDeqwuTbR+5s81rH7xVEPNHhmrgnIiAKCQmlb6tycbemaB0X5HE+krs27BmKI2tR5P5L1QzMZAGuj1zv95Bo37nnzEkk4UtOcnkfRaLH2lJh1e4By/27D6+dOEABQXAQCF05T086cbeuEqb86mpBea0pdqbspY0d6xb2YotHaswHbj7Rm+pzcL2ARwNJG+WpNebLp7cTEvNKx+7lSdEIBCIgCgUBJJv3iqqReWOHdu1krPNaRH69LpgjQH1Kx0yvNcBkzvjHFYjvWhf6vGyVSFmfZ5OpW+VnPdUNNLPKe9TekXTjMwEMWzAl816FVW0v90pqE9HouqnG+ND3i0Lh3v8pv2SOK/8t/WsPen/i3EyH1vPqy6vybA2VT6Zt3dYxc8frbPN1L9yulG+08MyIAAgML4D2eberKWrap3LpWe6nIQyNJk7VtI9oIbMnQDLNTHnoezrWD5WD3bfg6S9HTd6rfP9tDiBljxVmBvI3rRJ8eb+uJs+0rsuSCwJnDL6W7MqWY9af1qiJI71+EVHMlHjNsl0GdthPOpmwWSx/WxcoM498ftX4fg87Op1lxo6pfGenCHJ6w4BAB03WcmE/3tVGeq6+dS6amGNGSkmyJXw446mASOZaip3rCCa/9ztob+iyMdS6VbOhgAYisdSt0KhEvt3/fxN9Op1keJPjpcgh84Cm0F1zfQC/bUU/3ReOzdZ75U01ba05S+0Bq53aG8oeOeAcBI2lyC8uD6DC0xvtf2WqZSd098oSY9v4zBfb6slT55IdZ3C76NNVY+WgDQNRcSq8dmYt1TdS/ePHpHm3Jzt1+L3Va7N4bS5khqR9lbs9IFz2BxXSj1rcTRf5fpN25lvzOe3QA1+S8tPF8iN7DwUOx3LllUJO2uSo/PJNoeBRoNS/CDRyERANAVNSt9dqKpmdRqayit63erqeU5le9M6n69ELt197dk2MNecgvW+FYery9RW9zm0K/QtZJOxG6ZZF/nUrdGw5txPoHzcusC6b6qmxI5nVp9brKpnxytliL8oXgIAMidlfT5qabOpW8VlwNGemef9HosvXyNxVXarWHdcV+P3Xnc0AoDo8sslH1XrDNyTeNlcX0oPd/0C0snUmnbMj9zwbptmY8m0kyX1hOoSLqjcuUiT6cTq3+eaupHRiorcvonio0AgNw9OZvo1UXm+u+IXAHxUiwd7sIKcLPWbVzzauxGnF8fuBkEa4Kr913H8l/8Z23gmsbLor81G+Ccx/U6nbhrfbUXl5X72idSNyizU+M9luqGULqzunjXxf5Gqm/NJnpwoEQpEIVAAECu3mimevIae6b3G+m+iuuf39N8a4OVvE2l0qupCwNV44LAxsA141YvK7BPJ65f2cfGEr73N3kGgFjuWm+67Jo1WqsvnkitTiSmEEvvjgbS3ZWldSs9NhNrQ2S0vVKiviB0HQEAuRlPrP7LZLzkJVGvC6T39rla3IvN7jXfSq6AORxLh1t/H2ot2bs+lNYH2RYd2lTCd/7GyLXy+DiRumt/3kqnEjdu5EI616XQ/aaUASPd1gqwSz0bK+mfJ2N9YqyikaD73wPKgQCAXCRW+seppmaXOd9vbnrcxtD10b8au8K426atNJ24jYiyvK6HzMpe/Gcxq4zbJdAn1B2K3a8C3AaXqBq36NQOz1klM9bqnyZj/cSqipgYgDyU8NWDbvjGTKyTvvvjyr1Qb46kD/RJt0adXcxnuaz8C6MNJWz+n+Pb9ZHlendCJHdPvr/P3aNZfqRH41RPzhZw+0OsSLQAoOPebKb6dq09i55UjBtNfUvF1QJfjd2Uwl51eV92mWwMpNe7fRIZVI20M5J2hu6+bJdvzia6sRJoK+MB0GEEAHRUzUr/PLX0fv+liuRevjeGrhn+tR4NAs/WpaFAGm51BQyZ1t9VrFaOLGIrTUmaTl3XyVQqTVn3917Ub1xNf3uojjTVW0mfn471CdYHQIcRANBRX5puaiLtXMkctdb43xFJhxK3jvtkDwWBmqRaKp2VrphG0G9cIOgz7s8Drd/n/7nbW8o05aZO1ub9mm39qlvXx9+LwWwhq4y0s+L2M+h03fxCYvXV6VgfHuYVjc7h7kLHvNxItbeeTzUvkKuRbQ/dNLGDiZs90MtlT20JhadphYCKXJN0JNccPffnQJc2T0eS5gaZzxVicz+h1LppdnOa1v23ZuvPzdZ/b9jWv0kd38Oh2+YGoW4LpXU5d9e8UE90UzXQLVW6AtAZBAB0xKy1+upUdwYzrWu9rGvW7SP/euxqpCuRtVJD7lenN7Epk37javo7Itfa0i1fmo61tVIt1UJRyA8BAB3x1alEM12uHva3pmXdHLp5+gdjN2ecchILMXLrC+yI3ABFU4BCdzq1enQm1geHeFWj/bir0HavN1O91CjOVqfGuOWFrw9d8/Wx1M0g8FmJDivPiJG2Rq7GX8Sa9p5aotv7Am2N6ApAexEA0Faxlb48Xdx5zFXj+nO3hW6A2vHE7Q53njBQKiNG2hJJW4LiL8RkJX1xMtbPjlVZIAhtRQBAWz0+E+tC0huN7INz87gjt9/Am4l0pIs7xqGzhowb0HdDKK0qeKF/uXOp1VO1RO9gwyC0EQEAbXM+sXq2Xpym/+VYFUi7AmlXxQ2mO5G41oEzduWPdF+pjKSx1m6OGwK3A2Ev++ZsrDurgUZpBkCbEADQNv8yEyvDar+FMTSvZaBupZNpa9OZxM3bR3H1y80AWd8q9FfSQjqJlR6bjfWDw91e/QErBQEAbXG4mWp/Y+V1pPe1poNtbbW8TqRu29mTifsd3bc+cHsqrA96r2l/ufbWU93bl2oLywSjDbiLkFkq6SsFHvjXTqsCt/LgXdVunwnm7K66n8lKL/wlNyDwazMJU1nRFiV4ZNBpe2qJTvfIwL92GS/Z91tkF0rWEnMszm+FTaxsBABkkli3e1nZTMivczkybuOfIiwyUxSmdU18Nz+aKGEWe2w2FhkUWTEGAJk8V0s02cHNforqgmfm2RBID1TdzIIZuSmH062d8SZSt5HRjF2ZqxX2Gzf/fm7HwyHjpmKuCqRQ0rcabv+G5RovYWV4PLF6sZHo7j6mBcIfAQDemlb6Zq18tX/Jv9AZadVyjZGG5ArBdZIrAVtSXbqz3tzvdbX+nrrfizLqoqLWLoWBNCD3e79xf+6bt3PhtZobVxnpmMfxx8t5C+rJmUR3VkMWB4I3AgC8faeeaKaEtf9aqzD2MbqETrdArmY8uIQXe2Nuhz5JzdTt0BfL/Z5Yt8Pf/PKxOa91YS7DzJ1SYC59IUTGzaWPWn+uyO0sOPd7JLeyYrss5dospCb3MyniMr6dNJFavVBPdE8/rQDwQwCAl4akp2fKWfXK0uS8qs2FVNVIVUmD0iWtCL0oy7UZT6UyloPfnE10Vx+tAPDDIEB42TPb/d3+usV30Fkk1/eNhQ0F/jWSyXLeippIrZ7v0dU30X28jrBsqaRnStr3L0mTvv3/gTznDpSDkbtGPsoaACTp6VqiEo6DRBsQALBs+xqpJkrY9z/Ht7Apw0I1WY14JiTfULYSXEisXl+Bq3Ci83glYdmemS3K+PPu8C1s2t3/vxL5DgScKHn59+0St8jBHwEAy3I4TnV8Jez446lm3Qh7H76FW5n4tpI05X42ZXW4mepEiZ9L+OGVhGX5dglX/Zsvy6pzvv3bZZKllaTM4wAk6ZmSP5tYPl5JWLLJlL7GKc9vv8+4rWpxdf3Gf22BMo8DkKR9zXKuywF/BAAs2Qv1tPSjjX0DAP3/S+d7raZLXvYlVnqx5AEdy0MAwJJYifnGkqY8P0fz/9L5jgPwDWcryZ5ZtgrG0vFawpIcbKZsgSv/WuYwLQBLNkQLgLdzqdWxmCSEpSEAYEn2MM1IVtKM57t1Kev6w8kSAMgA0vM1AgCWhgCAa5q10oEmL5VZK+8xEL6FWhn5hqVU7mdUdnsbiZpcBywBAQDX9GojEa3/0lSGa0ALwNJl2S+BbgC34+OrTVrscG0EAFzTvjq1f0ma8SxcqsZtp4ulybLNsG8XzUrzCs8sloAAgKuasVaHaf6X5F+40Py/fL7XbKa9p9GzXm+mqtMagmsgAOCqXmXu/0W+LQAEgOXz7TKZ5WaV5NYEOMCaALgGAgAp5XHAAAAfm0lEQVSuai8vkYtqnp+j/3/5fK+Zb0hbiV5pMA4AV0cAwKJqVjpC8/9F3lMAecqWzbsFoL2n0dNeb6bMBsBV8WrCot5o0Pw/n+9uc3QBLJ/vNaML4C2xlQ4R4HEVBAAs6nVeHhfVreTboDrY1jMpB98AkEgMfpvnIM8wroIAgAVZ8fKYz7dp2YguAB8Dgbt2PnxbalYinmFcDa8mLOhUYjXF1qIX+U6r7jM8ZD5CuWvngwDwlvOJ1QVW8cIieDdhQQcZ/X8J3xkA/W09i3LxDQD19p5Gz6MVAIshAGBBLP5zKd9aZR9PmLeq5+fYC+dSBAAshtcTrpBKbCl6mYZvAGAGgLd+WgDa4kjTsksiFkQAwBVOJ5aR1JfxbQHwrcXCfz+AOsXdJWat1XnG82ABBABc4RhNhlfwrVXSAuDPexBgykW/3FGeaSyAAIArHKH5/wq+LSK0APjr8/wcq99d6SgXBQsgAOAKR3hZXMH3kjAI0B+zANrnKKEeC+D1hEvMWKsJ+guv4B0A2nsapeI7BoD8eqWziWV9BFyBAIBLnI55S1wulRR7fpYxAP58w1MsyXIbX8JKOk0rAC5DAMAlThEArtDI8FlaAPxl6T7J8jNbqc6wIiAuQwDAJU7zkriCb5NyKCmiBcBbRf4vKLoBrsSzjcsRAHCJUwnNhJfzLUx8+7DxFu9xAO09jRWBFgBcjgCAi1K5wUK4lG//PwEgO99r6PszW8lOxylLJOESBABcNJ5YMQTgSr6ZKGzvaZRS5Pk5ugCuVLNih09cggCAi8Z5OSzItznZt/DCW3xDVNLWs1g5LvCMYx4CAC4iACzMuwWALoDMCADtNU4XH+YhAOAiXg4L8+1PpgsgO99ZFHRlLWycMb6YhwCAiwgAC/MtTGgByM73BUULwMJ4xjEfAQAXjfNuWJDv5nK0AGTn2wJAObcwAgDmIwDgogleDgvyHRpBAMiOMQDtNcEayZiHAICLZnk5LMi325RVALPz7Uahq3thkwz0xTwEAEhya6czcGphvoUJD1d2vteQLLuwxPKc4y28oyBJmqH5f1G+lSbWAcjOtxXFd9xGGcyQjtBCAIAksVf4VVjjd3F4uLILPe9LbufFzXJx0MI7CpKoFVxNav2qk4wByC70LMpp0FpcjXEAaKGVEpKkl5qpnmYT9QWd9RwEcCCWjjEcPZNZz/B1NhX38yLubKS6sULdDwQAtBxvWh2lsGqrcwxF75qaFffzIo5zXdBCDIQkqUGrIFAKdbr70EIAgCQCAFAWTVqm0EIAgCQCAFAWzPjBHAIAJLmFgACsfM1unwAKgwAASVKTWgFQCjzrmEMAgCQpZekUoBQSnnW0EAAgSYrEqjVAGVQMzzocAgAkSVXuBKAUqpT/aOG1D0lShZcCUAoEAMwhAECSVO32CQDIBc865hAAIEnqo1YAlAItAJhDAIAkqcrAIKAUeNYxh82AIEm6o2r0AG2DC9of+23sc1MkrSFiZ3Iuddd/udYE7vrjSrtoAkALjwgkSZtDo81ht8+imI4l0jmPz60OxDXNyHfjukHDtV/M5pAAAIf6CSRJAwEvhcX4Xhn2XMku8Vyzhhfb4njWMYfnBJJcjQkL860wse16dr7XkDJucQO89dHCrQBJUr8xrAW4CN+HhG3Xs/MOAG09i5XDyD3rgMRzgpbQMD1oMb6XhRaA7GK6ANqqz3Bt8BbuBVw0SLvpgnwfEsYAZOd7DbmVFzbEhcE8BABcNMbLYUHeYwDoAsiMFoD2GuUZxzw8J7holOlBC/J9SJptPYtySj1vyZDwtaAxnnHMQwDARdQOFlbx/Jxv7RVv8b2GEbfyglYRADAPAQAXEQAW5luYeCxgh8v4DqQkACxsjBkAmIcAgItGWTltQb6XhRaA7HzHUbDE6cLo5sN8BABcRP/gwnwLE1oAsvO9hmTZhREAMB8BABcNGsM0oQX4Nic3aQHIzLsFgNv4CiOB0QDXBfMQAHCJ9dQQruA7CLDe1rMop4bn53x/ZivZOp5tXIYAgEvwkrhSxfOSNCzLAWflGwBY1fJK62kWwWUIALjEOl4SV6hm+Gydy+mtKf8A5RvaVrLreLZxGQIALrEu5Ja4XJhh/fQG6wF7a3gW/qEYBLgQnm1cjjsCl1gbGu+lb1cy3yZlxgH48w0A1P6vFBppLQN8cRkCAC4RGQYCLsR7ICBjALz5BoAsXTYr1cYwINjjCgQAXGFLhdviclkGAsKPb+sJLQBX2kL/PxbAmx5X2BxxW1yuz/P9WSMAePO9dr4/q5WMUI+FcFfgCjdQW7hCv+fnaAHw59t90s/tewkj6XqeaSyAAIArDAaGZYEv0+/5pNTaexql4t0C0N7T6HljodEgAwCxAAIAFkQ3wKV8CxVaAPz5BgDfsLZSbeFZxiK4M7Cg7YykuoRvszLTAP35tp4wC+BS2+n/xyK4M7Cg7dVARIC3MAgwf94tANy4FwWStrEuMhZBAMCCBo3RBgYOXeRbqMSWbgAfDeuunQ8CwFs2RYEGDBcECyMAYFE7aDq8qN/Iu0VkmgCwbL7XzIgAMN/2Ks8wFsfdgUXt4OVxUSD/bgACwPLNZFgDgLv2LTsJ8bgK7g4siubDSw14XgrfwqzMfEOT789oJaIbD9dCAMCiAkm30ApwkXcAYEfAZfMNAIOUdxfd2sdAXlwdb3dc1W193CJzfAsXugCWb9ozNNEC8JbbeXZxDdwhuKqtlUCDdANIogsgT77XjADgDAWGxbxwTdwhuKpA0i3UJCRlCwBkgKWz8g8AdAE4t1YDXu64Ju4RXNPtjAOQJA15XoZU0iwJYMlmMwSmIQKAJJ5ZLA13Ca5pSyXQEJuJaDjDJaAbYOl8+/8l/5C2kqwKjDYz/Q9LwF2Cawok3UU3gCL5rwVAAFg67zUA5H5GZXcXo/+xRLzVsSR394W8VOTfxMxMgKXzvVbDvM1kJN3VF3b7NNAjeGSwJGOh0VaaFb27ASZZC2DJfAMA/f9u57/RkAuBpeGNjiW7m5qF9yjzCQLAko17XitmAEi7+3lGsXQEACzZLVXWBBjxfGKmJCVtPZOVKZG7Vj7K3gUwGBjdRCsdloG7BUsWGml3f7lvmRHP/GOtNEUrwDVNWnetfKwqdzbV3X2BaP3HcpT7bY5lu68/LPVLZjjw3xZ4nIGA1+TbVWJU7imAkXHPJrAcJX5k4GM4MLq9Wt4XTSjGAXRSlv7/Mk8B3FUNWasDy0YAwLI9MFDuKYG+3QATtABck29I8v2ZrARG0tsGyhvK4Y8AgGVbFxptK/FgI9+BgL612zLxDUm+P5OVYGc10HVl7peDtxI/NsjigRLXOHwLm5qV6rQCLKpp3TXyUeYAUOZnEdmU+LFBFtsqgW4oaSvAaIbKVpHGASQq1tTELIMkyzoDYEsl0A1s+wtPZR43g4zeMRDqM80ClWg5GQkkY/ymq01IWud53ESuhjzXktCwUlOu5tyUFEtqpK1/k5RYtxPh/EK+eZWd9oykyryCNJSrIYRGqsj9qgbupVFp/b8VSVXj9kjob/3yrY9mmQGwqqRl4Luo/SMDAgC83diqfbwZlysEhHKDznz6qydSLVhCWrltcKetWza4Zt3f661/r7UK/E6yWuQY8/9tCT/qaisIDBi3Qc9A6+8jgVuud8AsPJXSd4zEcIbQ0cu2VQKW50YmBABk8u7BUJ8uUrt2TkYDq4l0+e3O51PpdCJNyy0MNNVaIGjaLqls7QmNVliZWOS/B3JBYDhwhfdwIA1JuuB5AUZLWga+a7CMsQftRABAJlsqgbZXAh0sWVfAqDF60+Nz46n0eKPtp9NTUrkV/ybbNAAhy5iMXrWzGuh6+v6REXcQMntoMCrdugBjPDmFUbYWgEDSuwepuyG7kj066IQNkSndHuSVsiWeAquW7Gexuz/Ueub9ow2IkWiLhwZDvdJIVuw899hK5610KpFOp64vH8Xw9bobU7AukNaH0vpg5Qa0PiO9k5H/aBMCANpiMDB6cCDSozNxt0+lbcZT6UQqHU/cALUVmm1WhGkrTSfSG4mbYTAWSJtCaWOwsroI3jEQseY/2oYAgLa5vz/U8/VE55PeLCqtlU61Cv0TiTTTm99G6Vm5FprzqfSy3LTDuTCwvrWGQy8aC43uZcc/tBEBAG0TGum9g5E+N9ns9qksy/lUejOWjqb+S9GiuGat9HosvS7XNbApkLZG0nUZtnbuhvcPRYp66YRReAQAtNVN1UC39gV6pV7sTvIJKx1LpMOxaz5GOTStdDhxvwaMdH0gbY6ktQXvJrijGmgHi/6gzQgAaLv3D0Y61GgUrjY9ZaUjsXQkcfPQUW6zVjqQuF/DgbQlkG4I3Z+LZMBIjwzxqkb7cVeh7YYCo/cMRfrCVPcHBFpJZ1Jpf9P17QMLmUqlfam0L5bWBNJNkXR9WIwugvcORRpk4B86gACAjtjdF2pfPdUbXVohsGalQ4l0MHY1PVxpbjhZkXYELIJzqfR0w9W8t4XStsjtZdANW6NAu0q2xgbyQwBARxhJHxyK9P+NN9TMsQA+3ZoKdjRZmdP2QrU22WltqlM1b+3MV5UUzfu3qLVJzvzio7LIRjySu17zf1Zz2wXHrd0GG9b9uaG3diCs27d2KKzZlRUmZq20N3atAteH0vZQWpdjWVwx0vcPl2+VTeSHAICOGQuN3jsY6YvTne0KsHIF/qux/45yRVE1blGbkdYGOYPBW9vsDrQK9k4xWmRVvWWUQA0r1fRWIJhJpSlZTaVGU1a5hsF2mbu/jiZuTYFbc+oeeP9QpDFW/EMHEQDQUff0hzoUp9rXgVkBVm4096ux68PtRdtDaW1gNRwYDZveX8Gu2mqJWDX3fYTS/KKyaed2QLQ6mxod7LEmg/FW98BwIN0SSjdEnVlP/ZZqULrltZE/AgA67oNDFR1rNjSRtqf6l8qN5H+l6QqTXrYqkG4o0eTuipFWG2l1YNSM1bN9BlOp9J1UejmWdkbSjqh9L9ORwOhDw7ya0XkFm/CClai/TX2Z1rpBfV+sSc82er/wl8o9M2ElfO81K73UlL5cc4sNZb0ljaQfGI400KvLFaKnEACQi22VQA9kWMb0WCJ9pSF9t1ms1fr6jbQ5lEY839dnEqn7kyXzl1j3vfsYDqQtYfdG5i+kZqU9TekrdTdWwNeDA6G2suAPckI7E3Lz7qFIpxKrg8uYGngmdTWscwWpLVaNW09+beBGhM8V/Ptj6QWPFZATue9xY8ne+adS/9b/G0Ppltaba7IVJE6n7lejy+FwqjVGYHUg3Vlxyw0v1Y2VQO8c5JWM/HC3ITeBpB8cifSp8abGr7FhUM26AvVIAfqIVwVu/fiNoXuxL1Tx3BhIL3h+/ROxtLGa5Qx7T5bm/03zGpJGjDQSSdv11iZAJxLpeCpNdDE0nk+lb9RdS8VdlWu3VqwKjD4yEtEki1wRAJCrAWP03w1X9DcTDcULZADbWp51b7O7TeNrAte0f30oDS6hqXk4cL98ZiMcT6W7VYxV5/Jg5UKPj2GzeHeLkfu5rQmkO+R2czyeuBDZrRakI4kLJLdXpJ3hwjsRhkb64ZGKBun3R84IAMjdpsjokQXWB5hI3eC+C11qxh1tFfo3LLHQv9ymQHrNo6CpWVdAFX1DmnY5k7i1AnxsXMYwkkHjRujvjFwYeLM1lz/vtSJiudasw4n0toprUZrvA0ORNpZoJgiKgwCArrinP9SpxOq5WiIr6UAsvdzMf1ZY1UhbQ+nGaN7cdU+bQuk1z5rt0VhaW5JugGMZCmDfsRKDxi3gc2vkdoI8FLsCOc8xA+Op9LW6dHsk3VxxLRb39YfazXx/dAkBAF3zvqFIJ5NU/3nK6kzOtbJ1gVvj/fqwfVNh1gQuUPgUKsdSaXebzqPIrNyMDh8Vs7xBdYtZZVy//K6KO5c3YjeAMA+ppJdiNwbio8NG72WXP3QRdx+6JpD0w0NV/f10Q3ms3B8aN4J8Z4e2fDVyNdTDHgXcrJXOlqAb4FzqP41z0yJ96L4CuUF6W0I3duNA4jaQusb41PYc20g/NFxl0B+6ivsPXTUcSn+yLtJoB+/EASPtiqQP9Ul3Vzq73/ty+qgvV4QZD532ZoaRnZ2cKjkcuHvjQ33uXhnoYJf8qkD6v9dVrhgLAOSNWxBdtykK9AfrKl4D765mxEhvq1h9sE+6pbLIRjdttiF0u/D5OJK4JuKVKpV01PMbjEw+ayVUjbtXPtjn7h3fBZ4WM2Ck//O6irZEvHrRfdyFKIQ7KoH+49qoLYX0iJHuq0qP9Lt19vOcXRXJzQbw0bDSyRXcCnA8w6C7TYHrwsmLMe7eeaRferBPGmvDsSuSfmdNpDuqvHZRDNyJKIwH+0P9+9Wh98CUESPd3yr4t+awXetitmYYWXNoBQeALM3/Wa5pFkYufLynX3qg6j9TJJT0v68O9c4BRvyjOBgEiEJ5/2CkWWv0u+fjJU8J7DduatWNUTEW01kXuHPyGex2slVLzqO7Ik81+a/+12/cNe0mo7cWhjocu10Al/rzDSX9+mikDw5R+KNYCAAonI8MhTKy+t0LyYKrBc4JjRvRf2vk3+/eCUZuZPl+jxpvKtcKcPMKezIPZ9gpb0sXW3MuZ+SC5ubI7f73alO62hYQoaRfHYv0I8MU/igeugBQSD84FOnXRsNF+31vDKUP9Lu53EUq/OdszfC+P9iGbWWLxMp9T75uKGAYiuQ2JHp/vwsEi/0/vz4a6cco/FFQBAAU1o8MR/rfxsJLCvhVgfRQn/Q9Vam/e6d2TaPBlUu+LtW0zW9hmjycTN1SvD5GTHsG4HVKn5G+pyI93Oc2ipoTSfqNsUg/MkLhj+IiAKDQPjwU6bdWhxpord723qpbca8XZGkFeL2bOyG12Rse2yTPyXIN8zQWSA9Vpd1VN9Xvf10T6oeo+aPgeuRVijJ7/2CkT62vaFelvSvBddqNoesD9nEicS0BvW7K+g/+C7V483oRGSPdEUmfWl/Rhwd76MRRWgQA9IStlUAfW1XVUNA7CaBq3MhxH1Z+gwiLZn/TfzzD5tA1sfeK4cDoJ1ZVtbXCaxW9gTsVPWNjZPTToxVtyHNFmIx2Vvw/ezjOd7e6dqtbv30R5uzsoUr0utDop1ZVtKGII1KBRRAA0FNGAqOPj1W1o0dqWWPGf4OfWNLBHl4Y6PXEf3vntYHrV+8FN1YC/eRoVaM9FEwBiQCAHlSV9KOrKrqnvzcGWe3IUJM9EOuqayEUVVPu3H1luWZ5uqsv1I+PVHqqqwKYQwBATwokfWAo0kODUeFv4s2hW83OR926mnSvORBLTc/g0m/cintFFkh6eCjSh4ejXPcoANqp6O9OYFFG0oMDoT66qqLBAg8ONJK2ZyjQXo2vvtpc0TSsG/zna3tY7BfToDH68VUVPdAjLVDAYor8nAFLsrUS6BOjFV1f4C1Wd0RuNzgfzYwFat72ZwgskYo9+G9DZPSvRyva1iNjUICr4S7GijASGH18VUW7+4pZK6uabDMC9id+mwvlrWbdufq6qSJVCtqYc29/qJ9axWA/rBwEAKwYoZG+fzjSDw1XNFDAd/RNGVoBYiu91AOtAC82pcQzqESSbipgfusz0g+OVPSBoaiQ+04AvggAWHFu7Qv0ibHiLchSUbZWgDcT6XyB9wg4l7pz9FXE2v/mKNAnRqu6o1qsewloB+5qrEirAqOPrarokcFijdLO0gpgJT2fYWW9Tpo7N19Fq/0Hkt4xEOrjoxWNFekGAtqIAIAVy0h620Con1xV1XUFeYlX5Gq6vs6lxZwWeCDO1jpRpNr/utDovx+t6p09MMUUyIL7GyvepsjoE6NVPTRYjD7cnZHUl+HzLzX9t9fthGkr7c1Q++8zrmWk20LjppX+69GqNhbhRgE6jACAUph7uf/saFVbuzxdsCLpjgytAImVvtMoRleAlfRc0y1b7OuODN0i7bKlEuhnChQSgTwQAFAqq0Ojj426Ed2+q/O1w42RtDrD03c6lV4rwG6Br8bS6QxdEmOmu1v+Dhjpg0ORPr6qorUF6SYC8lKAhjcgX0ZuTvdtfaGemI313GyivAfXG0l3V6RH6/41+Zdjt2mO72ZDWZ1Jpb0ZQ8juqrsWeTOS7ugL9d6hUIOGgh/lRAsASmvASO8bjPSzXdpdcHUgbc0w8t1a6duN7iwQVGsd22Y49tawO+Fla8VNE/2B4YjCH6VGAEDprQ3d2u4/PJL/lK9dlWz937NW+mbdf/EdH7GkpzIGj8i47z1PawKjHx2p6CdWVbSe5n6ALgBgzi3VQDdXq3qlnurR2VgXcihV+4x0Z8UNpPN1wUrPNKUHcmhOn2t1yLog0e7If4fE5RoNjR7sD7W7P6TGA8xDAADmMZJu63NBYG8j0ROzSceDwLZIOpVKRzMMpjuWSM80pLdVpE61altJz8ZWJ9JsB9gU5jPwb1VgdH9/qHv6Q0b2AwsgAAALCI10Z1+o26uhvltP9O1aovEOBoG7K9LZRKpl+BpHEldI39+BloBU0tMN6XiS7Sv3Sbq3w03/Y6Er+Hf3UfADV0MAAK4iNNJ9/aG+pz/UgUaqp2YTHY3bP2egz0jfU5WebGT7OkcTqVaXHuiT+ttzampY6elmtul+c+6puu+1EzZERm/rD3VHH039wFIQAIAlMJJuqga6qRroSDPVs/VEr9bTtk4f3BBK20LpjYwF7dlU+npNens121oDklt6+OmGG2yY1Y2RdH2b1/s3knZWA93XH2pbwTZ/AoqOAAAs05ZKoC2VQJODVi/VUz1XSzSRtqd7YHdFupC6gX1ZzFq3xsCOyK20t9ym8FhuyeGDcXtWHBwNpLvb+LYZCozu6gu0uy/Uakb0A14IAICnkcDowYFQbx8IdaiZak8bWgVCIz3YJ329nn1+v5XbpOdoLO2oSNtDqXqNsrJhpddjt+FQvU1DHvolPVhV5l0ZjaQbK4Hu7gt1czUo1C6PQC8iAAAZGUnbKoG2tVoF9jZS7a0nOhH7laADxjXfP16X2rHxX03Sy03plaa0JnBdDcPBW2MEapKmUulk4roP2tmtEUh6e580mKGw3hQZ3V4NdVtfoJGAUh9oFwIA0EYjgdED/aEe6A81kVq9Wk/1SjPVkebyitU1gXRf1fW/t0sit4fA6RzXPb674r6X5bouNLq1GmgXTfxAxxAAgA5ZFRi9bSDU2wZCnU+s9jdSHWymOhynS1q5b3Mo3VaR9mVYJKibbo3cGgdLERppaxRoR8UNtMx7RUagjAgAQA5Wh0b3D4S6fyBUbKVDzVQHmi4QXG2hodtbT2ivhYCbo2tvebw6NNpRCbSjGmhrFDBnH8gZAQDIWWTc1LWdVdc2Pp1aHY+tjsapjsRWJ+JU84cP9FoIuDlyyxvPF0haExptqQTaHBndEAUapZYPdBUBAOiyocDopqrRTa1A0LTS8STVyabV6cTqVJIqNFZG0t6Ch4CbI7fYz9rQaH0YaF1otLFitCmkhg8UDQEAKJhKqz9867ynM5V0IbH60owbVHg8tjqTSOdTqxnbnrn6yzVkpNWB0bpQ2hgZ3RwF+tBwoLHAsBIf0AMIAEAPmGtC/9hIKOnS5fQaVjoSp3qzaXUylU4lqS6k0lRqNZlIM9Zq1hqlkmrWXgwLjdYf5tYGMJL6jSu8B4zVoDEaCaXhwGgskNaHgTYE0g0Voy1RcM01BQAUGwEA6HFVIzeY7mK/e5vX2wWwItFSBwBACREAAAAoIQIAAAAlRAAAAKCECAAAAJQQAQAAgBIiAAAAUEIEAAAASogAAABACREAAAAoIQIAAAAlRAAAAKCECAAAAJQQAQAAgBIiAAAAUEIEAAAASogAAABACREAAAAoIQIAAAAlRAAAAKCECAAAAJQQAQAAgBIiAAAAUEIEAAAASogAAABACREAAAAoIQIAAAAlRAAAAKCECAAAAJQQAQAAgBIiAAAAUEIEAAAASogAAABACREAAAAoIQIAAAAlRAAAAKCECAAAAJQQAQAAgBIiAAAAUEL5BACjWi7HAQCg983kcZBcAoCxmszjOAAArAC5lJl5dQEczuk4AAD0NqtDeRwmrwCwL6fjAADQ04zRK3kcJ5cAkEhP5XEcAAB6nbH6Zi7HyeMg1trg3IxOS1qTx/EAAOhRZ9YMaoMxJu30gfIZBOi+kc/lcSwAAHqVlT6bR+Ev5bkOgNFf5HYsAAB6kDH6y7yOlVsAWDtonpT0eF7HAwCgl1irR9cOmtzGzOW6EqBN9Vt5Hg8AgB5hw1C/mecBcw0A142Yf5HVf87zmAAAFJ01+pvVA+axPI+ZyyyA+cbH7Zo40nOStuZ9bAAACuhIJdG9q1aZM3keNPfNgEZHzTkT6CetVM/72AAAFExNRv8q78Jf6tJugGsGzOPG6KckJd04PgAABZBYo59cO2hyWfjncl3bDnjtoPl7K/2YxE6BAIBysVJdRh+/btD8Q7fOIfcxAJc7N2vfaVN9RtLmbp8LAAA5eFNGH+1WzX9O11oA5qwZMI9XU90rq890+1wAAOgga40+XUl0b7cLf6kALQDznZ60DwdGvy2jd3X7XAAAaBdr9WgY6jfznup3NYUKAHPOztjvldVPy40RWNvt8wEAwMMZK/29MfpUniv8LVUhA8Aca21wYVq7rdH3WqtbZbRV0oikMRX83AEApWElXZA0Ias3jdE+Y/XU2JCez2tjHwAAAAAAAAAAAAAAAAAAAAAAAAAAAAAAAAAAAAAAAAAAAAAAAAAAAAAAAAAAAAAAAAAAAAAAAAAAAAAAAAAAAAAAAAAAAAAAAAAAet7/Dxbuh7S1yMv2AAAAAElFTkSuQmCC;" vertex="1" parent="1">
          <mxGeometry x="610" y="277.63" width="74.75" height="74.75" as="geometry" />
        </mxCell>
        <mxCell id="d-vzbSvFQILC7-2r6cho-14" value="" style="shape=image;verticalLabelPosition=bottom;labelBackgroundColor=default;verticalAlign=top;aspect=fixed;imageAspect=0;image=data:image/png,iVBORw0KGgoAAAANSUhEUgAAAgAAAAIACAYAAAD0eNT6AAAAAXNSR0IArs4c6QAAIABJREFUeJzs3XeAHNWdL/pvVXVX565OEzQKSELICEyUsAgGSSgi0ggbL2nN2uC1ve+t79u9a1+/e+37tGaX5dokjwQKYEQ0RgSDNdIoSwiwRRQoI02WNHl6pnOuen+0BjRBmu6aPh1/n3/WOzNdpzT09PnVOef3+wGEEEIIIYQQQgghhBBCCCGEEEIIIYQQQgghhBBCCCGEEEIIIYQQQgghhBBCCCGEEEIIIYQQQgghhBBCCCGEEEIIIYQQQgghhBBCCBkFl+sbIISQs1m+fDmvM9n/d2dH190dXT3nxaJRjajTxadMnrivfHzlz/+fHz/wfq7vkZBCRQEAISTvLF++nOcNticOHTzy4462Dt1IPyOKWlx11ZUfTJw24Y6ffv/7Xdm+R0IKHQUAhJC88rvfP33PoYNHVzU1tlhT+Xmb3ZaYOfOyP8gR70+XL18us74/QooFBQCEkLywdu0L079saFr/2WdfXCbL6c/jkyZNCFx6ycX//PN//ad1DG6PkKJDAQAhJKfWrNlgPNlx6OWPP95XHQqFx/SZxHMcLrnkosZJUybd+m8/+8nhTN0jIcWIAgBCSM48XrP2Vx9/9Mmv29o7xUxe12g0KJddekltxGn4uyf+9V9Dmbw2IcWCAgBCSNY9/vvVS44eq3/xy6PHy1iOU17misyYceGvf/P//fx3LMchpBBRAEAIyZqaNc+f39rQ/NZnn++/NJFIMBlDo9HCaDRD1OogCBooioKq8eUd37jw/O/904/+/j0mgxJSgCgAIIQwt27dOn1zW+8LH3/02Z0Bf4DJ545GK0Ky2KE3mEb8YNPpdcq3vnXFf/7kwb/7NYvxCSk0FAAQQph65LEV//bF5wcfamvr0LO4Ps8LsJglmC0SuFE+0gRBwPz51956/3131LK4F0IKiSbXN0AIKU5PrHjmxmPH61+u27R9HJsROJhNFlitDvA8n9IrEokE6uub/wCggs09EVI4aAWAEJJRq1atKm9tc6//+ON9c2KxGJMx9DoDJMkJrTb95AFBEDB3wTXn//De7zQyuDVCCgatABBCMmL9+vVCy4meFVt3fviPbnefwGIMQaOFTXLCoDeqvkYikUDAG/ghgF9l7s4IKTwUABBCxuzR3z99/6Yt769oam6xsLg+x/GwmCVYLBI4LrXl/nOJx+JTM3BbhBQ0CgAIIaqtWP2HWS1NJ17duGHrNFlRMn59DoDRZIHVYocgZO7jKhqNVWbsYoQUKAoACCFpe/zx9Y5eb+PLtbVbl4THWL73bERRB5vkgiiO2AxwTBRF0Wb8ooQUGAoACCFpefiRmoc+2Lv5lz29vUw+PwRBA8nqgNFoZnF5QshpFAAQQlLy+O9X3XXw4JHVW7btkFhcn+M4mM0SLGZbyml9aikKZUARQgEAIeScVq9ed8HxppbXN9RuVdWmNxV6vRE2mxMaITsr87KiUABASh4FAISQEQ206X27dvOY2/SejVarg01yQqdjUiTwrBgvMBBSECgAIIQM88ijK36x8/3a33S0dWT+BB4AnudhtdhhNjPZTRidzNEKACl5FAAQQr7y5Iq1i48cOfZiXd32chbX5zjAbJJgtdjB5fAxXIZMAQApeRQAEEKwatW6yc0nT766oXbL1fF4nMkYOp0BdskJjYryvRlHZwAIoQCAkFK2fNcuDb9331N1W3c86PH6mDySazVaSJIT+jGU78200boGElIKKAAgpET99vGn/uXzdX96+NQpVm16eVjMtpTa9I4Fx/NQ0s5OoDMAhFAAQEiJeXLlmtmNDS1/3LhxK5N6+BwAo9ECq+SAwDPpCZQchxdgn3kNoAHcf3s/rdcqoC0AQigAIKRE1Dz3XFl7U/vrtbXbmLXp1en0sEkuVW1602GaMh0Vi6sR8XYh3NnGdCxCihUFAIQUueXLl/NanfXRXXXv/bPb7S7o8r2isxwVC2+H+YIZ8Nbvh1hZgUhne9rXUWgLgBAKAAgpZo/VrP7+/i8Or2xu3sekTS/PcTCbbRlr03s2gsEAx7Xz4Zw9B5wgIHiyCWJFmerrcZQFQAgFAIQUo5pVz17R1NjySu1fNs9g0aYXAAwGMyTJAU0G2/QOw3GQLpmJigW3QTAlVxdiHjcUPQ+cDjjUTOUKRwEAIRQAEFJEnlq/3txxpPHFTRu3V4dCITZterU6SDYndCLb8r2mydNQvqga+oqqr74mx2IIezuhtTu++pqaDAOWqxWEFAoKAAgpEg8/UvPQzjc3/7Knh12bXqvFDqPJwjSLXmu1oWzeUkiXzhr2PV/zYejGVQ7+opoVAIVNUyNCCgkFAIQUuJVrX1i2f9/+Z7ds2+EY/afTx4GD2WyFxWJn2qaX14pwXDsPrmvng9MM/2jyNRwYPvmrRocACaEAgJACVbPm+fNbGpvffPP1t9m26ZVc0IwwIWcKx3GwzLgU5Qtvh9ZqG/Fngu2t0JY5z3YFFaPSGQBCKAAgpMCsX7/e8GX9qee31G270+/zs2nTq9HCZnNBpzOwuPxX9FWTULmoGoaJk8/6MzG/B4pGBjJYVEihLABCKAAgpJD8n8dX/vytDTseai/wNr0asxWuOYthv+Lqc67Gy/EYwu42aB1n393gVKzm0+xPCAUAhBSEJ1c/s7D+aOMLmzZuG8fi+hyXLN8rWR3gGZbv5bVaOK66Hs7rF4IXR49h/M2HIVZmat//a1QIiBAKAAjJay+8sH788aaG1zb8efN1LNv02mxOaDVsy/dapl+MisXLoLWldlbR13AwpclfUZMGmPYrCCk+FAAQkocG2vS+8c6GB70eL5Oj9xqNFpLVDoOBbflefcV4VCyphnHS+Sm/JtjRCo3rbIf+BlPzLE/NgAihAICQvFOz8pmffvLym4+2NJ8wsrg+x3GwmG2wWGyq9s9TJRhMcM1ZBPvM68ClkT6Y8Huh8HHwQorHHFT8EziZtgAIoQCAkDzx5JNrr2psaf7TW29vnKowKN870KZXktju83O8ANus61A2dwkEXXrVAmU5gWDPCWhdLkZ3d3ocKgVMCAUAhOTao2vWuDyd3lfrtm1fEA5HmIwhinrYbdlr06srU3dwL1nsh8k5R0LIEBQAEJIjA216P9ix95/dvaza9AqQrM4stOktO92m9yLV1/A3H1U5+af/MK+oOTlISJGhAICQHHjssafvO3D46FNNzfusLK7/dZtetvv8vN4A53Xz4Zh9A/gxdAUMd5yAxs7kVzEijmPTIZGQQkIBACFZ9MTadZe3Hm/8Y+3mbTNYle81GMywSQ4IWW7Tq1bM70Wci0EjqNyeUFcJmFYASMmjAICQLHjxxS2m4037XtryzpbqUJhNm16tqINdckJk3KbXeN40VC6uhu6MNr1qybKM8JgP/anYAqBSAIRQAEAIaw8/UvPQX+rW/4/urh4ti+sLvACr1ZG1Nr3WS2ZmbFshEx3+1N0KbQEQQgEAIYw8tnL10qOH65/fsm1HGYvrcxxgNkmwWO3gOXZtejmtCOc52vSq5Ws6msH2vunhqBkQIRQAEJJpTz/93NSGlta3Nv5l62WJRILJGHq9EXbJCUHDZFEBwBltehfcBq1kz+i1w91t0NgtGbmWqgP9NP0TQgEAIZmybt06fXOb+5m6rTvu8fr8jMr3irBJTuj1rNv0TkTFomoYJ07J+LXjoQDi8SA0hswEAJyqMwB0CJAQCgAIyYBHHlvxb1t37n2ora2DyQm8r9v0WsHy8TXVNr1qKbKMYGczxExW+lNzmzJtARBCAQAhY/BEzdoFx+sb19Vt2j6BzQgcTCYzJKsTfBr19NMeRRBgm3kdyucuAZ9m+d50+Br2Q8yHSn80/RNCAQAharz44ovlR46fWF+7ccscpm16JSfz8r2W6RejfHE1RFtq3ffU8jcfZTT5UxogIWpQAEBIGtavXy8cbTj59BvvbH/Q0+8p6Da9oqsClYtuh+n8C5mOAwDh7nYItszs+Q9DUzkhqlAAQEiKfvf71T+o3fxeTUtLK5OZmeN4WMwS+za9eiNccxen3aZXrUQoiHg8kLFDf5nAUS8AQigAIGQ0K1asnnW8sfW1jRs2M2nTCwAmowVWq51p+V6O52G7fDbK5i2FYDQxG2cQRUGgox5iWQWzIdTESgq1AyaEAgBCzmblyhec7T3tL9Vu3rkkHI4wmTBEUQdbFsr3mqZcgIpF1dCVZ/cAnvf4fohVbIv9MIrJCCl6FAAQMoKHH6l5aOeed3/Z29vLqE2vBpLVwb5Nr6MsWb73osuYjjOSQMsxiOPYPfkPULNdorDpw0RIQaEAgJAz/O73T99z6ODRVVu27WDSm5bjOJjNEqwWO9s2vaIOjmvmwnnd/DG16VUr7O4EZzUwqSWQEWqqBxFSZCgAIATAcy+vv+jIoS9f21S77Zus2vQmy/e6IGSwnv4wp9v0ls+/FRpzbg7dJaIhxCNeaCxMYqjMoF4AhFAAQErbmjUbjCc7Dr28/k9vVodCYTb7/FodJJsTOsb7/Prx52Hc4mrox5/HdJxzUhQETtZDLC/P3pj5uspASJ6jAICUrMdr1v5q93sbft3W3smk0s7X5XslFpf/isZqQ3mG2/Sq5a3fDzHbHf7UnAFQKGoghAIAUnKeWLH2piNHj73wzjsbmbbptVrsTPPsOa0I51XfhvP6heBFHbNxUhVoPQ6xkv2hv4zg6BQgIRQAkJKxYsUzU9o6u16vrd0yk2n5XpsTWg378r0Vi++A1pbZNr1qRd1d4M263CzHq0gD5GgFgBAKAEjxW3/okHhs0/bVW3fsvp9dm17t6Ta9RhaX/4p+3ARULFoG46TMt+lVKxENIxrqh0Ziu9VxVmq2ABjcBiGFhgIAUtQeeWzlv779f1b856lT7Yza9AqwmCWYLRLTzLKBNr22y2dnpXxvqmRFQeDElxArsrzvfwZVlQBBWQCEUABAitLT6166/ujBL1+q27SNyZF4DoDRaIEkMW7TywuwzWLfplctf/2B7B/6I4RkBAUApKisWrWqvLXNvf6t196ZE4vFmIyR1Ta9i6oh2tm26VUreLIRYiWTc5RpUdPXh84AEEIBACkSy5cv5/VmR83WnR/+xO3uE1iMka3yvTpnOcoX3Q7ztBlMxxmLmMcNGDQAlwfbEaq2AAghFACQgvfYE0/9w/6DR2uam/cxKX33dZteCRzDCU8wGOCasyRrbXrVkqNhRHzd0Nhsub4V1agbICEUAJAC9sTK565saqh/fcPGbcza9BoMZtgkR1ba9Lrm3QQN49WFsZIVBb7WL6GrzJ99f3WL+TT/E0IBACk4jz++3tHrbXx58+YtS8KsyveKOtgkF0TGBXaMUy5AZQ7a9Krlrz8AXZ4d+lMT+3HUC4AQCgBIYXn4kZqHPti7+Zc9Bd+m14WyeTfnpE2vWvly6G8oVe2A6RAAIRQAkMLwaM3quw8fOLxqy7YdTKrNDLTptZhtTNP6eK0Ix7XzctamV62Yxw1FL+THob9MoDMAhFAAQPLb6tXrLjje1PL6xg1bLmPZptdmc0IjaJlcH0gGGNZLZqJi/q0QctSmV61ENIqwpwtaR36UHR6O5nJC1KAAgOSlgTa9b9duZtamV6vVwSY5oWNcYMdQNQkVS5bBkMs2vWPgbz2SV4f+hlHz7qAzAIRQAEDyzyOPrvjFzvdrf9PR1sHkBF7W2vRaJJTfeHNetOlVy1t/ML8nf0BlO2AG90FIgaEAgOSNJ1esXXzk6LEX6+q2l7O4frba9PJaLRxXXZ83bXrVCrY1QVuRn1UIx6pQAzJCMokCAJJzq1atm9x88uSrG2q3XM2yTa9dckKTjfK9S5ZBlBxMx2Et5nEDIse08FGmcCqe5hXaAiCEAgCSO8t37dLwe/c9Vbd1x4Mer4/JTKPVaCFlrU1vNYyTpjIdJxuUWAxhTye0jsIIYlSW9acAgJQ8CgBITvz28af+5fN1f3r41KkORm16eVjMNuZtegWDCa45i/K+fG86fM2Hi77Dn0yHAAihAIBk15Mr18xubGj548aNW5k8Kg+06bVKDgg8k55AyXFOt+ktm7sEQh626VXLW4DtfdUsABRHqEbI2FAAQLKi5rnnytqb2l+vrd3GsE2vHjbJxbxNr2nKdFQsXgZdWQXTcbIt1N4KbZkr17eRNjXtgBWVHQQIKSYUABCmli9fzmt11kd31+35WW+Bt+kVneWoWHg7zBfkb5tetWJ+D2QhDkEovKwFVVM57QAQQgEAYeexmtXf3//F4ZWs2vTyHAez2ZaVNr2Oa+fDOXsOOIHdtkKuyHIcYXdbwRz6ywSZk2kFgJQ8CgBIxtWsevaKpsaWV2r/snkGq8NWBoMZkuSAhmU9fY6DdMlMVCy4DYIpv9v0joWv4SB04wqjG+GI6GmeEFUoACAZs2b9Nqn92Ocvbdq4/ZZQKMSmTe/p8r0i44N3psnTUL6oGvqKKqbj5Jqv4VBhT/6Aqj0ATs3BAUKKDAUAJCMefqTmoa1vvvrLnh52bXqtFjuMJgvTT26t1YayeUshXTqL4Sj5IdRxAlpXvjb4SYOKN4RCaYCEUABAxmbl2heW7f/8wB+2bNvBZCbhwMFstsJitYNnuM8/0KbXde18cJri/7OI+72QuRgEgW3GRL5iWRuCkEJR/J90hImnnn1pWuPxhjfefP1ttm16JRc0DCdkjuNgmXEpyhfeDq3VxmycfCLLCQR7WiG6ynJ9KxmhZjKXKQIghAIAkp7169cbvqw/9fym2s13+n1+Nm16NVrYbC7odAYWl/+KvmoSKhdVwzBxMtNx8o2v4UDh7/ufQU1Vf552AAihAICk7pFHV/zirQ07ftNe6G16zVa45iyG/YqrVSaRFy5f45GimvzVkqkZECEUAJDRPbn6mYX1RxtfqKvbzmjm4GAymSFZHeAZlu8tlja9aoW726BxWHN9GxlHrX0JUYcCAHJWL7ywfvzxpobXNvx583Us2/TabE5oNezb9FYsXgatrXSK3ZwpEfIjIYchaEy5vpXMU7GcTzEDIRQAkBEMtOl9450ND3o9XiZH7zUaLSSrHQYD2wI7+srxqFhcDeOk85mOk88UWUagoxliWXEc+htGxWyuqOwhTEgxoQCADFKz8pmffvLym4+2NJ8wsrg+x3GwmG2wWGxMl26LsU2vWr6G/RBp338QhaNTgIRQAEAAADU1z36rvqnx1bfe3jiVRZGUgTa9ksR2n79Y2/Sq5Ws+WvyTPz3LE6IKBQAl7tE1a1y9J3ve2FC3eU40yqZNryjqYJNcEBkfvEu26a2Grqyw+tmzEuluh8bGpA9TVthFAbNdRkwxawEOaPRFsasjgKg8OEBVk9LPyZQFQAgFACVqoE3vBzv2/rO7182ofK8AyerMQpvestNtei9iOk4hSYQDiMUD0BgKLwDgOWBuhRlzKkzgz5imqwxaTDRp8YfjfYPO/anZzqcNAEIoAChJjz6x6u8PHjyysql5H5OcMJ7jYDJLsFrsTPf5eb0BzuvmwzH7BvAsuwIWGDkhw9/WCF15ea5vJW1ansPfTZbwDevIq0XnmURcKOlwxBMZ0ziKqvJBhBQX+tQsIU+tfeXy+uNH/7hx09YZrMr3Ggxm2CQHBGrTmzP+xv0FWeyH53DOyX/ANIs4KABQd56P1gAIoQCgBLz44hbT8aZ9L214Z0N1KMymTa9W1MEuOSGKbA/eGc+bhsrF1dAVeZtetQItxyBWFuYZiBsrzaNO/gBg0Q4+RKruWZ4WAAihAKDIPfxIzUN/qVv/P7q7erQsri/wAqxWB0wmtnvNpdSmV61wdwd4q7Egq9xUGbS4vjy1IkXxoYcA1fxz6RAgIRQAFKsnnl5z85GDx57fsm2Hi8X1OQ4wmyTmbXo5rQhnCbXpVSseCiIe90FjKMxSv0vGmwcd+DsXTyyRgRFp/ieEPlGLzNNPPze1oaX1rQ1vb7kskcjEB+Vwer0RdskJQcNkUQHAGW16F9wGrWRnNk5RUBQE2xsgFuChPwCYZNJiijn1UtAnAkPTVVVkAdD8TwgFAMVi3bp1+uY29zN1W3fc4/X5GZXvFWGTnNDrWbfpnYiKRdUwTpzCdJxi4anfD924wtz3B4CZztTfTzFZQYMvOviLaiZzRaYQgJQ8CgCKwCOPrfi3rTv3PtTW1sHkBB7PC7BabDCbrWC5dFrKbXrV8rcch66yIte3oRoH4MIUDv4NONgfRkQe+wl+hbYACKEAoJA9UbN2wfH6xnV1m7ZPYDPCQJteJ3iG9fQ5QYBt5nUon7sEPJXvTVnU3Qneqi/oYMmpE2DUpPbeUgC81xUc4TuF++8nJJcoAChAL774YvmR4yfW127cModVm169zgBJckKrZd+mt3xxNUSbk+k4xSYRDSMa8kAjSbm+lTGxiqn3hfikN4Tu8PD3u6rpn5YACKEAoJCsX79eONpw8uk33tn+oKffU9BtekVXBSoW3Q7z+RcyHacYyYoCf+uX0BVovv+ZtCmuXvRHE9jS5hvxe+o6+1IhIEIoACgQv/v96h/Ubn6vpqWllcnMzHE8LGaJfZtevRGuuYupTe8Y+Av80N+Z/PHRK1JGZQWvNPUjkqBJm5BMogAgz61YsXrW8cbW1zZu2MykTS8AmIwWWK12puV7OZ6H7fLZKJu3FIIxtYIvZDh/63GIBXzob6hw4twBQDih4OXGPnSEzr7VpaYbIPUCIIQCgLy1cuULzvae9pdqN+9cEg5HmHxYJdv0si/fa5pyASoWVUNXXnj16VkpF4FJBkDDAy1BoD2F3jYRdzd4s66gD/0Ntbjq7BUk20IxvNHiHXHff5Di+XUQklUUAOQZRVG4R59c9V8797z733t7exm16dVAsjrYt+l1lKFs3lJYL7qM6TiFxCkCi13AFOOZXwT2uIH33Gd/nRwNIxZ0Q2OzMb/HbJlqETFDGpwCmFCARl8Un/eFcLA/jJQy/tQERLSbQAgFAPnk0ZpV9/7gH//b002NLUzquXIcB3M22vSKOjiumQvndfOpTe8ZLjIDt1YAmhF+9dc7gPrAyCsBA4f+CrXJz0h4Dlg6fvjT/ytN/TjuHVur35SoOzlISFGhT+c88NzL6y86cujL1zZu2PpNVm16k+V7XRBY1tM/3aa3fP6t0JjZNgcqNJdYkpP/2WYdDsBFlpEDAH/9AYhFcuhvwNUuIyr0g9+LRz0RdZO/iqd5RV0PYUKKCgUAObRmzQbjyY5DL6//05vVoVCYzT6/VgfJ5oSO8T6/fvx5GLe4Gvrx5zEdpxBN1AM3l4++Ve0cobVC8GQjxMoyJveVKyYNj3mVg7efEoqCzWdJ8xsNZQESog4FADnyeM3aX+1+b8Ov29o7mVTa4XkeVosdZjPbQjEaqw3l85bCeslMptsKhUrLA7dVAEIKv5qhPxP19AIGAWDYbTEXFlWZoR/yj32/K4jeCJvmVSOhdyohFABk3RMr1t505OixF955ZyOTx7qBNr1Wi51pnj2nFeG86ttwXr8QvJh6LfdSc50dsKXYNDFwxvyXiEUR8fVAW0SH/gCgyqDFFY7BzX+8MRl7OgOqr6kmoY/SAAmhACBrVqx4ZkpbZ9frtbVbZrIq36vTGWCzOaHVsCvf+1Wb3vm3QWujNr3nYhSAq9JYgOk4vf0tKwoCLUeK6tAfkHzqXjrBMuzpe0ubD9ExNfhJfy6XaQ+AEAoAWFt/6JB4bNP21Vt37L6fXZte7ek2vcbRf3gM9OMmoGLRMhgnUZveVFxiAcQ0/oufDCf/r7/hQNFN/gBwucOA80yDl0NaAzEc6AuP7cIqtp54mv8JoQCApUceW/mvb/+fFf956lQ7sza9FrMEs0VSVQ0tVQNtem2Xz6byvWm4OM1EiJvLgRc/OwFtRXEd+gMAHc9h4bjBB/8UAJtO+ehZnJAcoQCAgafXvXT90YNfvlS3aRuTI/EcAKPRAqvkgMCn3k0t7XF4AbZZ1KZXDZEHKtM8GlEuAv80azz+1OxBkz/K5sZyZG6lCRbt4ODxk54QTgVjObkfmc4BEkIBQCatWrWqvLXNvf6t196ZE4ux+WDT6QywZatN76JqiHZq06uGU6tuhjFqePzD+XbUtfmwtzuY8fvKBYdOwNVlg7enQgkZ2zv8Gbm+qtUvWnYghAKATFi+fDmvNztqtu788Cdudx+TR/Jsle/VOctRvuh2mKfNYDpOsdOP4V3Ac8DN4y2o0GtQe9KLQm+Cd/N4CzRD9ul3dgQQTKETYCpUnecv8N8pIZlAAcAYPfbEU/+w/+DRmubmfUxK333dplcCxzAfXDAY4JqzhNr0ZkgkA3PbLKcBDp2A15o9GZsss+0bVh2mWwfvhXSG4/iopzhWNwgpZBQAqPTEyueubGqof33Dxm3M2vQaDGbYJEdW2vS65t0EDePVhVLijiUfMse60TzVLOIn0x14pbEfnaN1xcszAsdhyQj1/jef8qXW5CdFqtoBc1QHgBAKANL0+OPrHb3expc3b96yJMyqfK+ogySxL99rnHIBKqlNLxOXWs4++csK8Ld+YJwmhqmW0asE2UUB/zjdgTdbPDjsyUKjnAy5rtwIl27wXsjB/jDqfRk+4KhqC4D2AAihACANDz9S89AHezf/sodhm16rxQ6jaXixlEwSHS6UzbuZ2vQyoueBb5+lRlJjMNn696QvhmBHPW66eBKuLzeNek2R53DXFBve7wpgW5s/77ewzVoeNwz5d8VkBVvaMnPwbzB6mCdEDQoAUvBozeq7Dx84vGrLth1MCutz4GA2W2Gx2MEz3H/ntSIc186jNr2M3eBIlvA/05cBYFMXEDxd7tfXcghi5ThsbfOjMxRH9UQrNPy5JzIOwPXlJthFAW+1ehHL5Dp6hi2pskA3pN7/e10B9EezV+//3ChoIIRmgXNYvXrdBcebWl7fuGHLZSzb9NpsTmiEFAvGq8BxHKyXzETF/FshUJteppwiMHNImBiRgbozJ/+I1SCLAAAgAElEQVSGgxArv952+aIvjL5oAndPtsGsHT0A/KZND6dOgz829efRhPq1SSYtLrUP3r7yxBL4oCt/Dv7JCp0BIIQCgBEMtOl9u3Yzsza9Wq0Im+SCjnGBHUPVJFQsWQYDtenNigWuZBrfmd5zf93oJ9TeCo1reG2F1kAMq4714p4pNow3jh4MjjNo8NPpDrza7EFzHhUN4gAsHT98C6vulH+M9f7PMaaKv1COzgAQQgHAUI88uuIXO9+v/U1HWweTFndZa9NrkVB+483UpjeLJhuAaUPaMfTFgE88yf+d8HshC3EIwshvLW9MxrP1faieaMVl9tEDQ6OGx/3n27DhhA+fuUNjvf2MmOU0DAtgGv1RHOofY71/QkjGUQBw2pMr1i4+fOTYi3V128tZXH+gTS/7fX4tHFddT216s4wDsHCEEv7be4CEAshyAoGeVoiuc9f5j8sK3mzxoDMUx8Iq86g71RqOw7JJVkw0aXNeNMgg8Jg/pN6/rAB1p3xMx1VUBLgKnQEghAKAVavWTW4+efLVDbVbrmbZptcuOaHJRvneJcsgSg6m45DhrpSStfzP1BICjp1uc+9rOADduNTSLRUkD8x1huO48zwJemH0yWqW0wC7mCwaFErkpmjQjZUmmDSDg9sPe4LoCLGtX6BuKpcpAiAlr2QDgOW7dmn4vfueqtu640GP18fkkVyr0ULKWpveahgnTWU6DhmZnk+e/D+TAmBHT/J/+xuPpDz5n+mYN4I1x9y4d6oEl270P9XzLaeLBjX1oyvLRYPK9Rpc5Rpe7393Z4D94Gq2uOgIACGlGQD89vGn/uXzdX96+NSpDkZtenlYzDaYzRLT/XfBYIJrziIq35tj33YAxiFpf597gfYIEO48AY1T/XmPnkgca4/14a7JEqZaRl9Bcui+Lhp0JItFg24ab8HQhYptbf6CLWFMSCkoqQDgyZVrZjc2tPxx48atTB6Vs92mt2zuEgjUpjen7Fpg1pD5PSoDe3qBmN+LOGLQCGPb+gklZLzQ2IcF48wpFQ3S8RzunmLD7o4AdnWwLxr0TZse04YEJ+2hOD7N1sFEFf9ASgIkpEQCgJrnnitrb2p/vbZ2G8M2vXrYJBfzNr2mKdNRsXgZdGUVTMchqVngwrAn3/f7AG8sgVDPCYguV0bGkRVga5sf7kgCt0ywQBhlZYkDMK/SBJdOwJ9PsCsapOU5LK4afPBPAbApw/X+z0nNIUDaAiCkuAOA5cuX81qd9dHddXt+1susTa8Ayepk3qZXdJajYuHtMF9AbXrzxXkGYPqQB/L+GPBRP+CrPwBdVeZ7LHzSG0JXOI67p9hg1oy+7XOJXQ+XXoNXmvrhYVA06PpyE2zi4D+t/X3h7NYmoKd5QlQp2gDgsZrV3z/wxeGVTYza9PIcB7PZlpU2vY5r58M5ew44gd22AkkPB2D+CA/3O3oBT+MRJpP/gNZADKu+dOPeKRKqUiwa9OMLHPhjUz9OBjO3AiZpBXy7fPDBv5isYFs7i3r/GSZTFgAhRRcA1Kx69oqWptbXav+y+QKZYZteSXJAw7KePsdBumQmyhfeRm1689DlVmDckDILJ8PAF01tEOxW5uN7Ywk8k0bRIIuWxwMX2PGXEz7sy9De/E3jLdAOKXu4uzPAZKXh3NTUASCEFE0AsGb9Nqn92Ocvbdq4/ZZQKMSmfK+og93qhMj44J1p8jSUL6qGvqKK6ThEHZEHbhhSzVcBUHciiFg8CI0hO/0W1BQNumOSFZNMWmw46R3THv1Us4iLbYMjoL5oAn/tzn69f8oCJESdoggAHn6k5qGtb776y54eRm16eQFWq4N5m16t1YayeUshXTqL4ShkrL5tB8xD0/48CuqbGiCWMykkeVYDRYO6ThcNGtqBbySznAbYRAGvNfcjrKJ0IM8ln/6H2nTKh3gedygkhAxW0AHAU8+8eMcX+/Y/u2XbjrN0Xx+br9r0Wu3gGe7zD7TpdV07H5ymoP+TFD2bFrjKNvhrURnY+MnhrE/+Z/rSG8Ezx924d6oNdnH0syLTLCJ+Mt2JV5r60Z1m0aDZLiMqDYPfpw2+KI5mse7AmdSU9aVmQIQUaADw1LMvTWs83vDGG+v/zLZNr+SChuGEzHEcLDMuRfnC26G12kZ/Acm5+U5AM2S+2d3UjYgzM+l+Y9EZjmP1MTf+brKEqebR01GdOgE/vsCBN1o8OOpNbfI2CDzmVgxOfUgowEbG9f7PhaMzAISoUlABwJo1G4xdvfXrNtVuvtPv8zNZjddoRNgkB/vyvVWTULG4GsYJk5mOQzJngh64cMh5TE80gb/1RwGWB0LTEIzLeKGhD0uqLLimbPT3sE5IFg3a3u7He12jl+1dVGWGcUj64d+6g2mvImQUl/50rihUCoiQ/PjUSsEjj674xa73a3/TzrxNrxUsE4s1ZivK599CbXoLDAdg0QiN/DY1diGeJ5P/AFlJ7sd3heMpFQ3iueTEXmnQ4O2zFA0yanhc4dBjpsMw6OuBuIx3Owsg7W8Y+tsjJL8+uUbw5OpnFjYcbXqhrm47o8RqDiaTGZLVAZ5h+V5q01vYLh0h7a+lP4gj4fztwfBJbwjd4TjuSrFo0KV2PeyigFeb++GLJbfWdDyH+ePMmOU0DEv5A5LVCdUcJMwoNYE0zf+E5G8A8MIL68cfb2p4bcOfN1/Hsk2vzeaEVsO+TW/F4mXQ2qhNbyESeWDOCN3+6rrCeb+X3JJm0aCJJi1+Ot2JPzb1IyoruO8chwr7oomM1RTIOjoESEj+BQADbXrfeGfDg16Pl8njlUajhWS1w2BgW2BHXzk+uc8/6Xym4xC2rrUDliF/KZ+7QziVwap6LHljCfyhvg93TJKG5e6PxKLl8eA0O+JIrgCcTSAu50UApOYQICEkzwKAmpXP/PSTl998tKX5BJMTeBzHwWK2wWKxUZtekhKrBpg9LO1PwfZCKHd7hqis4LXmfsyrNGNupWnUKVPgOYy2IWbRFvB7Ox8iF0JyLC8CgJqaZ79V39T46ltvb5yqMFiaG2jTK0ls9/mpTW/xme8anvb3XlcA3ljh9blXAOzs8KMzHMcdk6wQz/F0nwptnhxiVfOJoVAEQEhuA4Cnn37F3trW/JcNdZu/HY2yWU4VRR1skgsi44N3yTa91dCVVTIdh2TPeD1w0ZBdIm8sgQ+6sl/uNpMO9YfRG4nj3im2YZ380hGI50cQpGY1T1ZTPYiQIpOzAOCJmtV3vL93zyunTnUweVTOXpvestNtei9iOg7JvkUj1PbZ0uYfMU2u0HSE4lh1zI27JkuYkkLRoJG0h3KY+38mmsoJUSUnAcC//8fjz9Zu3PpAPJ75rmE8x8FklmC12Jnu8/N6A5zXUZveYnWJBagaEpqeCMRwoC+cmxtiIBiX8XxDH26qsuDqFIoGDdXojzK4qyyhLABCsh8A/Pqh3722e/ee77Fo1avXG2G3uSBkoU1vxYLbIJioTW8x0nDA3BG6/W1u8xXdzrF8uoxvZziO2yZaU36YjssKDvXnSzCkJtAvtv+ShKQvqwHAv//Ho8/v3PXe9zJ9XVGrg83mhCiyPXhnPG8aKhdXQ0dteovatfbk6f8z7e8LozVQGGl/anzSG8INFaaUGgkBwL6+cO4LAA3Ik8OIhBSarAUAv31i1U+3bN5+fyavyfMCrBYbzGYpk5cdhtr0lg6LBrh6SNpfTFawrcDS/tLFAZC0qU3+MVnBns7R+wbkM9oBICRLAcDatS9Mr63btjJTFf04DjCbJOZtejmtCCe16S0p85zA0PT297uC8EQzf14ln+gFHqlmBe7s8KO/0H8fFAEQkp0A4PODR7Z6vL6MzNQGgwk2qwOCZvSypmp91aZ3wW3QSnZm45D8UqkDvmkZ/DVvTMb7KXTJK3RROZkZP1oMcMwbwV+78y0NUk07YNo2IIR5APDwb2t+tWXLjvPGeh2O52GzOmEyWUb/4THQV01ExaJqGCdOYToOyT+Ly4ZPJdvafYgWQdrfaBKKgp5wHGX6s38knArG8HqLB/n26+BUtAOm+Z8Q9gEAd/Dg4f93rBfRakW4nOMgMEy305itcM1ZDPsVV9OhohJ0kRmYMOQMaVsohi/c+XLSnb1P3SEsqRo5wP7SG8HrzR5E8m32V4lFxVFCCg3TAOCh/3ryv7Zv3zWmuv6iVgeXq5JZCV9OEGCbeR3K5y4BT+V7S5KGS+79D7XpZPGl/Z3L37qDqNRrcbnj67+DvmgC73YG8FlvKG9/F2qW8ynEJ4RxAFB/vP6nY3m9VivC5RoHnlFDHcv0i1G+uBqibYRPf1IyZtsA25AjJQf6wmgp4rS/kcgK8GarB+92BuDSC/BEE+gMx/NuyX8oNQt2iqJQDEBKHrMA4Le/rZmzaetOq9rX87wAl6OCyeQvuipQseh2mM+/MOPXJoXFJADXSDKAr99ncVnB1iJP+zuXnkgcPZE8KfObEprLCVGDWQDg9nr/91j22ZyO8oyf9Bf0RrjmLqY2veQrcywR6DSDG0W93x0s/DQ3ck50BIAQhgFAe3vHTLWvNZms0OkMGbsXjudhu3w2yuYthWA0Zey6pLCV8TFc7hw8+fvjpZH2RygCIIRJAPC73/3OtHn7XlXl+QRBA0lyZOxeTFOmo2LR7dCVj8vYNUlxWGCLgOMGrzJtbfMjki8lbklqVBwCoCwAQhgFAPG4fqnaqn8Wiy0j1f1ERxnK5i2F9aLLxnwtUnzO87Vi6rRJg77WHorjc3coR3dECCHZxSQAiMrRaWpepxE0MBnHVuiHF3VwXDMXzuvmg2fZFZAUrGhbE26aPXHY1zedKq20v1JGCwCEMAoAEnJivJrXmcxWcGqL8Jxu01s+/1ZozGyrBZLCFfO4ce1kG5y6wW/9g/1hNBdyf/tSx3HpzeqUOEAIowAgLqs4acfBaDCrGo/Xihj/nfthvmCGqteT0qDEYtCEejFn/OAFqoRS/N3+CCFkKCa5cByffnFuvd4AQcWSPcfzmHjPj2jyJ6PyNh3CkhkToBcGP/590BWEO0Jpf4UtzUd62gIghE0AoHDp77DpVab9Ob+9AMZJ56t6LSkdvuMHMHHqRFzpGPw+C8RlvEdpfyWIIgBCmAQAgpL+CoBOTL8Ov9Zmh+v6hWm/jpSWYFsLNOUuLB1vGdbzflu7H2FK+yt46R4dokOAhLBaAVDSC685DtCKYtrjOK+eB45RkyBSHGJ+DxRNAhc5DDjfMvg91hGKYx+l/RUFNQ2BCCl1jLYA0gsAeE5Aunt4nKCBdNlVab2GlJZEIo5QzwmIJjMWjdDmdnObL+8b3ZDUcGkuOlIhIEJYHQJMNwAQ0n+K11WMAy/qRv9BUrL8jQchuspwtcsAl27we+ywJ4IGH6X9EUJKF5MAQE7z59Xk/vO69M8MkNLhqz8E3bhxMAg85lQOzkpNKAq2tvlydGeEBTVbANQSmJQ6NisAMvv1NRWJBkXHIAAT9YAjs00TC16o4wS0ZXYAwIJxJhiEwW/zv3UH0Utpf0Ul3ZmctgAIYVQISOB55n9dpfz3W6EDbnAA0894sG0OAW91AKESn9difi9kLgZBEFGm12Cm0zjo+4G4jHc7Ke2PAEjGDSX8SUJKHaMsADpaxcpsG/CDCYMnfwCYbACWlOXmnvKFLCcQ7jkBwZT85dxUZcGQmj/Y0UFpf0VJxTbi7t27mXz+EVIoGGUBpHskN/0x0jxnWBTmO4EFLgyb1AZcaAKMJZwV6WvYD63LBQCYbtXhAuvgtL+ucByf9lLaX3FKPwAoLy+nAICUNDaFgNIMANQcxSm1LYBv2YCr7ef+GZ4DytIvp1AUfI1HoBtXBSD5e1hcNbyvRN0pSvsrWio+Q0RRpEOApKQx2gJILwBIv24gUEpbd5W65NN/KvQl+EwT7m6DxmH96v+f7TKiXD/4eMtRTwT1lPZHznDy5EkKAEhJY5MFoNAmayYtLcewErZnM9189i2CYhT3+xBPBMFpkhO+QeAxt2Jo2h+whdL+ipqaVGK/31KC4TIhX8uLPwB10UJpxBgzzMC4NOodXWoBfjgRqCqBMgmKLCPY3QKN+esqf/MqTTBqBr+t9/YE0UNpf0VNzadByOzLi88/QnKFzR8Az6dZC0jFn29pzP+YbUv/NeUi8A8TkisHYhF/xHnr90Ms+zr1waXT4FuuwWl/oYSMdzso7a/YcSoOAei02hJaKyNkuPzIAiAjsmuB8Sqf5DkAV1iBn0wCvmEa9ccLjr/pCHRV4wZ9bcl48/C0v/YAQol0a1OSUhBpK8UTM4R8jdEZAPYBQJoNBwvSFOPoPzMaiwb47jjgjkrAVCQpgpHudgh266CvTTWL+IZ18F5JdziOT3qD2bw1UkACWh+tAJCSxiYCzsIDVymsMVRkMKVvhhn48STgkuFN8QpKIhxALB746tAfkDwguXTC8H9YXZsPdBy1RKg4BChqAxQAkJLGJgAQ2Gfpl0It70wX9TEIwG0VwN+PB5wFWC9ATsgItDVAYxk82c9yGlAxJO3vS28Ex72U9lcyVDwRGKK0BUBKG5s/gCxsAZQCcwqdGmQFaA+nd91JBuDBicl+AqmmF+YDf+N+iOUVg76mEzjMqxxc9EdWgK1t/mzeGilA8XiUAgBS0pg0A0o7C0DF03yxRxginzzNP5otPcBnnuQS/5Ky1FcNNBxw/emGQpu6gLbI2O6XtUDLMYiVlcO+Pq/CDPOQtL8Pe4LoCsezdWskD6jJApCkUqqYQchweREBKyr274q9HfAcx7lT+BIKsKErOfkDwBE/sKoF2OdNb5wKHXD/BGCRK39TBiM97eCtxmH7vHZRwOwyw6CvhRIydlO3v5KjqKkFTEiJY7MCkGY3QNowGKxcBGZJZ//+yTCwuRvoHPLUHpaTT/MHfcDN5YBDm9p4PAdcZQMuMAF13UBjHh2cj4eCiMX80Oitw75303gLNEOCgl0dAQTjlPZHRufxxPM05CUkO5gEANlJAyxOHEYu/Xs8ADSFgJMhoH2U5frWEPBMa3KP/2p76n1SbFrg7qrkasLmbiCY6+J5ioJgewPE8vJh35piFjFDGpz21xOJ46OePIpeSNaoWEREIkEBACltbAIAId0AQM10XpwhwOXW4cV/uqPAGx1Iq5NdXAF29gKH/MnVgHTKCc8wJ2sQ7OxJf0shk7zHv4A4pNgPkAxolozQ7W/zKT+l/ZWs9CMAQSikI7CEZF5eVAJUtX9XhGcADAIwd4Suf1u605v8z9QZAZ4/CWzrAWJprIzr+eRKxH3jU99KyCR/y3GI44Yf+gOAmU4DqoyDb6rRF8WX3jw/yUjYUdcOmFYASElj1A6YnsPUuNE5/BT/fi/QEhrbdWUF+KgfWHsCaEpzhfw8A/CjScA1aWwljFXU3QXBoh9xXVfHc7hxhLS/Taeo218pUhIJ9H+8F4lw+sFfNBqhFQBS0vLkDADFC1V64LIh59zCcnIZP1P6Y8Af29SlDN7oBC42Axu7Rj+DMBaJaBjRUB800shdkG6oMMGiHRy3ftwbRCel/ZWcYGMD3Lu3I+bpV/X6hFZLKwCkpLEJANLcAlAVhhfRFgAHYGnZ8N/Drl4gwOAg3hF/8qDgfFd6pYErdMkug596gF3u9LYUUiErCvytX0I3Qr4/kEz7u7ZscIOEcELBTur2V1JifW707tqBUEvjmK5DZwBIqWO0ApDe7Fw8U7k637IlJ9cztUeAfR52YwYSwF86gcM+YEk5IKX4TjgzZXBTd/pbCufir98P3Vn2/QFgUZUZmiGf2bs7/JT2VyIS4TD6934A3xefQZHH/t9cm0jQCgApaXmSBaBCkUQNZiFZke9MCpJpeNn4J9YHgTUtyXtIN2XwngymDPpbj0OsrDjr9yeZtLjYNjg9wh1J4MOeMR6QIHlPkWX4Du1H/wd7kAhl7r93MKGhAICUNCYBgJLIQjOgIokAFpYBuiEfQ594gLY06/uPRex0yuDh0ymDlWmmDE42JLcr1KYMRt3d4E26syZzcwCWjrcMC07q2nyIF9FWEBkudKIFvbu3I9bTk/Frx/kYbQGQksaqFwDzLYBi+MudYgQuGpLOHkgAezJ48C8dHRFg3Ulgti1ZREiT4i/ZICRTBr9hBuq6AE8a5/HkaBjRoBsa28iH/gDgcocB44em/fmjOOqhtL9iFet3o++DPQgc+5LZGDpdGpEuIUWIzQpAmmcAuCJ5mk+HwAGLXcO/vr0nefo/V2QF+FsfcNSfnNQnG0Z/zYDzjcCPzwPecwN7+0YP7AYO/Y3U5GeAlucwf5xp2D3WUdpfUZKjUXg++wj9H+0FEuxKUZaXO3Dlxd+YBeAYs0EIyXNMAgAhzSwANdKMMfLONXbAOaTbX2soWcc/H/TFgFdOJbMEFrqST/mp0J5OGbzInOxLcK6UQX/9gbMW+xlwQ4UJknbw4J+6Q+gIUdpfUVEU+I8egvu93UgE2GV1aDQCvve9W/Gt2ZeB47hXuvv6f8HLiVudTucJZoMSkqfYrACk26pPUbOgX7gBgKQBrh2y4p1Qko148s0BX/Kk/41ppgxWjpIyGDzZCLGy7JzXsGoFXDck7S8iK9jZ4U/9Rkjei7S3oXf3DkQ62piOc+ON12DpLfOh1Xz9scdx3GWyoGnp6et/22mT7uI4Lsr0JgjJI2zOAKQpC72D8sriMmBoCZIP+4GePP3o8Z9OGTziTxYQsqaZMjjtdJfBgZTBqKcXil4AuHMfwl5cZYZ2WNpfAP5MFyAgORH3+dD3wR74jx5iWtdj+vSpuOe+athtwztKAgAHcOC4Zb0eb5/b7fu5w2F5mtnNEJJH2AQAMth/QhdozHChOZlDfyZvHHi/Lzf3k47jgeQ2xRwHMMuW+kFM++mUwQM+YHNbFD5PF7QOxzlfM9GkxSX2wWl/fdEE9nZTt79Cp8Rj8Oz7DJ6P/go5yi7qNZuN+MEPvodp085LtV2gUeblp7r7PL/i5fh3nU7nX5ndHCF5gNEWQJqP9Kom88KLALQcsOAszX4K5aE2IgNbe75OGXSJo79mwCUWYMoUHlsMVfjcPXKe4ySTFt+06XG5Qz8swNh8itL+Cl2wsQG9u7Yi7mXXZpLnedx558245porwako9sdxGKcImg+6+/rf9duk6ikcp67WMCF5jlEp4HSzANJXiPPA9Q5AGtJZryEIHCvASrYnw8AzJ5Ipg3McyayGVJhFDb4zScIlNj3+ctIHTzR50tuqFbBskhXTLCNHFE3+KA5T2l/BinZ2ovfd7QifOsl0nNmzL8d3vrMUOn0akelZcBw3x+Lx9vT2e//gtFl/nIHbIySvUCngLHGJycnyTHElWUWvUA2kDH55OmXwvDRSBqdbdfhvF4rY1RFAsz+K+6baYDxHYbbNbXTwrxAlQiH0f/hXeD//DFDYLXNNnDAeP/jhd+F02TN9aUGB8o+9Hu+diMs/cjptb2Z6AEJyhdEWQHqFgNRIN9Eg15aUJQ/Fnel9d7JDX6Fzx4CXTwFXWJMNhoZWNjwbLc9hUZUZCs69CqQA6KZuf4VFTsC7/3P0ffAe5Ci7lRuj0Yjvf38ZZlx0AbMxAEBRFDsE7o2efs/xKM/dVmW1HmU6ICFZULDtgAtp+r/EMvzpuDcK7C2yncV93uSWxuIyYLpp9J8fMNruAQfAouXhjrArDEMyZ6xtelO1dOk8LFh0PQQ+qyX9LxBl5fDptMG7OY6jfSlSsJj85aRdB6AoCvuOTMcnC+MMtbk7mftfbLxx4PV2YH178n9nilyEv6tiE3O70fHn19H5zhvMJv9wOIhwxItxVTZcdPG0bE/+A5Jpg/1er7u//3/m4gYIyQRGpYCzkdhfGDPCPCdgHvJbPuQDmou8id3xAHDo0GEsuWwyri4zjinEkxUgQC1/85YcjqBv7/sZa9M7klg8ilDIC+/p7IGenh4cOngEy//9lzj//ClMxhwVB1EG9589/Z6fCYr8Pbvdvic3N0KIOkzC52yUAi6E+X+cDrhSGvy1iAzsyFGzn2wKtbciYbdj0ykf/nDcPaY9/M5wHDFaAsg7iizDe+BznHx+Lbz7PmEy+ctyAj5fH3p62r6a/AcEQyE88cQqxOM53xqqSHDcuz19nk+6urrOXduakDzCZguAT7cUsJoP9/yeEDgk98KHPvm+6wZ8RX6eLebthyzEwQnJt1dLIIanj7mxqyMANZ2ij3lpmzXfhFtb0PbK8+jdvgWJEJviTIGAF719HfB4+5BIjBxctLd34MO9HzMZPz0cwGEmr9Od7O33rlEUJSd7E4Skg82bVObSexRIrUpXQblSAsYPLmSHrmiyNn4xk+MxhPvaIBgHnwKMn67hv+pLN/qjqT+xKcBZiwaR7Iv196Fr49tof/NPiPawyWGNRMLo93ahr78HkfDowd8XXxxich+qKMm0wZ5+j7fX630g17dDyLnkRS8AVfI4DdAkAHOHHPxTkOyOV+wr2b6mQ9CNG3fW73eG4zgZjMEmptZe8Igngp5IkS+ZFAAlFkP/px/C89FeKIza9MYTMYSCPni8qR8gNBoN+MaMaUzuZyw4jjMpsvJsb5/nf8Y0/O2VFsvBXN8TIUPlRSVAVa1983gine8C9EPWVj73AqeK/EHWV3/gnJP/AHuKk39CUbCjnQoA5dRAm949u5EIsilZKSsKgkEv/H4P4vHUgj2e43D9nGtx/9/fBckmjf6CHFE4TNUk5P09/Z4dimS9o4zj8qThNyGsAgCeT2sLoJg2ACbqh7fNDSWA3UV+8C/U3gpNmSuln9WlWDd4d0cAXVQAKGcine1w79qBcPspZmOEQn6EIwEEAqkHFxdcMBU//OF9mD49/578z4IDsID3+Hq6PZ6HyyTp33N9Q4QA7AKANEsBqykElH9LADwH3FQ+/Os7eoFgzg8qs5PweyHzMQiCLqWfD8YVYJQfPeqN4N3OAmySUAQSfh/c75Qn8tEAACAASURBVLNt0xuLRhCK+OH1pn4oxuFw4N77vos5N1wHrgDPDSlQRE7B8p5+z894reZ+h8lUm+t7IqWNzRkARnuEZ8pGpYF0zbYBZUN6kJwMA1+wa3yWc7KcQKCnFaKrLOXXNPujmGTSnvX7jb4oXm/25GGIV9yUeByefZ8ybdObkBMIBb3wevshpxhciKKIm29eiO9+txp6fWpBZp5zyLH4hu6+/i94OXGL0+lk2yGJkLNgEgDISDMLQMUmQFZqDaXBqgG+PaQPiVzgzX5S4a8/ALFq9H3/M33YE8K3XEboh2wFKAA+7gmi7pSf2v5mWbCxAe5d2xBL44k8HYoCBINeBINeRNIILmbOuhwPPvB9lJentr1USDiOu0wRNC3d7v43XHbpPo7jiqAzCCkkjLYA2PcCyDcLXYA45ODfxx6gs4hT2P2NR9Ke/AHAG0vg+YY+3DLBgglGLSIJBQ3+KD7oCqA1QJ+B2RTp6oR79w6ET51gNkY4HEQo7Etrn3/KlPPwwAP3YcaMbzC7rzzBczz3vd5+zy3d/f3/vcxmW53rGyKlg1EWAPtugPkUM0w1AheaB3/NHwfec+fmfrIh3HkCGqf609engjGsOZb8BXHIq/+cJUEOh9C3l22b3ng8inAkgP7+vpRfY7GY8d07b8fSmxaCz02d/9zgOCMHrOru8/4vXo7d6XQ69+b6lkjxY9QLIAvrt3myRKzhgJtG2P7e2pMs+1uMYn4v4ohBI4ij/3AK8uO/ZInIQpteWU4gGPTB6+uHnGJ5YI1GwOLF83HXXd+B0WgY8WfiiQTisSjisTgUWYZ8OnDheR48L0Cr1UIjiuAL8IDgAI5TJiiC5m/dff3v+m1S9RSOK7KeoSSfMGoHnG65m8L9g73ODtiGnGdrCgJHijR9XZETCPWcgOgqvj3ZYhdqbUbv7u2I9bLKSVUQCPgRDvsQCqde9OLSSy/GD394LyZOnDDse7KcQMDvRzgcRiKFGgEcx0ErijAYjdDrDQWZLQAAHMfNsXq83T19fWtcdvv/nev7IcUpT1YA1KQB5p5dC1w95OBfQgG29OTmfrLB25BasR+SP+J9bvS8uxOhpgZmY4QjIUQifvh8qde5qaqqxD/cfw9mzrp82PdkWYbf50UwGExrtU9RFEQjEUQjEfgFL8xWKwwGY8qvzycKoAHH/189/Z57BEX7gN1u/HOu74kUFzYBQFbOAOQ+BFhcltwCONNf+4BeNhlUOedvOkKTfwGRwxF4PvkbPJ99DOUszXTGKh6Pnd7nT/3Ai8lkxLJlt+LWWxZBox28fKYoCkKBAPx+34jbB7wgQBRFaDQa8LwABQrkeAKxeAyxaHRQVdFEIgFPXx+CgQCsVglaMTNbVjlgT3Cxt3o93iNaDtVWq/VYrm+IFIe8yAJQNZXnOAC4yAycP+TBoi+WDACKUbi7DYLdmuvbIKn4qnzvLiSCbDr1KYqMYMgPn68//fK9378bkjT8vRSJRODzeBCPD88EEQQBZosVesPZl/XlRAKBgB/BQGBQIBCLRtHb0w2DwQiL1QpeSK0Udb5RFGVGRMHRnr7+t5026S6O44r0UYNkC5sVADmR1uycZyn9oxJ5YMEIW+Bbe4B4gf1bUpEI+RGPB6ExWEb/YZJToROtcO/egWhPF7MxAkEfwmE/QqFQyq+56KIL8cAD92Hy5EnDvpeIx+HzeREe4Xocx8FoMsFssY66n88LAixWCUajCR6vB9Eh5xBCoSDC4RBMZjPMZktBdiHlAA4ct6zX6/N093l/VWa3PpbreyKFi0kAIHBCmu2AWdwFOzc4AMuQ39xRP1BfhJVr5YQMf3sjdOUVub4Vcg5xnw99H+yB/wi7pnPRaASRqB8eT+rFgpxOO+65984Ry/cqioKA3we/3z/iip5Or4dVskFI84ld0GjgcDgRjUTg9XoQj329oqAoCvw+H0KhECynVxQKkqLoOQ6P9vR7fs7LiTsdDsd7ub4lUngKth1wrnoBlInAVUPS32MKsL1Im/34G/ZDp6LYD8mObLTpTSTiCEf88PT3pVy+VyeKqF52M6qrb4Y4wt57KBSEz+uFPMI9a7RaSJIErTi2sr+iTgenqwzBYAB+r3fw+YB4HP19bohBHaySBI3m7KWp81yFzAt7uvs8H8TD/LJx4yxFXnuUZBKTACABpLUCkI2yAZmypCzZ9OdMe9yApwgL2Pma1FX6I1mgKAgcPwb3np2I+9g0m1CgIBjwIRD0Ippm+d4fPXg/ysqcw74Xi0bh9XoQG+F6PM/DZLHAaDJnbFGQ4ziYTGYY9Ab4fF6EhpyJiEYi6O3uht5ggMUqFWzxIY7DdVqj0t7b7/2DQ7L8lOPSLcdOShGTAIBX0t0JT//PPRe7BpdbgUlDVgy7o8BHRViqI9zdDo2N9vzzUbSzAz27tyPSxq5NbzgcRDjsgz+N8r1Tp07GDx+4DzMunD7sewk5Ab93+AQMfL3Pb7JYmRXx4QUBks0Oo8kMn6d/UECjKApCwSAi4XDGA5CsUhRBAf7R7fHd5fZ4/skhSa/k+pZIfmOTBaDRMn+kz/aqgUEA5g1/oMGW7mTTn2ISDwcQj/uhMdCp/3wSD/jh+dsH8B78gl2b3ngMkYg/rfK9VqsF3/nubSOW71WgIOgPwO/zjvg3K+p0sFqlYemArGi1WjhcZQiHQvB5PUicsQUhyzJ8Hg9CwWBGtiByRYFiVRS83Nvn+U1Ew99SZbEcyfU9kfzEqBBQelMip2I/P9uZA/OcgHHIWaT9XqAl9YPQhUFREGhrhK68PNd3Qk5TEjJ8B/bB/cEeKIza9MqyjFDIh36PO+Xg+qvyvXd/B8YRDtNFImF4+/sHTbJfv1YDq1WCqNeP+d7V0BsM0On1Ix5CjMdi6O3pUX0IMV8oHKaKCflQT5+n1mmz3sVxHJucUFKw2AQAafZyzfcH6Cpdcvn/TGEZ2FmEB/+8x7+gQ395JNjYgN7d2xBP4+R9ehQEQwEEQ16EQ+mV733ggb/HhAlVw74Xj8Xg8XgQG6HXAM/zMJktMJpMOS/Ty3EczJZkpcCR0hAj4TB6Ip0ppyHmKQ4cbnV7vH29Hs9/OCXpoVzfEMkfjLoBprs+mf4fVrayADgAN5UPv8NdvUCAzaHrnAm0HIM4rjLXt0EAxNy9cL+7E8HmRmZjRE6X7/WmU753/Dj84P57cOXMy4Z9T5ZlBPw+BP3+Ef86DUZjXh60EzQa2OwORI0ReIcUIkqmKvoRDgZhlqRCLissQsFvevs8P4tzyr0VNtvWXN8TyT02dQCENOsAqJGlZYOrbEDlkK3A9giwj9UDWY6E3Z3grIaCLI5STBLhMPr3fsC4TW8MsVgIve7Um1aYzSZUV9+CW25dDK1m8MeGoigIBgMIeL0jpgmKogiLzT7sdflG1OngLEumDQZ8g0sRJ2QZnr4+hAJBWCQJ2iydWcg0hYOLB7elu6//C8RjS8vKytpyfU8kdxidAUivF0CucvpHYxaA6x2Dv6YA2Nyd/9sW6UiEg4iH+qGRbLm+ldI10Kb3r+9DjqS+FJ8ORZERCvnh8faNuC8/ktHK945UbGeAIAhMm/HEY3FotJn9CPsqbdBgHHE1IxqNoLe7K7maYSnMssIcAHDcZZwotvb0e190SpYfcRxXZOuZJBV5EZKrOtCXhSyABS5AP2S18lMP0Mbm8zk3FAWBU/UQK6jSX66EWpuT5Xt72bSRVAAEVZTv/eY3Z+AHP7wPk8+bOOx78Xgc3hHK7QKnJ1GG5XZ7evvw1hu12LfvIBwOO5bdsRSzZl2a0TF4nofFmlzyH+k8w1dpg3lynkENRYEAKD/o9Xi/1+v1/ovTan0m1/dEsotNAJBIswiFmgiAcRrAJANw8ZA0+EACeLfIDv556NBfzsT73OjdsxPBRnZtepPlewPweFIvVuFyOnD3vd/F3DnfHva9r/b5hzTcGcDyyTgajWHLll2oq9v91YpDd3cv1q55Cbt3nY+/u/t2TJyQ2feyRquF0+UaMaNBlmX4vB6EggFYrBJ0OcpoyACTIitre/o8/0sQNcvsJtO+XN8QyQ5GdQDSqwSoBssFAIEDbiob/vXtPcnT/8Ui0HIMOjr0l3VyJAzPx3vR/9knAOPyvf39fSmn9Q2U711WffOIrXPPVb5XK4qwWKURy/6OlaIo+PTTA3jzjVr09o5cn+DYsQb8x2+ewOyrr8Sd370FFqs5o/eg0+nhKq9AwO9DwOcftG0Zj8fR5+4t+LRBcDhPjic+7e7r3+O1Sbefz3H/P3vvHR7Fea/937NV2r7SSquKUKMaXLAT29imGEy3hE0HFyA+yck5SU7e5PySODntTTnpxyftFycBx10U06tpohqbpgYSAgFCXdv77szOzPvHsjJIq92Z1c5KwvpcF/+wOzPPast8n2+57/us02mE3gyJEgDLDq302RN6wNDrd6zFB9Rxb5Ye8gSs3RCpU0aa/pJJ2Kb3ZCVoHgp7/C7Bwudzw+2xgyS56VMTBIEnnngML7+yEhmGvmpXJEnCZbeBimD7KxKJodYKV+dvbm7FpoqduH79VsznsiyLs59cQE31FcydNxOzZj0FSQIbD3vGBhVKuCPICt8PY4MsyxIEQUzTOpymbrv9t5k63fcHe00jCIcgAQDDewwwHiEgYVIAGgnwZK9eOJoF9t1HFhsM6Qfls400/SURX2sLrJWHQZqEs+n1+73wB1xwu7kHF8XFhVi3djXGjY8g30vTEW90QGi4XKES7kbnsDuxa/fHOHXyM96qn16vD9s+2ovTpz/DsmXPY9KkcQldm/iOrHCqQtknMAqPDfq8Pqg1GqQqhufYIACpCMT3LHbnayyLdQa9ZudgL2iExCNMBoBIQglAoPPOzQCkvRr/PrUDZmEE2JIOw7Jw3b4KedZI6j8Z9Nj0NlwWTr6XCtX57XbudX69Xofly1/As7Om9dHf52LTq9bqIBEg1R0MBnH8+CfYueMg/P6+QkJ86Oo04fe/24DJD07AiuVlMGSkxT6IBzKZDOmZxlBpxOG4Z2yQYWg47DZ47/QHCFEaSQYs2DQQ2GG2OeskBFOm0+mEE6YYIekIEgBIuXqG3mGoJMrGKoFS5b3/5wwCp7nLog953NdqIM8ZufkLDRukYD//KRznPgUbIXWeCBiGgd/vgs3OXb5XKpHguTkz+5XvjaSRHyZRNr39UVNzBRUVO2E2WRN73uoruHK5EdOmPY7ny+ciNSWx609NVUAuT4nYHEmRJKxm07AeGwQAEOwDFIjrZpt9R7pOu4IgiPtkS/TFRhgdABFfHYB4LpLY3ZSUCI399eagCSDvk8Y/b+sNyLJHNP4FJWzTe/Iogk6BbHpZwOt1wuNzggzws+ldv+4lGI19O1wpkoTL6Yho+yuETW9vTp8+j7f/vkmgs4cyC0eOnEJHRzf+5duvJfz8PWODCiVcTgcCvcYjfV4v/D6foOORQkMABAhiscXusJsdjn81aLV/HOw1jTAwBAkAqGRb9SWAp9IAXS9xryYv0ChMr1bSIW2mkKUhMbRkWO8nAt1dsB47DH97q3DXCPgQoLxw8vAGyM3Nwdq1q/Dww31n5RmGhmsQbXrDmM0mZBq1cLtJeD0COGwRBApGZcNk7kz8ue9CIpFAn5YecWyQZVm4XS74fD5ohvPYIEGkgsUfTDbHD0VMcEl6evqZwV7SCPEhSAAg4pkBiIsExhhpUuDLvfrhgmxI8e9+gCH9ID1WSHQjTX9CQHvcsCfBppcMeGCzc0+Pq1RKLF1WjnlzZ/UZTQvL97qdUWx6tVpIJMmRvFUqU1Ff34iUFDkmThyP1tZuBKnEjEhmZKbB43Hh4qVLKBjVV9RICMJjg5H+xvSdscFk/40TDUEgmxVLTptsjtOUmCjP0WiEUbIaQTAECQAkoIdV0nxeZmj2/25OWQE7tymqIc1I059whG16badPgongfJcIGIaBP+CG02FDkKNmgFgsxsyZT2PVqqXQaNR9Hg8E/HDZ7RHPJ75j05vs3en0aVNhsdiwc8deXLhQBUNGOkYV5OF2c/w7drVKCYVShvqGBrAsi0emPIh1a1cncNXR+VxWODViloUMBGAxmZKWZREKgsBUGcN2WuzODWla9dcIItlm7SPEizBjgEnIACTqAg+ogdG9eqGsFHCWe0P1kMZ9vWZE7EcAvDeaYK08DIqHwh4fWAA+nxt+nwteHvK9kyZNwNp1qyPudIMUBafDAXII2vRKpFIsX74Ys2dPw3vvb8GJ42dgNllQVFwIsUgGq4X731kqkyA3NxNXrtTDd9uP7OwsrH11FaY8+pCAr6B/RKLQ2KBCoYTT6QB1V5/F52ODXsH7LARGzIL9B4vDuazbYn8tM123dbAXNEJshCkB8DQDAkI/eHw++EQCQgC5CJjZV/cE+7tDs//DHW/rDciyRpr+Eglls8Jy7Ah8zcJNQ5GkH37SDaeDexNhVrYRq1ctxZNPfqnPY5xsegXqUPf5/Ni75wjOnr2AtDQdysrnYOLEsf0+Py0tDd/8xlcxb+5sbNz4Hhobr0MsFmPc2FLYbG4EAtHTcjm5RnR0tOHChUtQKhVYs2Y5Fi18DhIO7n0OuxPHjp1GIEBh+ownIjZLDgSpTIZ0Q0ZERUWGYeByOODzeqHRaiETaNIiCehEYmKL2e64BhHxvEGjaRjsBY3QP4IEm79448+z9+3ez8tvOi+3iNc1RFIpxn7/F7yO6c2cDOBR7b3/d9kF7Oga0GmHBJTdCjLogni4NhoNMcI2va7qi2AZYSpcNE2DpDywWi3c5XvlcpSXz48o39tj09vL2jaMTCaDWqsTxNqWZVmcPXsRH23dC6fzXgnN8eNLsWJFGbJzohtQsSyL4ydO4513NsFhd0ClVKCktARtraY+ryfTmA6aJtHYeP1zB8OXVkCr0/Zz9s+haRqVlWfu0R4Qi8WYPv0JPF82B6mpif8OxdJaSElNhVqjHb6ywiFYsNiTrtMsJwhCgM7OEQaKIAHAf//Pn2Yd2HPwEJ9j+AYAhESCcT/4Ja9j7iZLDqzLv/cPQDLAn28DLmHGtpMGTZLwdjVBqk+s8MkXEZZh4LpcA/vpE6B5pOL5wLAsfD4X3G47KIrbh48gCDwz7Um8vGY5dPq+zZ1kIACnw4FgMPk2vTdvtmBTxU7cuNHc73N6brAc5vK9Xh+2bNmB/fsOgQoGkZeXC61ai84uC1QaJbQaBerqroBhGEyYMA7r1q1GYWEBp7XW1FzBpopdMJkiu3ypVAosWDgLM2ZMhUiU+Aka+o6rYu+xQUB4V8UkQjIEfpyp1f5ksBcywr0IkwH43z88u2/XocN8jsnLLeS1HEIswbjX4wsACACv5AG5vQL7Q2bgs/ug9u+4VgV59ojD30DxtTTDUnkYlFm45mafz40A6eEl31tSUoR169Zg7NiSPo8N5g3Fbndg27b9+PTsRc4ZDK1Og+cXPYennv5SzN6D9vZOvPX3D3DxQlXoWK0WbrcbNE0jw5COl15ZiakRSiCR6OzoxpYtu1Fbyy1DPWpULpavLENpSSGn5/OFDATgdDp6XA7vRuiALYl0icWi5Xq1+vhgL2SEEIIEAL/5zR9n7Nr38VE+x+TmFPH6TSLEYox7/Ve81pUuAx7TAmOUgLpX90M3CWxoAZhhXvt3XK+FfKTuPyAouxW20yfgabwq3DXIAAIUP/neNL0ey5YvjijfG67zezyepKeUSZLC0aOnsXfPIQR4CBPdTUFBHpavKENJyeiYz62tvYKNG97D7ZZWyGUyzF8wG0uWlCOFg8Kfx+vDnl0fo7LyDGiew0oEQWDKlEl4cclCpKfreR3LhZ6SjdOJSGKqMpkMap0O0mE6NhiCBVjiAhskF2VkZHQM9mq+6AgSAPzud3+Z9tHOvZV8jhEyABATwDNpIZe/SJdgAbzdCrT13TQNK7ytNyHSyAHRsK4bDhosRcF+4VPYPzsrnE0vQ4MMeGC1WcGy3G5AYfnelSuXRKxHR7XplUqh1uoE06KvqbmCig92wNyPTS8fwjfYJUsXIS0tumYFTdNoaWlDRoYBSmXsnTFNMzhz+hy27zgAt8s9oHXKZFLMmTsd8+bO4NRcyJdoTZsEQfQEc0KUJJIFQYBmWeKddK36NYIghPmyjRCTIWEHDAAgeM4BcNypS0XAkiygKMpvRLNv+N/8KacVrJwYufnHQ1JsegGfzwWPx4kAD82AKY8+hPXrX4Ixs29HOkneqfNHSBuLRGJB3ehu325DRcUuXL+WuGkIlmVx/nwNamoaMGfutKg3WLFYjNGjR3E6b0PDdWyu2IXWtsRsOEmSwu5dh3D65GcoWzwPTzwxJSHnDROWFU5JVcDlsN8jz8yyLHxeLwJ+/7AeG2RZiAF2rcXuWGZxOr+VrtFsGOw1fRERJAAgmTgS6XznADlEAASAF2Pc/AHAPcyb/liKgt/eBWnaSNMfXwKdHbAcO4xAZ7tw1wj4QFIeOHiM9eXl5WDt2tV46KFJfR6LatN7R75XSD/62tp6/OH3b/G26eUKSZLYvesQrjbewHe/87W4z9PdZcaWLXtQXX05gav7HKvNgbc2VuDTsxfw9X96NeFZFqlUijRDRkSDprvHBtUaLeTyYTo2SBBKlmH/ZrE5XqckorIstbpusJf0RUKgDEA8SoC8I4CYTE8HijlsgFKG+abZefMy5DkjTX98SIZNbzBI3Rnr4y7fq1YpsWRZOebPm90nxcvFplej1Qk+OtbZ2YWcXAMsZueALXv7IzsnA24Xd7+Du/H5A9i75zCOHjmFoEBOjD0QBJwuF9rbOzlnJPiSkpoKeUpKxPc+SFGwWcyCWjQnA5ZAkYRmasx2xxFWq3khgyBcsY8aYaAIEgCI4xACSjTZcuBxjtL3wWElXHwvrqbakZs/D9ggBceli3B8dgZMBOe7RMAwNAIBDxwJlO+NZdObzF0gQQA1NXXQqFUoHTMGzc0dCdNGUKuVkKeIUVdXByPPZtYe7YGP9sLpEP7+kZGRBo/PherqarDsEkGvRRAEVGoNUhXKiNmfgN8P0t8FhUrY7I/AEABmiZwus9np/I1Bo3l9sBd0vyOMFHA8JQCeu/9Y6cdnDYCI4ykdw7QE4Ou4DYkhgofxCBHx3miC9dghUM74dpaxYAH4/R54vQ74fNybSiZNmoB169dgVH5en8coiupTBw6TDJveSDz9zJNoa+/E/r0f48KFi8jLy4FWk4HOzvjds6RSCYxZetTXXwVJUhiVn4fX/uFlzsdz0R5IFEqVAqmpEjRcrQcQev/4BivxIhaHZIVTUxVwORyg7tJ5YBGSFfZ7fVBph+/YIMuyMrD4gcXueA0EXkrXag8M9pruVwQJAKRSGe/tAH8p4P7JTwEKUqM8oRfDsQGQcjvAiIMQi4dp7S+JkF1dsBw/DH+bsDa9JOWFg4dNb3Z2FlatWhJZvpem4YpS5x/MTnC5TIZXXl6BObNn4P0PtuDMmc/QinaMGVMMmiRgd3LffRMEgVEF2WhubkZ1dRtUKiVWr1kW0cEwEvFoD8SLRCJBdo4BDQ0N8PsDMKSnYeXqJZg+7SlBrxsJmVyOtIzP+wPuVkakGRoOmw1ejwcajbaPQuRwgQUMYLHfZLNXixh6YXp6unBf4C8oggQAFAbXRu9BDffnBlngZt/f2CENTQfhN7VAmpFYrfL7Ddrng/3TM3BWXQQ4jtzxvgYdBBX0w2zu5nxMWL73hcUL+3S5D6ZNL00zOHHiLE6d/BR6vQ7Plz2HUaNy+31+VrYR3/nOP2P27MvYuPF9NDY2QS6T4YFJE9HeZgJJRv8dyMxMg8/nxcWLlyAWizF79vR+SyC9CVIU9h84hoMHKmNeJxEUFOSguaUZVVXVkMtkWL58cUT55Uj4fH50dnQjPz8HEmnifnIJgkCqQtHTH9B7bJAiSVjMJkG9HpIBQRAPsmJJs8lq32rQa9cQBHEf+LQODQQJAAgQvH9tCZ45gGjRfqmS+3Xr3YB/mPUAuG/UjSj9RYOh4aypEtSml2UZ+ANeOBxWzo1mYfne/jTqAwE/nHZ7xDq/WCKBWq1BSiqP1BYPGhquY/OmXWhtDY3KtbS0o7a2Hl9+/BEsWbIg6k158uSJ+PWvf4wDBw9jU8U2XLhwCWl6PfILRqGtpavPd1WlVkKnVaC29jIYlo3qYNgfpz85hz17jgjmyxDGYNDBH/Dh4qVLIAgC06ZPxZo1y5Cmjy0EFPYY2LXzY/h8fuh0Wix+YR4ef/yRhNbow2ODqakKOBwOUL0+8z1jg4Po9pgARISIWGZxOBea7a7vGnTq/3+wF3Q/IMgn4ddv/OWx3bv3fsbnmNycQt4fzPH/9ts+/6eXAl/nJgMOFsBfbgNmYXrBBMHVVAdpgl3K7id8t2/BcuwwKGtkbfeEXMPnRoD0hjqyOVJaGpLvHTOmr3xvMBiEa5Dke03dZmzfvh/nz9f0+xy5XIbn5kzDvLkzY+5gXS53SLd//2EwDIOiokJIJXKYzTZIpBLk5d2x6fX5o5ZAYrF7zwEcPlQJjVqPrq7ESzUrFCnQp6l7PAaKiwuxbu1qjBs/htPx9fXXUFGxEx3tfZ3FCgvzsWJFOQqLhJkaiBVIajVayIa5SRjBEq0MwSzO0OnOD/ZahjOCBAC//e2GR3fu3XWOzzE52aN51zPH/eg3fYKGglRgTf9Zy3u46AD2x9+3lHR8nS0gUsXAME3lCQlltcJ64gi8NwW06aUCCAZ9vMb60tLSsHrNEkx7Zmqfz2qP4pvHEzGjJWTqliRJHDxYif37KyMKCUXCaMzAsmWLMGny+JjPvdF0Cxs2vouGhmsQiUTIzs6Cw26H2+OFQpGKpUvLMW/+bEgl8SUhT5w4g//93z+DIAhMnDAOXi8Jh2NgCn8AIBKLkZ2djmvXrsPn8yFNr8fql5ZGfP8i0dVpwqbNu1AXw2OAIAhO2ZV4YcHC8ufGKQAAIABJREFU6/bA7YpSStJoBVEyTCYsyx53Q1teqCfuAxeX5CNIAPA///PmIzv27LvA55hEBQDFCmBFTuxj7RTwtxYgMEzS/0G3E36PGRIlj/rGFwDGH4Dt7CmBbXqDoCgfrFZzRI32SMhkMizoR6OeZdmIzVthpDKZYM1biRiV42rnCwDnz1/C3/72DkwmC2+b3ljU1IR6D1paWiGTSTFh/Hh0dlo4Oyr2Jjs7AxaLCR2dXT3yyytWvggFh7KLx+vDwf1HcfgwP+0BhSIVc+fNxKxZT0ESZzAUDZqh4XYOnmhUMiCAIMsybxr0+n8e7LUMN4QJAP7y1kM7Nu24xOeYnJzREBH8AoDxP/pNn7SoUQ58JUYpkWRC2v/dwyT1zzA0PLcbIB0Z+evhc5vek6B9wnRxsmDh93ng9th5mdxMefQhfGX9y8jM7Pt+RbXpFYmg0moFG9+6dSs0KtfUNPBROT52vgGSxJXLDcjJzkr4uFwwSPf0Hni9Puj0OhQUFETsPegPvU4DQszg2rUmAHfkl9e9BCOHUls4oNqyZc+APAaMxgwsX/48Hpg0Lu5zRCOqbLRYDLVaONnoZEGAsIlYrNfrNdsHey3DhSETAORmjwbBNwPww1/3OYYA8M3RgKqfYNrPABXtw2v0z9FYNSL2cxf+282wHD8KkkfnPe9r+L0IkG64ePyoFxYWYN261Zgwoe+POB0MwuVywu/z9XlM6J2YkKNyGq0aZc/P4WTny4WO9i58tG0frl+7iQkTxuCFF+fDYIgtcd279yA/PxcpcgWs1v7ll1NS5MjI0KHu8hUEg0Hk5uZg7dpVePjhyZzWevVqEzZV7OxpnEwE48eXYsXKMmRnx86uxMNgGkclkQYa7EKjTtc02AsZ6ghjB/znDQ/u2rKris8xcZUAIgQAADBZDSyK8P1p9wM7uwDrMBoicd2ohzRzROMfACi7DbbTxwW16Q0GSVBBPywW7o1larUKS5aWxSXfK6RNLwDcuHEbv/3NnwUflZv0wFh841tfifv4/lLoEokE06Y9jrLyuZzsfm/cuIWNG95DfUMjCILA+Alj4XL64PXcFfETBPLyjbjZdANOl6tHfpmr9oDJZMGWzXtQVSWMbL1EKsGsZ5/CwkWzBbkZx+o9EfozmQxYgCVYdke6TruSIAhhRoHuA4QZA6QGV1y3xgWQLDBFC2gkgIkE6lzAVTdnE8Ehgd/UDkkaD1GD+5SwTa/js7NgBbLpZRgGJOmB1WaJWJePhEQixpw5z2LFihehUPStE8febWkhkwkr5NTa2oKsbAPa2k2g46yNxyItXQuTOb5u2nAKfevWPXA5+2ZbgsEgjhw5hQvna7H4xdgjdEVFo/Hjn/wQJ0+cwbvvbcGVyw1ITU3FmNISOBweqDVKWMwmVFdVQywWY8GC57Bs2WKoVLF7a/z+APbtPYzDR04hKNDfEgCCVBAHDh6HUqnAnLkzEn7+nrFBhRJOpwNkr+kTv893Z2xQuOkToSEAAgSx2OxwOkx2548ydJpfD/aahiLCeAFIxHHcZ+O5Nfd/TIM79G+4EnS7EAx6IUlNfIfwsCFs03uiErRXGJtegIXX54HP54IvQnq+PyZPnoh161YjP5J8L0nC6XSAiiTfe6femqJQJEW+l2YYXLpUBWNmJgqLRuHmjZaEnTslRQ59uhoN9Q2QSfnvVPmk0O2OkPPesaOnsWJlGYqK+p/1DektTMWXn3gMO3fsxbbte1FdU3vPc/hoDwyGx4DX54bVJtwoKxDKrqSlpYfGBh0O0HdlXliWhdsV+k4IqT8hNAQgB9hfme2O7zIMvTQzLe3kYK9pKCFIAEDTwnsBABhe23kesAwDr6kZsi+w0l+gqwPWY0fg72gT7hoBH6igD3Y79wminJwsvPrKKkx59KE+jw22TW8kHnv0EcyY8TQqK0+hq7sbpaXFEBNSmMy2uM9JEASysw242XwLbe23odGo8dJLyzkfb7U5sGP7fpz9hNegEIBQI+Mvfv5HTiN0cpkMy5YtxrRpT+Gdtz/EufOXkJOTjTVrluLRRx/mfL1ENU7GQqlUIDVVjKuNDWBZFjOmTxX8mgAgl6fAkCGPqEBJB4Ow26yQeYVToEwSRpFIfMJsd3xKiUWLstXqYTQALhyC/BL94o9/Hb9v254rfI6Jqwfg9V+BGMZ1qv5wNl6CLIfDLON9CO12wXpKeJveYNAPs4X7b4BSqcDixYuwaOFzkeV7Pf3PXMtTUqDRaCEWYMyLK3fP5YvFYkwYPxYOmwceHqZFAGDMSofdYUN7W0dMB8PexKM9EA2ZTIY5c7kJFAGhiQGJhNvvhd3hwLaPkuMxIJaIYTSm4dq1a/D7A0jT67Fs+WI8O2saRElOvw9lD4qEQRA0wWJDmlb9NYIg7tNtJDeEUQJ8861xuzfvqOdzTDwBwNjXfwmRePB+VIXAfbMekowvXtMfGwzCcekC7J+dASuQTS/LMggEvLA5rPekO6MRa3Y9muqaRCIJ2fQKpLpWW1OPyuOfQKVUYv78mTBmRc8YsSyL4ydO4913N8Nus0OlVKCktARtraaYfQ8atRKpKhmuXA4J3ERzMIx03QsXarF18y5YbYl3Ysw0GrBs6SJMfnDCgM9FURSOHDmNfXsPw+8XvncsJ9eI9o5WWMzWHu2IF18sQ2pq9M9M861WiMQi5OcLs1EYii6UAuACy/yTQa9/d7AXMlgI8v795S9vj3l/0zZerdo52QUQifjt5sf94JcgBnFXlWgCpg4wUua+ek1c8N5ogqXyEII8nPT44vN74PO74fVw7yWYMGEc1q9fg9Gj+0q2Bikqou46cNcPpEIY3fWuLhM2b96N2prPY+yeufyyOTFvHoFAADt37sNH2/YgSFF37Hz16OzsO/kglYqRlW3A5cv1oCgqLvneDz7Yhspjn3B/gXGyckUZZjwbvzNfTc0VVHy4E2Yzd6XHeEk36ECSPty6dRvAHe2B9S/BmBk9iGtpacemil1obAxNuI0bX4LlK8qQm5MlyDqjNbJKpFJotVpIBW5kFRqCxQ1SIno+W62+PNhrSTZDKACIIwPw/V9ANMylLMPQfg98tg5I1F+cpr9AdxeslUfgb0tcY1pvSDKAIM1Pvjc9XY9VqyPLv/aMUPVyXgOET5F6vT4ciKE2p1IpsGDhLMyYMTXmGtrbO/HW39/HxQvVAIAxY4oRJAGH0w2CIJCbm4mWlhZYbTakpMhRVhbZwTAWv/n1H+Dzk2i53SlIOl0slSA/LwMFBflYvXop7+NbbrejomInrl0TTkY6TGpqCtLSP/cYiKYdcTcejxd7dh/CsWNn+mRrxGIRnpz6GMoXz4OawzQDX2KNsspTUqDR6ob12CAAlgAOUlrNkiyCEKrjeMghyFaTYeJpAvziwjIMPO1NkGUKI/4x1GD8PtjOJsOm1weLxcz5piOXyTA/inxvLJtetVYLqQBNUrFG5e7G7fZiU8UunDlzHitXlKGktKjf5+bkZOGHr38H585dwFtvfdBj55s/Kg8upwvVNTUQEQRmzZqOVauWQKuNbyTVTwZw6VI1RhXkQ6PUoqMzcf1XObkZ6OzqxIULVcjJ5rcLdru92Lsn8k010YhEYuTmGXC18Rpa25qjakfcTdhRcPeuQ/B6I0+p0DSDkyc+xcULtVi4iFvwxweCIKBSa5CaqogoZhXw+2EOdEGpUkGpVoMYnoUBggXmSh1Oq8nh+FmGVvtfg72gZCDIO/W7N/9e/NHm7df5HJOdXQAx3xLA938OIo7xo6HGF0bpLyk2vSz8AS/cbhtv+d7XvvIKMjLS+zwW8PvgdDoj9g2IJRJoNBrIU4QZk2q8egMVFTviVpub/OAErFxZjvT06Pa1YUndig8/gu9OY2A0B0M+dHV24y9/fRtVVbUgCAKTHpgIt8cPhz3+kbq0NC1olsKNppshm95npuKVV1dyakbsbdMrNNnZGTCbu9HZ1R1TO+Ju6uuvYVPFLrS3d/K6Xv6onJjB30AI+P1wOR0Rs1BisRgarVaw70OyIFiYxYR4tU6n+niw1yIkQyYAiKcHYOz3fw7RMA8A3M2NIbGfYSi2wQff7VuwVB4GZRFutjkk3+uBy8X9xlJUNBrr1q/B+HF9bV6DQQpOhwNkoG+wEtoV3WmEEuC9G8ioXG9kMinmzJ2OuXNnQBojfW+x2HDu3EUYjRl46KFJCX1tIfOe99DS0ga5XI7x48eivd3CuSET+DyFfvlyPWiaRklJEdauXY1x40o5HR/vTTUeensMhLQj1iA/P7pdaVeXCVu27EFNNa9Bqj5MfnACVqwshyFG8BcPLMvCdycjFskgS6FQQq3VDmuTIRYAWLaaoIMLDAaDcPPIg4gg787vf//Xwq079vAqqGVnjYKYZ0f/cA8A/N3tYCQ0RMNfe7tfgjYrzMePwndTOFlu6o5Nr4VHnT9aCpZhmJ55/kjpfoVCCZVaPWRsermi12tRvngennhiSkLO53a5cazyDEgyiGnTn+B0o+kx7/lwG7w+HzIzM5CXl4fmW+1RjxOLRcjJzURTUxNcLjfvUTmzyYoPPtiGujrhZKTDpKTIkWnUo7b2MoLBIHJys7H2lVV4ZMqDUY/r6fFIoNKgTCbFzJlTsWDhbMjlAsgK0zTcLhe8EYS6UhUKaHWJDz6SDgEGDD5M12leJQhCOAnIQUCQAOAPf/hbwZbtu2/xOSauAOB7/w3RMO1ADfq88NvbIFHfn1K/TMAPx7mzcFw8B5YWpr7KMAyooA9mswksx16CaCnY0K7GC7fLGbEmLJPJoNbqYu6i46Wzoxu//c1fYBdwGgIAHpg8Ht/8xrq4j4+UQpdKpXj22amYv2AWJ81+m82OTZu24cjh42BYFsXFhZCI5TBHECjKycmAxWpGe3snr1G5u9m8aQeOHjsbsZs9UYhERE+Q4nZ7oFYpsWz5C5gzZ2bUBjmGYXDq5GfYsfPggBwFo2FI12Pp8kV4+OFJgpzf7/fBYbP1CZjT0tIhE2gMdhDwiMB+J02ne3OwF5IoBGkClEql/JsAh3GqiDcsC2/7dciM92HTX4987zHQEcREEnQJ+P1uuD0OBCKk5/sjWgo2qk2vWAy1Riu4HGpnVxd0eiWcbhcYgYImhSIVNit3o6Pe9JdCpygKBw5U4uzZS1j8QmzNfr1eh699bR2emz0TGza+h4aGxj4CRTq9GnK5BLV1IdMdrqNykTCbLSBAISs7E50d8b/+/jBmpcNut6G6OtQ4OW36VLz6yqqYPQkD7fHgitliw/vvb0NpaREn3wO+pKSkIpDq7yMg5PV576cAQMmA+LPZ5vgBS7AvZuh0A6/PDTKCBADBIM0/AIhnPEhghS6hcF6rhuw+bPrztdyGtfKIoDa9ccn3RknB0sEgnE4nAv7INr1KlQpKlToptUw6SOPCxUsYlZ+HtHQjWm4n7qYgFouQlW3AjaYmdHa28j6ea13abg9p9lceO43lK6Jr9gNAUfFo/OQnP8TxE6fx3rubUVt3BXK5HGl6HW7dugmapkN9GutWY/z4sbzXHSY3LwtHjh5Ht8mEsWNLwDISWCzxyyGHUakUkMpEuHIl9HeZPHki1q5bHVMgyWZzYPv25CgNSqViZGamob7hakTBqoRdRyJF72+RkBmXQYNAAQHivMlmP+7UacuKCULYlJ2ACBIABESBQXUDHMp4mhsh4zmuNNQJulywnT4Bd70w9qjAHfle2gezmfvuTaVSorx8IRYumgNpL3GlsNmJxxN5tjk1NRWqJFuijhlXisceewTnzl1ES2sbJk4cD6+PhMM2MAOa7GwDzFYLampqIZPJsGRpOedj461L37zJXbOfIAhMn/YUnnj8MezcuQ/btu9FR2cX51E5LpSVLUBxcRE2bngPV69eh0QixoQJ42ExOeHnkUUK01sgKSvbiNWrlsYUSCJJCgcPHhOkx6MPBIGcrHTcbm1BTW071Col5HLhSqb+QN+JCr6aEcMJgiCmaR1Os8nh/F2GVvOdwV5PPAjUBLghZ+uOXby6JuPpARjz//0MYvnwSS+R1i4EERi2fQu9SZpNL+WF3W7tV/ymNz3yvS+vjDi77vOGJgX6UzfTJMGmNxq1tVfw1sb30Xy7BTKZFA88MAGdHVZeY40AoNNrIJWJ0FAfanzjk0Lnoz0QC4UiFXPnzcSsZ5/ipNlvs9nR2tqOMWOKE37DomkaR4+exAcfbIHT6YJKpURJSTEnOWQgbISUjuaWFjgdTsjlcpSXz8fi8gWQRmnmDcshf7R1T0IyD7HIyNDD5/egubklppz1gGFZOJwO+HqpbBIEgfSMTEi+GMqmNrGIWKfXaHYM9kL4IEgA8Mc/vpW1edsOXvnL7KwC3rutsf/6U4iGybwpTfrhMzVDotUN9lIGDsvCc60R1hNHEXQ5hbkEAL8/ZNPr5dFLMHHiOKxb/xJGF/S1eaVIEi6nY1D0zVta2nH8+CeQS2V4dvbTSEuL/jnofaPS6XUoKChAW0tXzJSxTCaBMSsddXX1CAYpzmpzYYSqSxuNGVi2bBEmTR6fsHMGqSCnoKI3LrcHWzZvx/79h8EwDPLycqHV6CLKIYe5+6Yashx+Ei+vWQ6dPvp72dzcik0VO3H9Oq++6LhQqhXQqlNx+XI9GJZF6ZhirF+7BqVjigW5HhkIwOl0RMxmaHQ6KBSJ7zcY4jTQYBcYdTrhZSUTgCABwBtv/NW4ffceXoO2cU0BDJMAgGVZuJqqIMsa/g5/ZFcnzJWHEWgXbiyWJAOgGT8sPDQDDOlpWLl6CaZP66sFT9M0XE5HHwUzIGzTq4JKLUydP5KEa7hjnstoVvhGdeDAEdA0jVGj8qBSatDVFeFvQxDIyzfi5o2bcDqdvFPoQSqIjRs/xPnzNXG9Vq489NBEvPYPqwc0TXHjRjO2bNmDG03NKCkpxLJli1AwOrYxUW9aW9vx1lvvo6qqFgBQUlIEmiLgvKsbX6lWQKmQoaGhESzLchZIctid2LX7Y5w6+ZngdX6RWIzcXAOuXm2Ez+ePKmedCIIUBZczchOuSCSCRqdDyjD4bRYCIiSGu9Wg175EEIQwzmYJQpAA4J133snc8PZHXXyOiasE8N2fQixwZ3YicDZWQyaQWUeyCHrccHxyGs66asGaL2mavlPnN/GS7y1fvCBiCpYFC4/LDY/bFdmmV54CjVYYm16apnHm9Hns2L4fLndkaXGdTsupYx4A2tra8dZbH+DSpVCX+bgJY+F2BuDxhLIjmZnp8HpdaL7dwktt7m66uk3425vv4naLMJr9AACCQG5uBr762svIyuE/BWN3OLB716E+N1WCIEL9Bi8ugEbL30/jzJnP8M47H8JksvSIFFEUA4mEQENDIwKBADIM6XjppeV4cuqXo75fwWAQx49/gp07DibNUbCzow0msyWqnHUi6PHC8HgifkZSFUqoBdLIGH4QfoKlf5iu1/92sFfSH8IoAW7cmPHR+zt5tYJnZY2ChG8A8K8/gThFweuYZOO5fQ1ivQoghqd/NkszcNVegvX0CcFsehmWBRnwwumyRUzPR4IgCDzxxGN4+ZWVyDBEkO8N+OGy2xHsx6ZXo9EKNp7EV22usGgUVqwoR2Fh37JFb86ePY933v4QXd0mpCpSUVgwCgGSRFPTTQDAY489gldfWYmsbP43167Obnz9n76LUfl5UKu1UdPh8ZCRoYfX78bt5la88cbPkM/BSjgM15uqTCbDnLnTMG/uTN6lAZIksXfvIWzduuOea/C5qdbUXEFFxU6YTcI7CurTtQBL4/r1kMhWNDnrRBDNGVAqk0Gt0UJ2H4uaxQvLokPM0kvT0tJOD/ZaeiOQENDb6Vu2b+P16xFfBuDHEKcO3RoTaTUhyPogErDzVkiSYdPr9/sQIF1w8RBAKSoejfVr12Dc+AjyvbFselVqKJTC2PR2d5mxY8f+uFLo4R3s0iULodaooj6XCgZx8OCRHjU9IPqoI1dIksQvfvEGqqrqICIITJr8AFxOLxyOgTUBqlQKpCqkuHr1GliWxYQJ4/CD178NBcfsXTw31UyjAeXl8/Doo5N5r9dktuDDD7fiSl0DJk4cj5Wrl8CQnhb1mM6ObmzevCspSoOpKXKkGTQ9csjR5KwTAUmScNltoCJp/4vEUGlDRkEjxORTSixalK1WJ84Na4AMnQDAOIp3KnYoBwAM6Ye3uxkS3fBr+qOsFliPH4X3lnB9LCQVAE3zq/Pr9TosX/5CRPnXaDa9QEiWVK3WCJKaTKSEa0/H/KynYnZPW61WnDp5FmlpaXjiyccSNrJ4/vwlbHzrfXR1dvekwzs6LLxf20Dr0h0dXdi8aTcuX47/pjp+fCmWr3geOQKV4MI9HpWVZ0ALJN4URiwmkJNr7JFD7vk+PPuMIPbTNE33SGL3hgABhUoJlVozrPX+kw1BEEGWod9M1+m+QRDEoAvZCPLO/elP7+s3fbSZVw4srgDgOz+GeAh2mTIsC1dTDeRZw6vuT/v9sJ89LahNL8MwYBgS3aZOzhasPTXtlS/22TWGbXo9/ZiSyGQyqHX6PjoAiSA8KvfR1r1wOgc2q98bY1YGli97Hg9M4ta5H4sgFcSt5lZkZqRzqpFH0uzPzspGayu31p7edenyxQtQXr6AU4o4UuPkQBCLxZg+/Qk8XzaHl3xwLCqPncHOHQfg6cemN5HcLYcc7fuQCFiWhcftgtsdWSNDnpICtVYHyUidfyA4RYT462la1fuDuQhBAoA3N2/WfvDm+9yl2gBkZeVDIubXFVz6nf8LiSJ6unQwcFyrhnw4if0wNJyXa2E/fQJ0hE75RMCygD/ghtvNT753yqMPYf3aNTBmZfZ5LNoIklgshkojXGrS7nDg9/+7ES0t0U1sBsqUKZPwD199aUC7rLtT6D03w/K5SI1Ls78IEkIKszXy1/vuunRPn8bLKznVpbk0Tg4ElUqBBQtnYcaMqQPeMdM0jR//39+gvV3YbK5Op4FEBlxtuAYA+NKXpuDVV1ZG/D4kAr/PB5fTEVExUCKVQqvVQnqf6JgMEa5BLCozqNX1g3FxYZQAVao4pIDvjzSSt/UG5AJ9OYXAd/tWSL7Xknh99DCBgA9B2gebjXtMmJubg1dfXYVHHulbww3J9zoQ8PdVHgvL96pUakH9JZpvtQIQVuZUIhWj29QNn98f106vo6MLWzbvvqcuTdM0jhw5hfMXavD8oufw1NNf4qTZP3v2DGzY8G6Pit4DD0yE1ezs2f32tuktLi7EurWrI/Zp9Memip2orPyE9+vkitvtxaaKXXC7vSgrmzPg89XW1WHMmGIEKQIOR2IzQFKpBFnZ6T1Kg9G+D4lgMDUyvuCUgmYuW+yOgwGt5sUcghDGQKUfBAkAfBSVlNrG4FdQ7oV0WMCmiIdFxz9lt4bq/DeEs+kNBinQjB8mM/ddkkqlxNJl5Zg3d1afmnasEaSU1FSokybfy6KqugbFxUUQi6WwmHklvGKSk2tEZ2cbqqr4NxRySaE77E68++5WnDhxFstXlKGkZHTUcxYXF+InP/03VB47ifc/2IqqqhpoNBoUFRUCYHD9WhNa25qRlpaGNauX4plpT/LOWnR1dyIn14DuLjtn1Uc+hAWSzKaBe1WIRCKMHj0KjY1NkMtkeGDSA2hv6wZJDkzelyAI5OZlovnWLVRVtUGtVuGVV1biuedmCPK5ZhgaLmc/dX6CgEKphFKt4WS5PELcECwwV+ZwWbvtzv/I1Gl+kawLCxIAZDtSeBfuiIitW9ERWlyDDzQZQMDRDWla9G7hwSZs02u/eB4QTL6XBk0HYLGYIo7hRUIsFmPmzKexatXSiLrxQ20EaXRBPsaNK0VDwzWIxWJMfvABmExO+DwDC+B1aRowNIXa2tC8/6xZ05HCcVyRphmcOX2OVwq9ubkVv/rlnzBlyiQsWbooqkKhiCAwc+YzmDr1y9i5cx8+2rYHVVXVAACpRIIFC57DypVL4q6zswBqay8jPV2PgtGj0XwrQeUVImTTG76p5uTMTsApCfzyl//Vo9Z44cJF6NN0GDWKm1pjJIzGNHh9HlRX10AsFmP27On9fh8GSrh3xu10RlyrTC6HRqO9r7X8hx6sXAT83GxzfpMlmLIMne680FcUJKzbvXu34tdv/I1XES/LmA+JhN+Hbcy3/wtiVeK/HHxhWRbOod70F7bpPVkJ2pP4+ioQ+gEnSS+8Hic8POR7J02agLXrVqNgVN85eJIk4XTYI9b5RSIx1BoNUhWDM4LEsiw++eQc3nn7Q5jMFiiVCpSWlqC9rRs0T0PMlBQ50u8a7SopCanNjR0bXW0uTEP9dWyq2Ik2jtoDkfh8hn4Gpx/+9vZOHDxwBCKRCPPmz0ZmpiHuawOAw+7Au+9txvHKU2BYFoWFBZBKUwaUXTFk6uFxOdHa1g6JRIz5857D0mXlMQWSHHYnpDIpJyGl3rLCRUWjkZqiQmcnt8yXSq2ETqtAbe1lMCwb9fuQCKJpZIjvaGTI7x8L32EJC7AgiP8R2mRIkADg2LFjKf/5kzd4dZMN5wDAea0GsjiEV5KFr7UlVOc38RJn5EUg4L9T5+dudGLMysSa1csiOqhFHUG6k5oUagTJYXfi1KlzkEhEeOqZx6GMcRMIkCR27tiLbdv3giJJGI1GZGZkor09dqq592hXml6PZcsXRxx1jMRAtAf6IyMjHYtfmB/XDH0iuNF0Cxs2voeGhsYe1UOXww8vj257tVoJhUqG+itXwbIsJk+eiHXrVscUH7rbplckIvDk1MdQvnge1KrY00Z3ywr3rNvph9cTed0SqQR5eZmov9IAr8/H2VEwXoIUBafDAXIQNDJGiA8C+DBdp10l4PkTz759++S/+M2bfTu0ohBPAFD67f+ERNXX7S2ZeNtugtCkgBiCdf8em96GywLK9wbBEhQ6O7gbx0RzUBvMESSaplFZeeYetTmlUoECa9q9AAAgAElEQVSFi7h1jpstVnzwwRYcrwwJfsVqEMvKNsBqNaOjowtSiQTPzZnJOYXu9wewe/chHDt6WpB6OQBMmDgGK1eWw2iM7R4YDYvFhm3b9uFK3VUUlxTixSXzkR0jYO6dXVEoFCguLkJXpzlqdiXUPGdAQ0MD/P4AsrOzsGrVEs42vQf2V4LqlW3i8xkA7ugobHgPXd2mO1mhUrS3m0Hf9T7dMyZ55/vwwuKFgqTcB1MjY4SBw7L4Pxl67f8IcW5BAoDNly/L/vjN13mJYBuN+ZAOswCAsltBBZ1DzpCIDVKwn/8UjnOfghXo5sCwLCjSC5vdimCQW+NTeCzslVdXRVRWizWCJKRNb03NFWyq2AWTKbIwUXa2EcuWL8LEiWNjnqu29go2bngPt1tae3znTSY7yEDo76TVqSGTi++16V33Eq8b7YF9R7B9x0HB+2Aefngi/vHrr8Z1LElSOHr0NPbuOXSPlbFYLOK8s+6TXcnMQEamER0Rxu+ysg3o6GyH1WLjfFPlY9Obn5+DFSvLUFpaFOOVh0pX27fvxc4dexEgSWRnZyHLGCoROt1ONF2/ARFBYMaMZ7Bq1YsxHQXjoUcjw+WK2Awqk8mg1uoGZMo0gvCwLOsx6LRqIYSDhCoBSP7zJ2/waocdbhkAlqLg7rg+tJr+wja9J48i6BTGphcA/H4vSMoLJ49rlJQUYe3a1Rg3rrTPYxRFweWwD8oIUmdHN7Zs2Y3a2gZOz5/84ASsWFEGgyH6+x4M0th/4BC2bN4Bj8cLnU6LUaPyEQxSaGy8jmCQRn5+HtavX4NJkybwXve7727CxYvVUKsSr9kPhKYxlGoZKIrCz//7P3gdy/Wmymdn3dXZjbf+/iHOnbsAACgpKQZNs3A6PMjISIPP70Zzc0vPTXX16iXQ6rRRzxmvTe/kBydgxcpyGNL1MZ9rtVrx3vtbcOL4mXuCtdLSIqxdy73Hgy9kIACnwxExOBdaI2OExEODnWPU6T5O9HkFCQBYlhVNn1XOq8U8rgDgX/4DEnX0L7lQOK9VQZadPSjXjkSguwvWY4fhb28V7BoUGUCQCcDCQzMgWk2b0wiSSi2IzOlAJFzjsfMNN4gBoZtreflCLFw0J26Fwl279+Ptv38IkUiESQ9MgM3hhcc18OZOqVQMg0GPq42NoCgKX/rSFHzve9/ifHxzcys2V+zCtes3OR/DZ2ddXV2Ht956Hy0tITtqlUoJ952Jh3HjSrFu3RoUFxdGPUcibHr5fAYA4MqVBnz00W74/QHMnzcrpqNgvAwFjYwREg/B4ifpeu2/Jfy8iT4hEG8AkAeJhN8YV+m3/h0STfK19odS0x/tccMutE0vQ4OhAzCZuiLK7UYiWk2b0wiSVss7IORCeFRu+44DcPMwIIoEHzvfG023cPhIJXQ6LebNmw21euAKlufPX8LGje+hq8sEhVKB8ePGoqW1G3ScfgQ5uUa0tbfck0KP1KcRifBN9fSpc3HL93LdWdM03TN+53S6kKbXY/VLsT0GIvV4DBS9Xovyxdw+A0ISrvN7PJ6IvwPJ1cgYIdGQdPC3OenpCZ8IECoAIKbPKuf1KxBPD0DJt/4d0iQHAN722yCUUhDiwW36C9v02k6fBBOhqzch1wALkvTB5bTBz1e+t5+adiDgh9Nuj1jnF3oEqaHhOjZX7EJrG/eGRS4UFuaH7HyLRiX0vFwIOwNWfPgRfD4/jJkZyMvLxa1b3F+jwaBHgPTi1q3bIAgCz0x7Ei+vWc6pLp3omyqfnbXfH0B7Wwfy83NiBimXLtViy5Y9gtn0jh1bjOUry5CXm/ysYFSNDKkUaq1uxKZ3GMMCcLmcvy/Kz/9mos8tWMg6fVY5yye9ZjTmQcozA5DsAIBy2kH6rYNuQOS90QRr5WFQjsSqz92N3+8DRbnh4GFyk5eXg7VrV+Ohhyb1eSxIUXA5I/sAhEeQlEqlIKlJvz+ADX/7ENXVlxN+7jAikQjPTHscK1eWD2gneOtWC3buOIiuzm586csPY978ZzmlmK02G957b3NPrbm4uAgikRRWS/+fEYUiBfo0NerqroBhGJSWhrQHxozhVpeO1Tg5EBK1s25t68Dmil1oaLiewNVFRqdV4+e/+rekqeYNZY2MERJHwO+H3+/7Y/Ho0f+c6HMLogQIhCILwXX6kqgEyAQp+G3tkKbHNjURCspmheXYEfiahbPpDQZJsCBhtnCXS1WrlFiyrBzz583uU68fCiNIzbdaYDIJa9rCsiyuXbsOp8sNbRzKbZFS6Pv2HcXpM+c5afan6fX45je+ivnzZmPDhvfQ2Hi9ZwLBbHYg4P+8wVIkEiM3z4CrjdfQ0trM26YXAHbt/Bh79hzi/Tq5YrM58NbGCnR2dmPx4nm8j0+mTS8IAnn5RtxsuhH6TRI4ABhMjYwRkgvDMLDZbUhVKAR5MwULAPgS14BDEpWAXTcvQz5ITX9hm15X9UWwCbBHjQTD0KAZMlTn53iNaPK9LMv2jPVFHkGSQ63VJmUESSIVo7auFsXFhRARMlj7cbKLlwyDHr6AFzU1tbxTarFS6D2a/SfPYsXyMhTH0OwvKSnCT3/2bzh65Dg++GAramrqoNNqUFhcDIfNBa1Wifb2dlRV1UAuk2H58hdQXj6fd4q4pa0Fo/Kz0NrWnRDL3t6IRCLk5mWipbWF13HxyCEPhKwsA+x2K6qrqkO9LgLedLloZGi0upE6/30CwzAwd3cBDAOwrCA1Z+ECAILgtUMfymaArut1g3LzZxkGrss1gtr0AiwCpC8u+d5169dgVARltagjSCIRVFptUkeQjMZMFBYWoKnpJiRSKSZPmoCOdsuAjVtSU+VQqVPQePUqGJbF+HFjoOCRcuWTQm++1Ypf/vJP+PLjj2DJiwug0fafZQh7CDz11BPYtSuk2X/p4qWexwmCwJNPfomzTW8kmCCNS9XVyMrKRFZGFtrbEqcymZVlgNliQlVVNZ6a+mXOxzXUX8fmTYnv8YiERq1EqkqGy5dDZaVw34tQ6f9YGhlqjRZy+YhN7/0Bi4DfD5v1nn4VQT5Ygt12Zz73Ahvpw9ofxsw8SKX8diHF3/wRZFph5/B9HbdBKCRAkqNqX0szLJWHQZmFs+n1B3ygaT8v+d5ocqV0MAiXywl/hGBlsEeQGJbFiROn8c7bFXA4nNBpNRhdWIjWOIxbelLoV6/B5/Pxlu/lqz3Qm881+2dCIo0dw7e1tePtdypQU1WH4pIivPzyigHPn5vMFvz1r2/jwvkqAMDYsaWgSHZAtrhanQYiEY3r10MlrkemPIivrH85pkCSqduM7dsTK4fcH1KpFFnZaffY9K5duwoPPyyQTe8gamSMkHwCfj+cjr5N0gql8i9FBQVfTfT1BPvcPDvnBTYYFDYAKPnGjyDVCRcA0G4n/B4TxMqBj2xxhbJbYTt9Ap7Gq7GfHCfBIAUWFLq6uBvHRFNWG8wRJJKkcO5cFQAWjz32UMxUtsfjxfbtu7Fn90FQwSDy8nOhVmvR3cmtkc1oTEe3qQtms4W3fK/H68OeXR8nrC6dkWnA4sXzOGv2syyb8LpwLNVDLoRvqnV1VxAMBpGTk4VXX1mFKY8+FPU4kiRx8GAl9u8/hmCco49cIQgCubmZaG1tgcVq6+l7iWRbnQgYmoYrSp0//J0SQiNjhOQTpCg4HA5Q/Ux0pSgUfysZPfq1RF93WAcAxd/4IWQ6YZryGIaG+3Y9ZIaB6aBzhaUo2C98CvtnZwWz6WVZBjQdgNlqjtg5HIlYY2GDOYJUU3MFFR/sgPmO2pxOq8XiF7l1jre3deCtv7+PixdrQBAExo4bg4CXgrMfMR29XgORmEFjYxMAfvK9idQeiMS48SVYsaIMOTkDd6P0+QPYv+8IqquvoKAgD8+XzYk5lx8M0jhw8DA2b9oeUj28k11paemKXgYMN8/duAmn0wmlUoHFixfFFEhiWRZnz17ERx/thXMAGQeuZGamwefz4Fbz7Zi21QNlMDUyRkg+DMPA43LB64ncJB0mVaHYUDx69FcSfX0BA4AXWT4mJUMtAHBcuwR5do4g576HJNj0AoA/4IHP5w7t0jkSbSyMJO/U+SONIInFUKuFG0G6fbsNFRW7cP1a5GmI0aPzsXxFGYqLC2Ke624xHblMhvETxqG93dJj3JKaIochQ4e6y6HdabRRx/741a/+hGuN3JXx4kEsFuPb/+erGDMmugpef/R3U5VIJJg27XGUlc9FSkr0GnNv1cO8/FyoVVp0d/XNrhgMerjcDrS3d0BEEHh62pN45eWV0GqjS3vfvNmCTRU7ceNGc1yvkw8qlRIaTQouX67vsentr+8lEcTSyFCrNUhJHVq+IyPEB8uy8Ho88LicnMTVUhWKjcWjR69P9DqGdwDwzz+ETJ/4AMDVdAVSo/DjfoHODliOHUags12wa5BkACwCMJl4yPempWH1miURx8IGcwTJ7fZi755DOHbsTMzOc4IgQg1zSxbE3KlRJImdu/Zj27Y9CAQCMKSnIzcvF2BZNN24AbfbA41GjZUrXsSs2dN5p11/9KOfAqwY3d2Jn5cHALlcBkOGBk8/8wRmzniG9/Fcbqp8sis3bzZjw4b3UF9/FQRBYMyYEni9JLweP1RqJZR32fQ+8MB4rF23BqML8qOe0253YNu2kE2v0AZIYokEOTnpuHq1ET6fn7OjYLwEg8GQRkYE+V6hNTJGSD5kIACnM/LmqT9Slcr/Li4oeD3RaxHsEzVr7hK2t61mNOIKAP7pdcjSDHyXFhVfZwuQIgIRp0Y7F2i3C9ZTwtv0MmwA3d3dnH8wZTIZFiyYjSVLyvvs9sIjSB6XG2yEZJWQI0jhUbldOz+Gz8fLZZpXw1xvMR0g+qgjV1595R/h8fowedJE2OxuuF3cpy2iQhDIyc1E861bcDqd+OdvvIYZ05/mfHg8N9XCwlB2pagoenaFZVmcPvUp3nn3Q1gsNkgkEhgzM9DZ1Q2apmHMysQrL6/Al7/8aNTz9OcoKBSDYtPr8UT8+4/Y9N5fRPNpiIUyNXVGYWFhZaLXNIQCgFxIpfzGWBIdAFBuJwIeMyRKYZT+2CAFx6WLcHx2BkyErt6EXAMsKMoHh8MWUXWvP6Y8+hC+sv5lZGb2/XtGHUGSSEIjSALJ99bXX0NFxU50tA9szCzTaMCypYsw+cHYznv1DY3Yv/djyFNSUFY2H3l5AysFXbxQhb/89W2YTBaoVEpMnDgBt261IUjF3+uRYdDD5XWirbUdIpEIs2dPx0svreDUjEhRFI4cif+myie7Erbz3b59L0iS5OUx0LvHQ0jS0nRgQeH6HZvep6c9iVdeWhHTUTAeuGhkaLRaQYKOEZJPrEAvFlKp1DS2tDRTgKUJFwDMnreE5TNnnZmZCxnvAOAHkKUlpkmPZWi4bjdAZkhsRiGM90YTrMcOgXI6BDk/AAQCPpCkBw4eNr2FhQVYt241JkwY1+cxTiNICqUg6f6uThM2bd6FujhH5fpj/PhSLF/xfEIa5vhAkiT27j2ErVt3wO8PwGjMhNGYjbZW7pMYAOJOoYdJ5E1VLpfhuTncsis2mx03b9xCSWlxzKAhVo9HIklJTUF6evxyyHwZahoZIwiLz+uFyxW5SZoLBCFi5UrFCyWjRu1I8NJC5xfipADw3LylbIDHLjeuAODrP4AsPTEBgLOxCrKcxIv9kF1dsJw4DH+rgDa9QQpgSXR1c98lq9UqLFlaFlm+dxBHkGiaxtYtewSVcJVIJHh21tNYvHjugF6D1ebAmVOfQaFQ4KmnH+M07dDbH37s2FKAlcBsjm5SI5FKkJeXiStX6uHz+WFIT8PK1UswfdpTnNYq5E0102jA8mXPY9Lk8QM6D58ej4EiEokxqiALjY2NcLncUfteEgEXjQylWg1iZKL/voAkSbjsNlA8+uAikZqq/HZxYcEbCVpWH4QLAOYvY/mkoI0ZuZDK+AYA34csfeCZEdeNekgzE6snQPt8sH96Bs6qiwArlHwvA4Yl0d3dyfkHUyIRY86cZ7FixYtQKO7tKB4KI0ht7R3485/eQVeXcAJIAGDMSse3/uUfYEjn/75HSqHrtFosen52TM3+MNeu3cCGje/iWmMTJBIJJkwY10ezP0ykujRXm14AOF75CT74YLvgzXPzF8xEeTl/3f6B9HjEQ3Z2BixWEzo6uqL2vSSCWPK9Iza99xc0TcPtdMLnG1ifj0Qi9UmkklUlhYWC7Px7riPkyfkwWFLAflM7JGnRR494wdBw1lQJa9PLAlTQD7fbDi8P+d7Jkydi3brVyI8wxhQI+OF0OHrG3+4mmSNIDM2gvuFKaC7fH4TTkdi5ebVSiVSVFPX19QjGIQXcXwrd7nDg3Xe34uTJTzmNIJaWFuFnP/v3HnXCmpo66HU6FBUXobm5AyzDINOYBpqmUFsb0iqYNn0qZ5veu7ndehv5o7Jwu1k4idzsnAy0xJHlSlSPBxf0eg1kcjHqLtcBiN73kghia2RoIeO56RlhaBIK9Nxwu10DauwWiUSsVCY/rFOrXszIyBBc5EI4N0C+N/Q4/mYD3c/QPjeCQQ8kqYkJAHy3b8Fy7DAoqzDjXkCozh/kKd8bTVkt2gjSYMj36vQ65ORko6H+KlJS5Jg4cTxaW00DVnqTSCQwGvW4erURgRYSmZkGqNTcFR65ptBv3WrBL3/xR86a/dOnPYVHpzyMzZu348CBI7hw4SIyMjOgUqaisbERNE1j3LgxWLduNYqL45vxJwMkLl2qwpgxJZBK5ejsSFx2RafTgGEp1NXV4bHHHuF8nFA9HpFITU2BMSsN1dV1CAYpFBWNxrp1qzF+/FhBrkeRJJxOB6hIvTMCa2SMkHyiNUnzQSaVtYrlsheKR406l6ClxUSwX/W5C5czPp+f8/kzM3J5R8PF//g9yAxG3msDQjtN161ayI0DbwajrFZYTxyB96aQNr0UCBGNjg7umgFhZbVFC5/rV753KI4ghZXlNlVsg9cb0trPLxiF1tv8GubC5OQa0d7RCovZCrlMhvk8Ur4DqUvz1exvb+8MqRNeqAYQXY+BD50dXfjd79/E1avXIRaL8eCDk2A22eHxxG8wlZIih1avwtWGq6BpGvn5efjHf1wX02PA4/Xh4P6jOHz4FPjohMRFL6XBaH0viWDEpveLRbQmaT6IJRJPilT63cLCwj8naGmcETAAWMH4fL4hGwA4Gi9BnjOw8S7GH4Dj/CdwXDwHVqCGNZZlwTABmMzdnH8wo40xxRpBkspk0Gi0nOvLfGBZFvX110EHg5gwcSzE4ug/wi6XG1u27MD+fYfAsCyKigohFcs5d7CnG3SgKD9u3mwGQRB44onHODvgJbIuzWcEEQCuXr0Ou92Ohx6eDHmC3geWZfHJJ+fwzjsfhsYRlQqMHTcWrS3cP1cAem6qN5qa4HK5OWvih5UGt2zZI4gccm+ysjNgt1vQ1tYRte8lEYRV3dyuyL0z8pQUaDRaiAXUFhkheTAMDZczcqDHB5FIxEhlsg9bCwtfnUEQAkfDkRnWAUDR174HeQb/AMB1sx5Sgz7utPbnNr0nQQ+w2aPfawAgSR+8Xic/+d4xxVi/ds3/Y++949s6z7P/62xscE+R4NSW4yEnjp0m3patbe0RW8NJ++svXWma9tOkad63Sds0o03SNklrK/HWsi1ZcmwltmMnlp3Ylq29uMW9CYAEcBbO+wcISqJA4AA4Bxx6vn9SxMFDCjzPfe7nvq4LtbOrr/k3SRTh93ojqoFxmC1Bam6OuM01NETc5gqL8rF+/QosWnSt/HA8jQ3NeGLX0zh/vg4Mw2D+vDnwDo5gZIKN2WazIDvnsrSrqroCO3Zsxby5s3Wt1axzaaMliKoaxjvvvI+Pjp1EWXkpliy5Cw5H/P+/qC7/xZdegSxJKCoqQL7OON+iojwMDQ2gvaMzKYOkCxcasGf3QbS1mR/T63TaYbtCJhmZe9mKsrJSU94vnn2v2R4ZhMySqNDTDUVB4IVjKseumFtebp4NrJ6lmHXhzBQAX4WQn9zNNNTbCY1VQaVoshG61IL+t9+E1NeT0uv1ELHvldDb26v7Nbm52di8ZV1s+94EEiQzW5NDXi9efGFit7kbPjEfGzesRF5+/Gl8TdPw9m+P4umn92JocAgOuw01tTVob+sd62SMxfRerEMwEER2dhY2bHhYd0zvsH8Yjz/xPM6euZjaD6sDlmWxZMmdWLHygbSuE2tTtdusWLbiPtx55x0Juyt9/QN47rl9ePutowCA2bOroSoUhoaunTtyOe2wOnicPRM5r7/hhgXYvmNLQk/8gUEvDrz0Kn7/3rFkf7yk4TgWRcW5OHv2HCRJRklJEbZv24ybb4mfKJgqiizD5/VCijHoa7ZHBiHziKEQ/N4hKGme87Mc18fR9Kbq6urXDVpaWpj26Xxw+cZwIJBMAVACnk+uUq7647+BUKBfu6+ERhAa7ADrTH7oTx4axODRt02N6VVVBaBldHV26a4w451pJ5IgmWnfG5XK/fKV1xEKxVdDRANnVqxaAmuCc/lAIIh9ew/gl6/+CoqioqS0GPl5BaC0MNo7O9Hb2weO57F82QNYs2ZFUtKuE8dPY9++Q+jpia/JTweaplBWXoyvfe2vUnq9nk21qLgA69evwMKFiYfcTp8+h11PPIOWS63geQ4LF85HV+cARFEa21TPnDkHWZZTiOl9Kym/81SIxvS2trdioH8QDocdq1YtS5gomCpjszPD16a3kZjemYciy5Eh6SQk7bFgWTbEs/w3qqoqvmvQ0gzBtALgoRWbwiMjAXM7AMkUAJoGb9NpCAXJ+QZEY3q97/8emmkxvZFz/oHBvqSsWW9ZfCO+8NijMc+040mQWI6Dy0QJ0smTZ7H7+YMJzW3Gk4yWfvzAXJRkYnrH89GxE/j2P38fNTVVUGTAP0E0cKoUFuViaGgQPT092LPn50m9NpVNVW93RVVVHDnyJvbseRHDwyNwu90oLMxHV1c3fD4/HA471q1fhSUP3AuWTXzOn6mY3vz8HITEETQ3X0oqUTAV9HhkON1ucCSmd0agN6Y3ETRNawIvHOY5dkNZWVnqU7cmMWUKgPz8EggmdgC8F49DSMbpLxrT+9u3oAbMi+kVxSBEeQQ+r3773ngyprgSpGhr0u4w5T++9VIHdu8+iLo03eaSifP94INjOHToCHiex6pVS7FwYepudD09ffjmN/9lwmjgVHE6bGB5GvX1DQCA2z61GH/z1T/X9VpN03Ds2Cns3/syBgaTt5FOJc73tdfegKqqY+f8mzatTbipjp/xMBO70w6383JMb7J2yMkyVTwyCOaTaEg6GXhBOE9x3LLa8vIGg5ZnOKYVAEtXbAoPm1wAVH7xK7AUJp7kH2m5CCbHpXvoT+zuxMBv3kCosz2p9SSDLEfO+Xt69J/zx5MxqeFRB6opHtOrl7HAmQRaeqORFQVHjryB3c+/gGAwhKzsLHg8npQkiBzHoKg4b6yFnmysrJGbajJxvm1tHbhwsQ7z5s5JOLCYaMbDSBiGRUlpLi5cqEMwGEzaDjlZpppHBsFc4uU0JAMnCAO81bqzsqTEVBc/IzCvAFi5OTw8PKL/CCCvBLxgfAEgDnRDpSTQOqKGMxHTGw6HAU1Cl1H2vdAQGJ54MpUXBLhc5iSLaZqG19/4HQ6//GvTLFwtFgHLV9yPe+/9o7SKF0VW0NPbh8LCfF0zDwODg9i75yW88frbCGsaKis94FgL+vuHEr527Fy6tRUDg4NJx8oOeb049PKv8c7v3jd8U62oKMPGTYnjfBORzIyHEZSUFqKrqwO9vX0QeB6rVi9Nyg45GaayRwbBeNKJ6b0SmmFkwWL5XrXH8/cGLc10zCsAVm0JD/uHzR0C/OJXIMQpAJRgAKGBVrDu+NapmqLA+/ExDL3/LjSzYno1QJYD8PkHk7phxpMxJZIguVxu8CZKkPr7B/Bv//bfGBwwL+EQALLcTvz5l7+AWSmENY210PcdwsDAELKy3Fj9sL4nYQCor2/Erl3P4MKFetAUhTlzZ2PYH0IgEPtmkV+QjVAwgOaWS6AoCp9NMlb2+PHTePx/n0/bXCQeFEVhxaolWPrQ3Sm9PtUZj1TIznWDgoq6uobLXg6PbkJ+XmIvh2SZTI8MQuaJFnojIyNpPfBRNK0JPP9Gttu9Jjc3V/9Z7hRg6jhTpFCKaPHGMzQNgY568IXxfQICjQ3of+vXULzmbWKSFIKiBjEwkIR9b2kxtj+6GTff8olr/k2RZXi9XsiTLEFSZAVNTQ2YO6cWg4PDEEVjJ745jkXprAKcOXM2Jd/+5uZW7NnzMhrqm8e+NjTkxc937cZbvzmKDRsTPwnX1FTh29/+hzEJ4rlzF2CzWVFdXY3Ozn5ooxuFw2GHy3X5XDrVWNmLdfXIyXUZatc7npwcNxoa6gEkVwAYNeOhh2hM75kz56CqKqqrK7Fjx1bMnVtryvvF98hg4HC7SEzvDCLdmN4oAm9ppHh2ZU15+WmDlpZRzMsCSLqgSqkCmBBf/XHwxRN3B8Sebgy89QZC7a3Jv69OIjcTGT29+s+Po/a9sWRMU02CZHPYYbfbcObseTidDsyZMxvNzZ1jm2KqUBSFkpI8XGprw7FjH8NmtSIricluPS30pqZWfOdfRz371y6Na2ZDjXr2f/KTt2DfvoN49ZVf4dSp0ygqKkRRUTHCYQUXLtSh5ZKIvNwcPPLIRtx+x6dSKsCCwRDOnDmDmpoqUBSHAR1HDnqxWC1wu604f+4CGEb/H2gmY3oZhkJJaSEaGhrQ3t6CnOxsrN+wWreXQ7JMpkcGIfNI0ug5f5ryVI7jfDTDfKm2quppg5Y2KZj2qV6xeqvq9fl170RFBbPA6jinv5LKL/w1LEXXtsaHL10Emx176C8cCmLw92bH9KrQKBU93R26M+1pmsZ9992JjRvXXLMZRSVII/rycckAACAASURBVD4fwhNKkLJM0T0nYnh4BAcOHMbhQ0cgKwpmlZbA5cpCd3dqgUj5BdkIBgNoGW2hJ9PyVRQFb7/9Hg4eOJLUMYvNZsWSB+/Gvfd+BqyO32FnZxeee24/3n33/bGvGRUr29zSih//6Gdobr4ElmWwYMF89PV4EUpDh0zTDIqKs9HQ0IjAqEHSn/5/OxKa5GQ8prckHwMDfejo6ALHsrj/gbuxcdMa2EyYsJ9MjwxC5jEqppdhGFWwWJ6oLC//E4pK/jF3qjFlCoDiollgmCQLgMe+DEvx1W5k4kAPwgiBGq9xz0BMLwDwPIvunlb09fVh9uwaDPZ7MZzAMzqejEkSRfh8sStWsyVInZ3dCAVFVFSWJdblt3dGdPkfnQQQcZaTJcDn0+f77rTb4XRfbqEn2/I14ly6sDAf69cvx6Ib9EkJPzp2Am+88Tayc7KwctVSw86lw5o2FhPs9frgcNhRU1N9leuhXkpK8tHX34vOzu7Lw6Q6NtVz5+qwZ/fL6OhILYApGdxZLvACjfPnIiZb6Xg56CGRR4bb7QZHYnpnBNGY3hG/P/6RcQIoALwgHIXNtrq2uFi/dGuKY14B8PDnVa/Xp78AKC4DQyc3qT6+AAhLIQR6WsBmXT30F7zUjP63Xofcb15MLwA89NBdKC0twFf/9utjX/N4ytDfPxSzE1BYkI9HHt2E225bfM2/KaOTqdIkSJDGu815PLOwYeNK1NRUJHzthx9+jF27nhnT0s+eU4vu7qEJtfQMw6CwKAf19fUIBkNJt3xbWzuw+3ljz6XnzavFxk0rUVycWtDURJw+dR7vf3AcxUUFuPuez0AQ4he8IyMBvPTSocvdlVmlcDvd6NLRXcnKdoHjx22q27eisCi+EVZ3dy/27TuMkyfO6v/BUiTqNHj69DkoiozS0hJs374ZN910gynvJ0sS/D5vzAFLsz0yCJnHqJhejuc7Bat1bUVp6bsGLW3KYF4BsOYR1Tvk1V0AlBSXg6aTa2FfWQCENQ3DDSfBF13WLSuDA+h7+00Em8z1YVh0wzxs2rwC9lGJ3tF3f48nHn8KXV2RgJVP3HgDLl64vAZBELBmzQqsWP7ANRPFkylBkiQZR478JqbbHEVRuOWWRVi7bjlycuKrKsZr6bOzs1AeQ0tfUlqIjo429PcPjLXQ16xZCas1sXJh2D+Mlw68hqPvfGDKuTTLsbj3ns9g6bL7Em7UiYi1qbqzXFix/P6kXQ+pUSWCGFRidlesVgGFRbk4ceJ0UptqIBDEaxmK6aUoCqVlhWhuaoLX69OdKJgqejwy7E6XKTMGhMxjWEwvxwWsgvA3FeXl/23Q0qYcpn3iV655RB1KogAoLSkHRSVZAOz8K1hKIm1zb90JCMWRzT8shuD94PemxvQCQH5eNrbv2IDSWdeapciShJcOHMbu3S/A5XbC7wuAoij80Wc/jc9vXY+cnGvtWYPBAPzeiSVITpcbvEkxvVdK5eJxOeP+roSa9oGBATz99F787nfvQRvV0ttsTlAA/MNetLREBjDvuP2T+LzOmN4oP9+1G+9lIGRm+fL7sHzF/Sm9Vs+m6qmYhY0bVqJaR3fl5MkzeOKJp9HW1gFBEDBv3hx0dvZDkZWUN9Wofe/+/Yfh13lckw4FBTkYCQzj0qXWpBIFU2EyPTIImSesqvD7DYvp3e+trNy6mKLMDbOYZKZOAVBaAQrJTa9X7vxLWErKEWhtAJ1lA0CN2vf+BmqaH4J48ByHTVtW4qabFiR8ehsYGMAvfv4cvD4/tmxZF1MWJkkS/EODkGNZjZosQWppbsOePQdRf4VUTg/5+blY/fBDWLw4cbv2Si39lVRWerBjxxbMn584Eng8//qv/4HBwSGoMgWfCfny7mwXKKiYPacaj+38fFKvTXZTTcb1UJFlHDp8BPv3H0QoJCI/Pw9FRYUYGBhEe3sHWJbBkiX3Yv361bDb439mLl5oxO7dBzIT0+uww+a8HNO7aNF87Ni5NWGiYKpMtkcGIXMYHdMb5rmVc8rKzLOBnUKYVgCsWvOIOphEATBrViWgJbecip1/CcZqhRIOQOzpwcDbb0DqNS+mFwDuued2PLj0bkMm7lVVxfAEFSsFCjaHuTG9RrjNzZ1bgw2bVqI0gWVsWNPw5pu/xeFDRwAAy5bdj7vvSV3a9eMf/Q/eevsdCIKABQvmoq2tL23PfiByLp2T58TFC3VQFBVr167Epk1rdL8+nU31cnflbrBc/M/X4OAQ9ux5ccypEJjKMb15OH/+PEIhEUXFhdiyeZ1uO+RkSeiR4XDCZicxvTMFMRSCzxu70EsGluP6bIKwpby8/FcGLW1aYF4BsPZRdXBwSHcBUDarElqSBYDn838KSfLBf/I4hs+Z68MwZ241tmxZDbfbkfa19EiQnO4ssCach6YqlYsHw9C4/Y5bsWr1g3A67IZcMxGSJOGVV36NF144ODpn4Mas0lno6EjRQIeiMKusEE0NjfD5Lyfg6T2XNnJTzS/Iw+rVD+rqrjQ0NOH48dOYM6cmYRBSvBkPMygpLURHZxv6+waStkNOlngeGcDo7AyJ6Z0xxMtpSAaaYUSOt/xjbaXnOwYtbVphWgGwet2jysDAkO4drLysCsnOctmqaxFsbjQtphcA3G4ntm1fj6rKMkN+W/EmU82WIB0/fhp79xwyzcLV4XRg9eol+MxnEg+2GcXAwACeeXYffvv2u2NzBiwjYCAJe+L8gmx4fUPo7Ogai5Xd9uhmXefSZm6qc+fVYMPGxN2VRCQz42EEeXnZkOQgmppaLsf0JmGHnAwJPTJ4Hs6s7EnxyCAYz1hMbyD2kLRepnpMb6YwrwOw7lFlMIkCwOOpgmru8HFS0DSNdeuW4tOfvhkUnf6vabIlSIFgEP/4te/Aa3DG/XgsFgFf/us/RkVFatGsFy804pevvgFRlHDPPZ/B4sXXWiHHoq4uMmdw8eKVnv0iAoGJ/7adTjtsjsvn0snGyjY0tOBnP3kaQybaSDMMg1WrHsADS+5K6fWpznikgs1mQXaOE6dPn0U4HE7ZDlkvcT0yGAYOF7HvnSkYHdNLa9rympqa+sTfPbMxzwo46a2MQlxv3wxyxx2LsWr1A+D59FuV4bAK/1SQIGlAe2cbFi5agI72XkgpeOvHJdpCb2yCnIL8ZnDQi5deujpWtqG+Gb95811s3LQSZWXxUx9ra6vw7X/+h4iBzlN7cO7cBdjtNtTW1qC9rQfh8OXPFsexKCjIxvkLFyBJcsqxsvX1DRAsLGBiFpLVasGFixeTLgDMTBQcD00zKJ2VhwsX69Da1oKcnBxs2boWn/vsHaZ0guKlt5GY3pmHUTG9LMcNWjjusYqKihcNWtq0Z8oUADRFQZ3kAqC8vATbtq1Dbl522teaahIkjmXA8xyOHfsYeXk5qKioQEtLhyGbQ15+Nnz+IZw4fgIsy8CVhG9/ohZ6XV0jvvVP/4FP3XYz1q1dBqdr4hkMetSz/9bFN2Pv3pfw2muv4/jxkygpLkJ2Th6GhoaRl5+FSy0tOHmqHRaLgK1b12P5sgdS+n8IBII4e+4sZs+uhiIDXq9xaoSoQVJdXR0YVv8TjxkzHvEoLs5Hf38vjh8/CZ7nsXr10rTtkCeCxPReX8TLaUgGmqYVThB+XFtZ+WWDljZjMK1Efnj9NqW/f1D3X2JV1WxI4uScAdhsVmzbvhZz5lQbcj1RDME/NAQlxjk/MypBEiZBguQfHsG+vS/h1VdfRzgcjmTccxb096V2LpxOCz16Lv3C/sPo79eXkpisZ3/EQOc5fHTs+FVfNypWtrmlFd///n+io70TPM9h/vy56OwYSNtIp7A4D12dHRgYGIQgCNj26Cbc/0Di5L6TJ89i9+6D6OvNQExvtgs0E8bFixGDq1sW34jHdj6CgoI8U94vnn2vmR4ZhMwTte8dHvanFdNL07TG8/wbVFbW2uqcHHMzy6cpU6YAqK6aY3icbCIoisLy5ffgzrtvB2PAdPBkSpBGAkEER4LIy7/WYGg8TU0teOKJZ3Du3AXQFIW58+fA7wshMKKv0o620M+dvwBZlpGfl4uNm9fobqG3tLRhz+7Uz6ULi/KxYf0KLFykzz/gww8/xpNPPo+Oji7MnVuLbdu2oLa2KqX3Ho+iqHjtyOvYs/tFBAJBZGVnwePxoL21O+nuSla2E6oqobn5iiAkHQZJnZ3d2Lf3EE6fvpDOj6ILq0VAXn4WTp85C0VRUFVVgR07tmDevDmmvF88jwyaZuAkMb0zCqNiejlBaBEsltUVpaUfG7S0GYl5BcCG7Up/34DuAqCmeg5CocwVALcsXoT165fCYsCTuC4JkkmtSVGU8KtfvYVXX/0NFFnBnDnV2LBxJWbNKk742g8//BiPP/4Uenv7YbPZMHt2LTo7eqEoE//xFY0+nfaPPp2uWvUQVq9aeo2lcSy8Qz68fOhXhp1L3/CJ+diwYYVuB8FAIAibTV9wUlt7J97/w8coLMzHbbfdnFAK6PcPY9++A2PdlVmzSmG12DAw4Ev4XlarBTm5l4fnqqoqsGPnVsybOzvu60ZGAjh8KDMxvdEZj8aGBvj9w3A6HVi7biUeevA+U6R1k+mRQcg8siTB5/OmND90JSzL+llB+FKNx/OUQUub0Zj217Nmw065r69P94xBbc08BIOZOLMswKPb1qK4OH4oih50SZDcWeBMOOePus29sP8V+Hz+q/4t6iy3ft0yOJzxfQtEScLBA6/gxZdegSxJKCzIR0FBETo6rjZUysvLQkgMoKWlFRRF4bOfux2PbN2ArOz4uQCAuefSDMPgzjs/jRWrlsBqwLlzdFN96613xwKcCgvzsWGDvo5DY2Mzdj3xDM6dvwiKojBv/hz4vEEEA9cOrNE0jaLiXNTXNyAYDMLlcmLN2hUJN1VVDePdox/gwEuvwj9srqoDAIqK8jA0NID2js7LiYIb1+guppJhMj0yCJlHDasY9qYf00szjCoIwlNVHs9jFEWZXA3PHEwrANZu3Cn39uovAObMnoeREfMKAEHgsXXratzwCX1Rr4mIN5lqtgSpqfESdu85iKbGS3G/z26zYtmK+3DnnXeAYeI/pXV39+IXv3gO778fMbKpra0GQ3NQw2GwLIXz5y9C0zTMnTsbO3dsRVV1Yu96AAiFRPzTP/0HentSNOjRSVaWG//wjb+EM0HBMxF6NtVkUgKv7K4IgoCammr09gxAVSObWlFxHvoH+tCVZEzv+XP12LP7INozENPrctphdfA4e+Y8gIjT4I4dW1FWVmrK+02mRwYhsxhm3wtAsFj+AKt1+UyK6c0U5hUAG3bKvUl0AObOmY/h4fRcnSbi/gc+iyVLPmdI0lgiCZLD6YLdbjdFghRLKqeHouICbNiwAgsWJD6nPX36HHY98QxaLrVe9fVUpV1Dg0P43vf/C8MjIgLD5vht2KwC3NkO7Ni5FZ7y5L3lk9lUk+k4iKKIF154GS8fOgJZkpCfn4fi4iL4/X40NbUAAG699WZse3QTihIUFT3dfThw4FV8+OFJ/T9YikRjes+cOQdZllFSUoTt2zbj5ltuNOX94rV/aYaB0+mC1UbO+WcKRtn3cjzfyXLc+mqP5x2DlnbdMWU6AHPnLsSw39gAn/nza7F16yrYDbKnDYyMwO/zxpYgWW1wul2gaXNiet988yheOfxriGLqZ2Q3fGI+Nm5ciby8+IOCqqri1ddex4GXXoEiy3jwofuxavVSCClMWXuHvNix889gsQhYsGAeWlt7oMaZMUiGaAu9sbERIyMB/Pt//HNS4TLpbKrJxPn29Q/guef24e23jo59raS0GNsf3Yybb4lvdDR+xsNMKIpCuacYzc3NGBgYhN1uw+rVy7Fs+QOmOOklium12uxwuEhM70wh3pB0MjAsG+J5/mvVFRU/MGhp1y3mFQCbHpN7e3p13zXmz1sIn8+YAiAvNxvbdqzDrLISw37AkZFh+GM4vnE8D5fLrWsILhVOnjyL5587oFsqlwiO43DPPXfgoaX36tJqa5qW1qCVpmnYv/9lvPjiIUiShPy8HMyaVY5Ll9JLoCsqykNffy+6u3vAsSweWvoAtmxZq6vLY+Sm6vHMwsaN+uJ8T506iw8/+Bhlnlm4687P6IrpjTXjYQb5BTkIBofR0tJ62b73kU1wJ+HpoBcNGkb8wxgZ9scspgWLBS6XGwyx750RjNn3jsQektbL9RTTmylMKwDWb/6C1N3do3v6bcH8RfB60xto4jkW6zcux+LFNxg6HazIMvp7e6758DqcTjicxt8ggYiF6+49B9FgkoVrTrYba9Yuw62fTL+tOzDohUXg4w6Fjffsr6qqAEsL6E/Sm96d5QIv0Dh/LiJ5i5xLb0GZjid/szZViqJwyy2LsHb9CuRkp+93r3fGwwgcDjvsV8T0LlgwFzt2fD5lK+dExD3nZ1k4DfDI0DQNkhiCqqoIh8OgGQY8x2fMdIsQwahzfoqiwHP8aY5lVlRUVDQZuMTrHvMKgE1fkLp79BcACxfegKHB1J3U7r7703ho2T2mtCr9Xi9GRq5emyAIyM41x/REURT87Ve/Db8JOfdXQtM0vvzlL2D2nNS82q9soY+dja98AFbrxDfws2fP4/EnnkZLcysYhsHcObUYHBxO6AERPZc+ffocFCVyLr3t0c24ZbG+Aqarswf/+/izaL3UkdTPmAwWi4C1a5fhs5+7LaXXpzrjkQosy6K4JA8XLlxAMBhK2Q5ZL4osw+f1QprII8PphM2WnkdGOBzGsN+PUDAQUxbJcRzsDicsCQYtCekTL6chGViO6xMEYWtlefkRg5ZGuALzrICp5G5gyWcHRJg9pwqbt6xCdpY5T+IAYjr6mTmNrIXD6OvrRE1tDdrbek3ReEen0IeHky8yJEnCkSNXt9BVVcUbb7yDP/zhIyxddi/uuuuOmFK2+fPn4nvf+1bEs//J3Thz9jwcdtuEPytFUSgtK0RzUxOOH2+H3W7Dxo0PY/my+5N6ojt99hxGRoydMRmPqir4+PjJpAsAo2Y89FJSWojOjnYcP34CAs9jw4bVur0ckiUcDsPv8yIUCFzTQaMAWO0RPX86XgJ6g2JkWcbQ4AC4EXOP7a5nlNEhaSnNmF6GYSRBEL5bVVHxdYOWRoiBaQWAlmQlTyV5A3A67di2bR1qajymh36wDIPxzy2RQZbEcbGpQNEMwmENx4+fRGlpMbLceejqMkZG585ygaJUnDlzBgBgteufrtbTQh8eDmDP7pfx3rvHsGHTStTWVF7zPVd69r/00iEcPnQEx4+fRGFhAXLzctHbE7GyLSjIQSA4jBPHT4CmKHzuzjtSjpUNBoNoaqrHwoULMNDvw4hO10O9FBXnobOrA01NyR3ZGD3jEY+8/CxIUginTp0ERVG4/fZPpm2HPBFjHhl+f8xN2aiYXkkU4fd6IScRFCNLEvr7ekl2gIEkymnQC03TGi8IB2yCsLWkpMTcip1g3hHAd3/0s6UXzp5/sq6uUdfd5cZP3Iw+HZ70Rsf06kGRZfT19lzzdbvDAYfLbcovsaO9Ez9/8jl8dOwEAEQCZyTA60vtWOByCz1i4ap3Cj1KU1Mr9uw+iMbGFt3vGT0bX7N2GXJzJw5Yam1tw65dz+LkyUhRUlY+CxSA1tZ2aJqG+fPnYufOraioKNf93uOpq2vEv33nhxgYHESW243Zs2vR2NQOLc3uSl5+NkKhkbHhuTVrV2DjxjUJX3fpUjv2PH8QdfXmH2mOj+mtrq7Ejh1bMXdurSnvJ4ZC8Pu8MTMRWIaBw52VtgOnUUExJD0wPYyM6RUEoY5jmJUVFRXnDFoeIQGmf+L/+V9/9E8ffvTx3/X3D8Qt9W+66Rb09sR/CvrUbTdhzcMPQrBkvnU3MuyH33etrav5KoAzeOKJp9HW1gGB5zFv3lx0dw/ojvO9soXu9frgcNixatUy3dKuoSEvXnwxvXNpnufwwJI78eCSu+K27T/88GPs+vmz6O6KFFu5udnYvGWdYbGy410PZ5WVwuXMRndX8v4h4zfVmpoq7NixFXMSzFNE7ZCPvvOB6fa9V8b0BgNB5GRnY/2G1bjn3s+ZIq2L1/6NbLROOByOtDbaRE6BqcKwLJxOF5kPSIJI92UoZk5DMvA8P8jS3Berqjz7DVoaQScZKXl/8IO9Of2+xmc+/OCjJaGQGPM9b75pMXp6YqeYlZeVYtv2tYbE9KZDYGQEfq8XWgwxi5k+AGOBM8+/iEAwiOycLJSXJw6cuVLaxTAM7r77j7B58zq4XImPLsw4l87JdmPl6gfx6U/fMuH3yJKE937/IQDgttsW60p483n9OHLkLfT3D+D222/FDZ+YH/f7r9TlR+16xREFQzqUAddsqjoNklRVxVtvvZvRmN6+gT50dXaBY1nc/8DdupwGU2FM5hWIE9PrSv9vI56CwCh4QYDL7QbLEsXARBgZ0ytYLD+r8nj+jEp2aIxgCBntef3wh/97S0Nz096Tp85Wjb9RLL7lk9ecc9tsNjzyyGrMm29OqzIVFEWB3zsEUbz2Jm62E6DP58f+/QfHAmeqqirAssI1cb4Opx32K2J6Fy2aj+07tsBTri+m98MPTuCF/YcxMGhOgua8ebXYsHEFSkqK0rrORJvq3Hk12LBxJUoTXP/UqbP4+a5n0XKpFQLPY+GiBeho752wu1JcnI/+/l50dnWD53ksXXof1q5dldBP4eTJs9iz+2X09vYn/0MmSVa2GwyjXhXTu3PH51FYmG/4e2kAQoHAhO1fo7pjsizD7x2ClGZQjF4oioLFaoXT5TYl6Gi6YlRML0VR4AXh7eHs7FU3ZWenlkVOMIRJOfT61r/84E/Onr34/faOzrEJtFsXfwqdnZdbsQ89dBfuvf+PDInpNYN4Mhez24n19Y3YtesZXLhQD4ZhsGDhfPi9I1AUFfkFWThz5jxEUURxcRG2bduExYtv0nXddGN6k6GgMBff+tbfpfz6RJsqw9C4/Y5bsWr1g3DGcYJUVRVvvvk7PPfcPvh8fmRnZ6F8XJxvdo4LNK3h4sV6AJFN9bGdj6CgIL4MtKuzB/v2HcKpU+dT/Cn1Y7EIyM/PwukzEZlkaWkJtm/fjJtuusGU95Ok0SyMGJ9/mmbgdKVv3xtWVfgnSATMBEbJE2cCRsb0Miy7psbjOWbQ0ghpMGmf6m/+5jcs/fuP/+vD9z96zOvz05+89TZ0dPTg5lsWYsOGZYbE9JpNdNJ52Bfb6IIXBDjdbnAmtBM1TcPvfvsunn5mHwYGIkcnFEVB0zTYbFasW7sSDy69X9c5//BwAK8czkysbLSF3tLSiscf/2HSr+/u6sXevS/r3lTtdhuWLZ9YlhjF5/Pj+ef34/XX3x7rrrhdWVBVGWfPnYeiqJHhue1bMHdegpjeQBCHX/7VVYmCpjEa09vU0Aif3w+nw46161fhwSX3GpJ9MZ64Mb0UBZs9/ZjeRH9XmcYog6LpiCxJ8Pu8aXdfWJYd4QXhy1Uez/8YtDSCAUx6Wfuf//m4p7Wzc7fblfPJpcvuo0tLEyetTTXiPamY3U4URREvvngIh15+DYqq4q67/gibN63RJZWLttBfPvgrBIPmBDFdSWFhHvr6u9HT04fs7Cw8/viPdL823U21rLwEmzauRE1tVdzva2vrwM9//gyOHz899rVkY3pfOvAahk02cQIi0sPBoQF0tHcmPeORLNHhuxH/cMwZGMFigcudlXbRYZSBjBkY9TNOB4yK6WUYRuUjMb1foCjKvOENQkpMegEQpaGpqcVitZVP5yo73lnlWDvR7jDll67IMmRFjevCdyXnztVh9/MH0dnZbcJqriYr2wVARUNDIwDg1ltvwbZHNyZMwAOM31Rv+MR8bNy0CnlxZIkA8N57H+Do0d/D4ynHsmXx3Q0B4Pz5euzd/TLa2tPLONDD+JjeRYvmY8fOrUkFISVDophep8sNQUjPGMsoAxmzMarLMVVJlNOQDBaL5Xeaal1TW0tieqcqU+YTfLG+vl6SpOqZMIU7lXPNu7t6sWfvyzidgXNpq0VAXn4WTp+JeA+UlpZg27bNuPlmfefSZm2qPM/h7rvvwNJl90EQ0htQ6+3pw969h3HixBmDVjcxHMehpDQPp06dgSzLKCouxJbN63D77Z805f0yUdAaZSCTaWZiTLEYCsHvHYrpfJoMHM93cjS9saqq6rcGLY1gElOnAGhoqJNEsQYYrbJtdtincRRoIr3yZLQT33j9Hezff8j0c2mGoVA6qwh1dXUYHh6B0+nAhg0P4/7779L18/b29GHfvsM4ftzcTTUvNxt/8ZdfQGFR6hPy3/jGd9HVea1JlJFQFIVZswrR3NKMoSEvbFYr1q3TP+ORLJk60goGA/D70h8sm0w4joPT7QY/SQW9ERgV08syTIjnhK9XVVV836ClEUxmyuRtUrh8sKhpGkZGhhEMBmB3OGFzmNM2N5OoJNBqtcXUzIqhEPpC3bA5MtdObGhsQHa2G3195tnOFpfkY2CgDx9/fBwMw+Chh+7D+g0Px53EjxIMifjlK2/gjTd+l3ZMb0IoCja7Bc0tl9IqAHr7ulBROQutbT1QTVhzfkE2gsEAjp84AWrUDvmRrRuQlZ1l+HvpGWo1ojsXT0Ew3ZBlGQN9fWNF0XSaDzA6pheq+khVVYX5JhcEw5gyBUCsyaJokEgwGJjUtnk6MCyLrOwcSLbRm94VnuUaIrraUCAAh9sNq9XcduLQkBcX6y5g3tw5GB4OGeqH73TYwAk0Tp+ODM/deONCbNu2BWVlpQlfO5Yx8MIr8HmNi+mdiLy8bASCw/j4+HHcefcdaV1LVRQcO/YxSoqLUFJehNZLXYas0e60wWETcO58xMth3tzZ2LFzK6qqKgy5/nhEMQTf0FDMYyujZK3xFATTnVAwCDEUgt3hgN3pTDncLBNEY3pH/D6ESUzvdc2UC6blcwAAIABJREFU+ZRebGg4L4ninHjfIwgWuLKm7xRuIt9snh+VDZqUW37q1Fn813/9L3p7+yEIAubPn4f29h6oSuotWI5lkV+YhXPnLkBRlKS9B5qbIxkDDQ36MwZSxeGww2bncP78xcimOm8OvvLX/39aT9Md7Z34+S+exUcfnQQQSTtUZKQc7sMwDAoLs1FXX49QSERebg4eeWQjbr/jU6Z0iRRFgd/nhTihfW/6PvlG5cJPFxiazkhBnwqSeO2DSCpwHNcHjnt0TkXFLw1aGmESmEoFwDlJFOcm+j6jPMUnk7HBp+HYrTczU8okScIrr/waL7xwEMFgCNnZWZhVWoqOjuTSBimKQnFxLi61tsLr9cFiEbBy5UN4ePUyXTG9RmQM6IVlWRSX5OHChQsIBkO67XuT4eTJM9i161m0traBZVnMnz8XvT1DujMbgEhMb1dnO3r7+pNyGkyFRMN3Rn0G43UWZjo8P3pkYlJBnwzqqMoiVqGXDAzLSjzHfb+6svLvDVoaYRKZMjvoxfrGs5IUmqf3+xmahsPlntZTuPGGb2iajsw/2M1xIRsYGMAzz+7Db99+F5qmoaqqAgzNY2Agsf3vlRkDNEXhjz53u+6YXlmW8cYbR/HLV17PiCd+SWkhOjva0dffD4Hn8ZCJm2o0s2HvnpcwMhJAdpYbnooKtLZ2x7VOzc5xA1BRX3/ZvleP02AqJOpCGWXfq8gyfF4vpDQHy6Y7FACb3QGHa3Jkg0apLCia1nieP+K02dYWFRWNGLhEwiQyhQqAhjOSJMZPcYmBUbnik0m8pySzXcjq6iK2whcv1oOmKNTOroHfF4oZAOS022F1XG6h186uxs7tW1E7u1rXe508eRa7nzuAvhTb48mQl58FSQqhqSlytKB3U+3rG8BA/xCqqsrBcql9pvzDI9i396WxzIbysllwOFzo7r7atthitSA393KiYFVVBXbs2IJ58+KehKVMvPavUW3rybbvnarYbHa4sowf3IyHUfa9giDUgWVX1Xo8Zw1aGmGKMGUKgLqGhlOiKC5M9fWRNL7pG96R6JzUTNlgWNPw298exVNP7YF3yAu73Yba2hq0t/UgHNauaaEnG9PbeqkDu3cfRF1do+FrH8/4mN6qqgrs2LkV8+bGt+8db4ecn5+L1Q8/hMWLU/fSb2pqwa5dz+Ls2fOgKQrzF8xDYFhCMBRCYVEu6urqMDISgDvLjc2b1+Luuz9riuw1Xnqb0fa9I770BstmMvmFRRmZX5IkCT7vUNoqC5bjfBbO8qcVFWXPGrQ0whRjyhQAF+vrT0mSlHIBAJjfNs8EmfBan4iRkQD27n0Jr732OhRFRUFBHnJzc9HZ1Y2hwSEIgoCHH16GFSse1BXTOxkZA9GYXv32vfHtkOfOrcGGTYmTBeNx9N338fSTz6O3L9IBoCkKYU0Dx7J4cOn9WLdupSkxvYm8KIySromhEPw+L5Q0c+FnOtk5ORAs5gSEAaP3Dl/69r0kpvf6YcrskhcaGk7Korgo0fdpmoawqoKJ0/KfCeEdmUhbm4iOji78/BfP4aNjxwFECo9Pf/pWPPLIJuTn5yZ8faYzBq6M6WVZBg88cA82blqTcFM9d64Oe3a/jI6O+NI9vcmC8Rg/fHnDDQuwY8dWXTLJVIhnsmOUeY1Rg2XXC7l5eaZImQ2N6eX5o4ogrJw3a5b52dWESWfKFAB1jY3HxVDoE4m+L6xp8Hm94DkOFpstbstUECxwZmWBnaayQUDPjTxL19N4Kpw4cRp1dY248caFqKmJH6IT5dy5OuzefRCdHeZnDGRnuUAxGurqLsf07ty+FYVFBXFf193di717D+HUyXNJvZ/eZMF4SJKEUEg0JbAHiKS3+XxeyLHse0ftay02W1p/+JqmYThqIEPa/bpgGAZ5BYWGd+7i2Y4nA8/xbYzAP1xdXv6BQUsjTAOmUgHwsRgK3Zjo+8LhMHw+H4DI4gWLBYIgTPiHFbUVnqwpXCPIlGQrHVLdVFPBYhGQn0LGQCAQxGuvvonXX38nrXZ1WVkJNm5aidoEyYKZRA2Ptn9NPjoKBEYw7PdPa/veTENTFLJycw21C46X05AMDMuOWDjuK5WVlT81aGmEacSU2RHrGhs/EkOhhO4xVxYAUehRf/J4T8Jmt80zQSZMW5JFFCUceOlVvPXWe6ZrvSmaRoWnGBfr6uDz+eFw2LFu/So8uOTeuOfYUafB/fsPw+8zLqZXb7KgmegaHnW54x6Z6UGSJPi9Q5BngH1vJjHq9x8lHFbhn6DQS4ZR+97n2yort91FUWR44zpl6hQADQ3HRFG8OdH3xSoAomTpkNkYpXOeTDJh26qX9z84jmeffsH0s/6iojwMDvajo7MLDMPggQfu1pUxcOFCA/bsPoi2NnNienmew5Ild2HJg3eBzbAUNRPyUaM2nOsNhmXhMnAOyTA3RYqCwAvHOIZeXlFRYX52NWFKM3XE8xSla0w83YpFliT09/VGZIOuyW2bp4ogWJBXUBgzuEVVFAwNDoAPZCZWWZYlDA31oqa2Bh3tvYYnDbqcdlgdPM6ciSQDLlo0H9t3bIGnvCzu6/r6BrB/32F89NEpQ9czHkmS8dprb6F0VhFuuinhDKshJDSQcjphs6WnhEkUDESITVSJZLfbDevEiaEQfN703RRZjuvjaHpTdXXV64YsjDDtmTIFAEVRlwAsNvKamqZNeBMMBgMIhYLT1laYoijY7Q5YrdaYT2iSKKK/txc2ux12p3mxygV5uRBlBcePn0TprGIU5xShrS39QJxUMwYkScaRI7/Bq6++ZXraHEVRqKwqQ0tzEwIj5pujxbOQNjKmV1UUDA4OzIi0vkxi9CyOIsuRIz8xzZhelgtynPC16sryfzdkYYQZw5Ta9RoamjcrqvQjWVEm1Jppmobh4eGY1fD4IwBFURAIBmG1WOIG7BjdrpsMZEmC3+eNORQ09lRoNydWua9/AM89tw9vv3UUADB7djUUGfB6kz9vpygKpaUFaG1txcDgIARBwKpViTMGNE3DsWOnsH/fIQwMDKX8s+ilqCgfITGAhoZGMAyDb3zjq1i4ULeTdVLoiel1ut3gDOr29PX2kM0/CYz2/DcwplcTeOEwz7EbysrKjIv+JMwYplQBEKWppeWroih9U1HkCQ+yJUlCMBi86oYYqwAYHo5sQhzLwmKzgYnzdMQLAlyuqRHekSrxZIMsx8FlgP57Ik6dOotdTzyDS61t4HkOCxfOR1fnQExb4VjkF2QjGBy5KmPgka0bEqb1tTS3Yfeeg2iobzbix4iL0+VAdrYTJ06cRDgcxsKF87B9x1ZUeOIfSaSKJIrw+WL7QZgx7yFJEgb6eg273kyGYRg4XW7Dfv+Jchr0Eo3pBc+tqi0vbzBkcYQZyZQsAABA0zSmubn5uyFJ+pKqqjF3ZE3TIIoiRFGEBiDLfXUYzZUFQBReEGCzWCZs+c8E2WAiBzgzbYVVVcWrr72OPbtfRCAQRFZ2FjweD9pbuyc8Sx4f01tbW4UdO7Zi9uyauO815PXi0Mu/xju/e9/0c2qGZeEpL8aZs2cRCASQl5uDTVvW4s7PfcaU91NGTXakDCs+QsEghgYHDL3mTIMCBbvTAbvDadg9wrCYXkEY4K3WnZUlJQcMWRhhRjPld7iuri77iCj+VAyFNodVNebje1hVEQwGYXc4rvp6rAIAGK3cnfGNWKKmKdNZNhjPqc1s2aDfP4x9+w5cDsTxlMFuc6Gn+3LsMMMwKCzKQX19fVIxvYqi4O2338PBA0cykijo8ZSivaMd3d3dY0cSq1ctNUVJMtmeD9EhWUJsjLJPjhIvpyEZGJaVeEH4frXHQ2J6CbqZ8gVAlK6uroKRUOgXoVBoiRYO61r3RAUATdNwuVy63tdst71MEDcFjmHgcLnSToGbiPr6Rjz+xNOou9gAmqaxcME8KKoGnuNwqe0SBvoHIfA8Vq1ehlWrHkr4ez558ix27z6Ivl7zn1Lz8nJA0RrOnz9/2Q750U3Iz0tsh5wsmYrp1UN/X29MJ8HrGY5l4czKNuw+YJh9L01rAs+/ke12r8nNzY2tjyYQJmDaFABR6i9dWhiWladlSbwxUdt3wg4ATcM5rgCIpxgAjK/8M02itDYzY5U1TcN7732AJ3/xHPr6r9649cb0dnZ2Y++eQzhz5oLh6xuPzWZFQUE2jp84BVVVUF1diR07tmLu3FpT3k8SxYjJTgx3QoZm4HCbV6DFQg2rGBoYIEUAIg8LDqcLVrvdsJulYTG9vKURHLOi1uM5Y9DSCNcZ064AiNLU2nqnJIpPyJI0oR+rqijwj4xcU2HHKgB8fj94jktoKzxdZYNR4knJgNEWswFSslgEgkHs3/cyjr7zHoqKC7Fp09qEm+rISACHD2UmUZBhaHg8s3Ch7gJ8Xh9ysrOxfsNq3HPv5zIf0wsKNod5yY96iDdQOtMxUlYZJV7AVzJwHOejGeZLtVVVTxuyMMJ1y/Tcxa6gqalpo6QoP5RlOWYCTHQ+4Mqnq5gFgM+HcDgMiqZhtVjitvoy7bZnBoosw+f1QjLRTCYdVFXFu0c/xIGXXoV/2HyN/ayyYvT39aGtvQ0cy+L+B+7Gpk1rYbUaLw2dzCHNZEk0kzATMVpWaVRML8MwqmCxPFFZXv4nJKaXYATTvgCI0tTS8hchUfy2qigxvWFlWUYwFEJYVUEzDFzjhgB94wJOGIaB1WqNa+/KC5lx2zOTeGliLMvC6c6CIJgjG5yIixca8cyzL6Crs8f098rNzYLFyuPkyYhj4C2Lb8TOHZ9HYWG+Ke+XSKbpdrtNiYxNl3iqhJmC0fMw0XP+Eb8fWhqKfgoALwhHYbOtri0uJhOaBMOYMQUAcIV0UBS/pIbDMXdlURQhSdI1KoBoB2A8PM/DarXGPRYwulWYafQ8kTrdmYtV/ulPn8THH50x9YnTYrGgqCgXJ06egKKoqPCUYfuOraaZ+UymUZORxPMlmK6YoYgxKqaX4/lOwWpdW1Fa+q4hCyMQrmCq329SYkw6GAxtDoevlQ7GGvibqAAA9MUORz3AbY6pfxOfCFVVMeyfIFI2g2fSf/d330QoJCHLnYOOjm5Dr01RFCoqZ6GuoR7ewSE4HXasXb8KDz14nykFnJ6YXjOtms1gJuUEGD3cG4npjX20lgwMxwUsgvCVyvLynxiyMAIhBtPnrpMCyUgH4xUAURiahmC1go/jFDiV27h6kSQJ/qEhyLFkgxmYSv/JT3bh9dffAkVRWLRwAYZHRHiH0lc4FRXlw+cfQmtrG1iWwZIH7sW69avgSJAomAoaNASGJ05vmwmuk4kGSqcyRst7w6oK/wTFczKQmF5CJpnRBUCUtt7e2aHh4SdDweBtE32P3+/X3a7TEzssCBa4sqbGIFcqTLYu/cMPP8auXc+gu7sXgsBjwYIFaG/rgRJDKpcIl8sJl9uGkydPQdM0LFo0Hzt2bkV52SwTVh6J6fUPDUGZYK7C5XKDn8a5E+OJN1A61TD6uMXomN4wz62cU1bWbsDSCISEXBcFQJSmpqY7JVWdUDoYCoUitsIJ/pD1FADA1JBypYsu2aBJznSyouDIkTew+/kXRp0Cc+HxlONSS4eu1/M8h5KSApw6cwaSKKKouBBbNq/D7bd/0vC1Ajpieh1O2OyTp6wwG1EMwTeUfmytGUSPW4z8WxRDIfh8XqgpFKVXwnJcH88wW6qqqn5lyMIIBJ3MzDtRApqamjZIivojWZaukQ6GR598Yw1rAZEbiXtc5oCmaZFf5AQ3Foam4XC5p7WtcLxoUrM3t4HBQTzzzF789u13oWkaamqqwTICenv7J3xNWVkJ2tpb0dfXpztRMFUms0iaakQHSkf8w2lNvhuJ0cctiqJE/hbSVETQDCNyvOUfays93zFkYQRCklyXBUCUpqamvxBl+VuKojjG/5uiKAgGg9c8zcQqAOTR77VarXGd9Hh+VF88jc9947W3zY5Vrq9vxK5dz+DChXrQFI2FixZgaHAYIyOXz10LC/MhigE0NDaCoih8VmeiYCpMprviVCfeQGmmMPrzOBbTG0jPE4HE9BKmCtd1AQAAmqZRjc2X/kWSQl+OlTo4PnZ4ogJgJBo7zHGwWq1xJ8qtVhucrun7RDiZA25hTcObb/4Wzz23H94hL5wOB2bPmQNVUaFqKk6fOg1N0zB37mzs3LEVVdUVhq8BmNx8hemEUe53yRDtSNntdkNkfUbF9AIALwjnaU1bXlNTU5/2wgiENLnuC4Aora2tVikc/p9Y0sFEscNXFgBReEGA1WJJLBucxmfCeiRuZs0/iKKIgwd/iRdePHzV5qI3UTBVJjNhcTqTKVtho49bIjkN3piKmGRgOW7QwnGPVVRUvGjIwggEAyB3qXHU19cXUCz7i1AwuETTtKt+P+FwOBI7bL9aNibLMkZGrrWrZVgWTsc1pwtXwbIsnCa2zTOBLEnw+bwxw2PMjlXuaO/E7t0voK2tE5+6bTFWrV4KYRJieqd7WFQmiP4OR2Lkc6SL0aoUo2J6aZpWOEH4cW1l5ZcNWRiBYCCkAJiA1tbWWlFRnoonHYyiyDKGYxUADHON4+BETHfZIBD/KW86xyrH/bl4Hk6Xe1r+XJNFvC5KshjtS2FUTC9N0xpPYnoJUxxSACSgra3ttqAk7RJDoQk9Yo0oAIDRtrnNDodrBsgGZ8CTsiRJ8HmHYp5f0zQDp8u8zsb1QLw5ikSYIbE1KqaXE4QWwWJZXVFa+rEhCyMQTGJ67jKTQGNb2zopGPxPJUbqoKIoER/9cSRbAESZCZuLqijwThAeM9XPyuNaIps823C9kUhJEQujsyniHWElA8uyflYQvlTj8TxlyMIIBJMhd7AkaWpp+fPR1MGrDvfV0djhK53qUi0AosyE9nK88JipFqs81UKRrifGrHSDwQlb70b/PahhFcPe9GN6aYZRBUF4qsrjeYyiqPRkAgRCBiEFQApomkY1tbT8n5Ao/m1YVa+6G8myjGAwiHA4DJZh4EijAIgy7WWDCcJjpkKsctxYZI6Dy+0GP43zHaYLYVVFMBiALMsIqyoomgHLsrBYLIYN+CWSsSaDYLH8AVbrchLTS5iOkAIgDerq6gSa434ihkKPhsPhy9JBTUNIFKEoChwJVAB6ibTNnZHrTdPWc7zAlMmKVY6ktw1N+5hegj7EUAg+b/p2xRzPd7Ict77a43nHoKURCBmH3NcMoK6uLp/muCfHSwdjxQ6ny1Rrm6fCVNh0w2EV/kQxvQ5nRosRgnnEy2lIBoZlQzzPf626ouIHBi2NQJg0SAFgIMlIB9NlKrTN0yVR292MWOXpcBxBMI4x+96R9CKLR2N693srK7cupqjM2RoSCCZCCgAT0CMdNIKobNDucoGepscCegbvXG5j/BHipdWZnWNAyCzRmN4Rv351QSwoigLP8ac5lllRUVHRZOASCYRJZ3ruGtOExkuXVsiS/F+yJJoTPD/KmK2wY/qeVcdzXktXeqcnydAo33jC5BNPeZIMLMf1CYKwtbK8/IhBSyMQphTkjpcBmlpa/lwMhb6tqKoxE4ETMBOm1eOG7NA0HG63btc3EtN7faGMOgzG8p5IBoZhJN5i+Xa1x/N/DVoagTAlIQVAhohKB0VJ+qqqKKbu0NPJbS8WemJ2HXH04OFwGMFAACPD/pjpbTzPw+nOmtaxzITLJHKf1Es0ptdqETaWlJRMXo4xgZAhSAGQYerq6gSKZX8kSdLOsKqatkPPFNng8Gj+eiwYmgHLc6AZBhQohMMqwqoKWZZjbgQMw8Dpck9rBQXhaoKBgCExvYIg1HEMs7KiouKcQUsjEKY803NnmAFEpYNiMLgkPC510EgYhoHDxDS+TBDvDF8P5Jx/5iFJEvxDg5CvcN5MBZ7jB1mG+2JVlWe/QUsjEKYN5G44ybS2ttaIivK02dJBnufhzMoGx7Jmvo2pKLKMYDCAUDCY2MiFoiAIAiwWKyxWK/HtnyGoqophnwH2vTStCBbLz6o8nj+jKMrYbGICYZpA7opThKampk8pmvZzKRSaZ9bdaLLc9swgrKpQFAWKqkTa/Vrk56NoGizHgWUYsunPIIyK6aUoCrwgvD2cnb3qpuzsIQOXSCBMO8gdcorR0tKyPCQr/22mdHBMNmi3k02SMOUxMqaXYdk1NR7PMYOWRiBMa8jdf4rS2Nr6RSkY/K6iKC6z3oNlWTjdWRCE6SsbJMxcZEmC3+eNaRmdDCzLjvBW619VlZX9r0FLIxBmBKQAmOI0Xrr0dTEU+rqZ0kFBsMCZRWJuCVODcFiF34CYXoZhVD4S0/sFiqLSax8QCDMQUgBMAzIhHaRAweZI3W2PQEgXo2N6GdhXVlUVdhu0PAJhxkHu9NOIpqamLBV4QgqFVpslHWRoBg7X9JYNEqYfYigEv3cIigExvRzPb6gqL/+dQUsjEGYspACYhly6dKlaUtVnzJQOcjwPl8sNbgK3PQLBCIyK6WUZJsRzwterqiq+b9DSCIQZDykApjENDZduDVPKk2ZKB61WG5wu4pdPMBajY3qhqo/U1tamV0UQCNcZpACYATS3tS0VQ+JPzZIOEtkgwShITC+BMHUgd/MZRGNr62NyKPQ9WZbdZlyfYVm4XW7wFosZlyfMcOIlPSYDx3F9DMc9UlNR8apBSyMQrktIATADaWpp+aooiv9HURRTdmpeEOByucGSND2CDtTRmF4x3ZhelpV4jvt+dWXl3xu0NALhuoYUADOUM2fO8ILN9mNJFHeGw2HDD/ApioLNZofDRWSDhNgYFdNL0bTG8/wRp822tqioKHY0JIFASBpy557hjEkHRXF1OBw2/P+bZhg4p3naIMF4jLLvFQShDiy7qtbjOWvQ0ggEwiikALhOqK+vL9Mo6nlRFO8w4/ocx8HpzgJPZIPXNZIkwecdgiKnd87PcpzPwln+tKKi7FmDlkYgEMZBCoDrDLOlg9G0QYbIBq8rSEwvgTD9IAXAdUpDc/NDiqL+zAzpIEVRsDuccDgcAJkPmNEYGtPL80cVQVg5b9asfgOXSCAQJoDcna9zGltbd8qi+D1ZkrKMvjbDsnA6XbBYrUZfmjAFCAWD8Pu8UNM85+c5vo0R+Iery8s/MGhpBAJBB6QAIACISAclUfymrCiG79a8IMDldoNliWxwJiDLMvzeobRjehmWHbFw3FcqKyt/atDSCARCEpACgDCGpmlsc3PzvwVF8c/C4TBr5LUpihqbD6Bp2shLEzJEOKzC7/MhGEj7nD/M8fzzbZWV2+6iKMWg5REIhCQhBQDhGsyUDo7ZCjsc5MM3TYja96Yd00tREHjhGMfQyysqKjqNWyGBQEgFcg8mTEh9fX1ZGHhalqTPGT2OzXIc3G43OF4w+MoEIxFDIfi8Q2mf87Mc18fR9Kbq6urXDVoagUBIE1IAEBJyobHxE3RYe0aSxIVGFwKCYIErK4vIBqcYiizD7/NCFNOM6WXZEM/y36iqqviuQUsjEAgGQQoAgm7Mkg5SFAWb3Q6Hk9gKTzYGxvRqAi8c5jl2Q1lZWdCwBRIIBMMgd1tC0jRdurRdEsUfyLJsqHSQoWk4XG5iKzwJaJo2JusLh8MpXyca0wueW1VbXt5g4BIJBILBkAKAkDKjqYPfVAyWDvI8D6c7CxxJG8wIhsX0CsIAb7XurCwpOWDQ0ggEgomQAoCQFlHpYEiSvqSqqqE7ttVqg9NNZINmoSoK/H4fQsH0OvQMy0q8IHy/2uMhMb0EwjSCFAAEQ+jq6rKPiOJPpWBwsxoOG7Zjj8kG7XYyH2AQhtn30rQm8Pwb2W73mtzcXJ+BSyQQCBmA3FEJhlJXVzdLo6hnjJYOsiwLp8sNwWIx8KrXH4bF9PKWRnDMilqP54xBSyMQCBmGFAAEUzjf2noDLclPypJ4Y1rmMeMgssHUkCUJPp8Xcpr2vRzH+WiG+VJtVdXTBi2NQCBMEqQAIJhKQ0vLPYqiPCGLoseoa1IUBZvNDoeLyAYTYVRML8MwqmCxPFFZXv4nJKaXQJgZkLsnISM0NDVtVxTFUOkgTTNwulxENhgDo+x7KQC8IByFzba6tri417gVEgiEyYYUAISM0tTS8lVRkr6pyLJh0kGO5+FyucHxvFGXnNYYGdOrWYQ1c8rK3jdoaQQCYQpBCgBCxtE0jWlubv6u0dJBq9UGp8sF+jqdD4jE9HohSenZ9zIcF7AIwlcqy8t/YtDSCATCFIQUAIRJY0w6GAptVlXVEOkgRVGwO5xwOBzAdTIfEFbViJ4/EEjXvpfE9BII1xHXxx2SMKXp6uoqGAmFfhEKhZZoBsUPMywL1wyXDRod0xvmuZVzysrajVshgUCYypACgDBlaGhtXaRK8lNGSgd5QYDL5QY7w2yFxVAIPp8XqpLegzrLcX08w2ypqqr6lUFLIxAI0wRSABCmHM1tbXeJodDjsiRVGXG9qGzQ7nKBnubHAoqiRGJ6Q6G0rkMzjMjxln+srfR8x6ClEQiEacb0vhsSZjRNLS2PipL074osZxtxvTFbYYdj2n3wx2J6AyNptftJTC+BQIgy3e6DhOuQSOqg9E1FMUY6yHIcXO4s8NNANmhUTC8A8IJwnta05TU1NfUGLY9AIExjSAFAmBaMSQdF6Utq2BjpoMVqhdPlnrK2wpIowu/1Qk4zppfluEGLxb6zoqzkJYOWRiAQZgCkACBMK6LSQTEU2hw2QDo4FWWDRsX00jStCBbLj6orKv7aoKURCIQZxNS44xEISWK0dJBhGDick2srbFRML03TGk9iegkEQgJIAUCY1jS2t88JS9IvQsHQbUjLBicCz/NwZmWBYzMrGzQqppcThBbBYlldUVr6sUFLIxAIMxRSABBmBK2trXcGRPEJI6SDFEWNzQfQtCEGhRNiVEwvy7J+VhC+VOPxPGXQ0ggEwgyHFACEGUV9fdNGVVN/KMtSQbrXMlNk1Q8JAAACpklEQVQ2qIZVDHvTj+mlGUYVBOGpKo/nMYqi0pMJEAiE6wpSABBmJE0tLV8NSdI/qrKc9qE+y7KwO52wWKyg0hwUVFUVI8N+BEcC0NI8shAslj/Aal1OYnoJBEIqkAKAMGPRNI1ubm7+nlGpgzTNwGK1QLBYIfC8btWAqqoQQyGIoSAkSUrPtx8Ax/OdDMetq/F4jqZ1IQKBcF1DCgDCjKejo8MWlOWficHQ5nDYuNRBhmHAchwYmgFFU6CoyKXDYRVaWIOiyFAUJW0DnygMy4Z4i+Xvq8vL/92QCxIIhOsaUgAQrhvGpIPB4BJN06bNZ380pne/t7Jy62KKSs8ViEAgEEaZNjdBAsEo2traZodk+clQMHjbZK8lHhRFgef40yxDL6+srGye7PUQCISZBSkACNctbW1tnw6K4pOiKNZO9lrGw3JcnyAIWyvLy49M9loIBMLMhBQAhOuexpa29ZIU/LEiy2lLB9OFYRiJt1i+Xe3x/N/JXguBQJjZkAKAQBilqaXlL0Ki+C1VURyZfu9oTK/VImwsKSlJzxyAQCAQdEAKAALhCoyWDupBEIQ6jmFWVlRUnMvE+xEIBAJACgACISaXpYPBzeFw2BQ/YJ7jB1mG+2JVlWe/GdcnEAiEeJACgECIQ2NjY6FG08+IodDdRhUCDMcFBEH496ry8q8bcT0CgUBIBVIAEAg6qK+vLwDD/ERRlPsUWXYm+3qapjWWZdtZlv1JpcfzLxRFpR9dSCAQCGlACgACIUkaW1tv0DTtj8OKerMWVqvCmubUVJXTAGZ0Y1cpmhbp/9fuHBMBDAJAADuelQ0NSEYQMuqhEwI4LHTrkihI6puUpyTrtDZH7/vvOwAAAAAAAAAAAAAAAAAAAAAAAAAAAAAAAAAAAAAAAPDZBfgcrKD+wVBPAAAAAElFTkSuQmCC;" vertex="1" parent="1">
          <mxGeometry x="440" y="450" width="74" height="74" as="geometry" />
        </mxCell>
        <mxCell id="d-vzbSvFQILC7-2r6cho-15" value="" style="endArrow=classic;html=1;rounded=0;" edge="1" parent="1">
          <mxGeometry width="50" height="50" relative="1" as="geometry">
            <mxPoint x="300" y="380" as="sourcePoint" />
            <mxPoint x="430" y="320" as="targetPoint" />
          </mxGeometry>
        </mxCell>
        <mxCell id="d-vzbSvFQILC7-2r6cho-16" value="" style="endArrow=classic;html=1;rounded=0;" edge="1" parent="1">
          <mxGeometry width="50" height="50" relative="1" as="geometry">
            <mxPoint x="300" y="440" as="sourcePoint" />
            <mxPoint x="430" y="480" as="targetPoint" />
          </mxGeometry>
        </mxCell>
        <mxCell id="d-vzbSvFQILC7-2r6cho-17" value="" style="endArrow=classic;html=1;rounded=0;" edge="1" parent="1">
          <mxGeometry width="50" height="50" relative="1" as="geometry">
            <mxPoint x="520" y="320" as="sourcePoint" />
            <mxPoint x="590" y="320" as="targetPoint" />
          </mxGeometry>
        </mxCell>
        <mxCell id="d-vzbSvFQILC7-2r6cho-18" value="&lt;b&gt;WWAN Tracker&lt;/b&gt;" style="text;html=1;resizable=0;autosize=1;align=center;verticalAlign=middle;points=[];fillColor=none;strokeColor=none;rounded=0;" vertex="1" parent="1">
          <mxGeometry x="184.63" y="450" width="100" height="20" as="geometry" />
        </mxCell>
        <mxCell id="d-vzbSvFQILC7-2r6cho-19" value="&lt;b&gt;Database&lt;/b&gt;" style="text;html=1;resizable=0;autosize=1;align=center;verticalAlign=middle;points=[];fillColor=none;strokeColor=none;rounded=0;" vertex="1" parent="1">
          <mxGeometry x="440" y="352.38" width="70" height="20" as="geometry" />
        </mxCell>
        <mxCell id="d-vzbSvFQILC7-2r6cho-20" value="&lt;b&gt;Device&lt;/b&gt;" style="text;html=1;resizable=0;autosize=1;align=center;verticalAlign=middle;points=[];fillColor=none;strokeColor=none;rounded=0;" vertex="1" parent="1">
          <mxGeometry x="450" y="524" width="50" height="20" as="geometry" />
        </mxCell>
        <mxCell id="d-vzbSvFQILC7-2r6cho-21" value="&lt;b&gt;Website&lt;/b&gt;" style="text;html=1;resizable=0;autosize=1;align=center;verticalAlign=middle;points=[];fillColor=none;strokeColor=none;rounded=0;" vertex="1" parent="1">
          <mxGeometry x="617.38" y="352.38" width="60" height="20" as="geometry" />
        </mxCell>
      </root>
    </mxGraphModel>
  </diagram>
</mxfile>
